<svg id="Layer_1" data-name="Layer 1" xmlns="http://www.w3.org/2000/svg" xmlns:xlink="http://www.w3.org/1999/xlink" viewBox="0 0 204.05 235.61"><defs><style>.cls-1{fill:url(#New_Gradient_Swatch_1);}.cls-2{fill:#fff;}</style><linearGradient id="New_Gradient_Swatch_1" x1="39.94" y1="34.08" x2="162.31" y2="199.1" gradientUnits="userSpaceOnUse"><stop offset="0" stop-color="aqua"/><stop offset="1" stop-color="#f0f"/></linearGradient></defs><title>Buxtec_Logo</title><polygon class="cls-1" points="204.05 58.9 102.02 0 0 58.9 0 176.71 102.02 235.61 204.05 176.71 204.05 58.9"/><path class="cls-2" d="M167.38,165.9c-5.09,1.25-16.08,3.33-21.41,3.33s-9.43-.76-12.31-2.27a13.09,13.09,0,0,1-6.22-7.6Q125.52,154,125.53,144q0-14.33,4.42-19.62t16.89-5.29a61.76,61.76,0,0,1,12.24,1.44l8.3,1.34v13c-3.93-.48-13.79-1.67-17.12-1.67s-5.49.63-6.45,1.91-1.44,3.9-1.44,7.88a33.32,33.32,0,0,0,.69,8.28,4.66,4.66,0,0,0,2.19,3.06,11.72,11.72,0,0,0,4.9.76l17.23-2.22Z" transform="translate(-1.98 -0.33)"/><path class="cls-2" d="M38.84,67.05H60.65q17.64,0,17.64,12a19.64,19.64,0,0,1-1,7,10.76,10.76,0,0,1-4,4.6,10.14,10.14,0,0,1,4.86,3.71c.89,1.47,1.34,3.9,1.34,7.31q0,13.68-18.58,13.68H38.84Zm20.37,11H55.54v7.7h3.74a4,4,0,0,0,3-.93,4.38,4.38,0,0,0,.86-3,3.82,3.82,0,0,0-.94-2.92A4.34,4.34,0,0,0,59.21,78.07Zm.22,18.14H55.54v7.92h3.89c1.68,0,2.8-.27,3.38-.83a4.23,4.23,0,0,0,.87-3.09,4.16,4.16,0,0,0-.94-3.13A4.89,4.89,0,0,0,59.43,96.21Z" transform="translate(-1.98 -0.33)"/><path class="cls-2" d="M99,67.05V98.66a3.62,3.62,0,0,0,1,3,5.47,5.47,0,0,0,3.49.87,5.36,5.36,0,0,0,3.46-.87,3.71,3.71,0,0,0,1-3V67.05h16.71V97.72q0,10.23-5.11,14.37t-16.1,4.14q-11,0-16.09-4T82.25,98v-31Z" transform="translate(-1.98 -0.33)"/><path class="cls-2" d="M143,67.05l4.39,13.25L153,67.05h16.42L158.93,90l9.79,25.27H151.59l-4.25-12.81L143,115.29H126l10.3-23.11L126,67.05Z" transform="translate(-1.98 -0.33)"/><path class="cls-2" d="M38.63,133.66V120.05h40v13.61H70.27v34.63H53.57V133.66Z" transform="translate(-1.98 -0.33)"/><path class="cls-2" d="M82.66,168.29V120.05h40.15v13.32H99.36v4.11h15.13v13.17H99.36V155h23.45v13.32Z" transform="translate(-1.98 -0.33)"/></svg>