<svg xmlns="http://www.w3.org/2000/svg" viewBox="2130 80 120 138.629">
  <defs>
    <style>
      .cls-1 {
        fill: #fff;
      }
    </style>
  </defs>
  <g id="Buxtec_Logo_rev" transform="translate(2129.98 80)">
    <path id="Path_8" data-name="Path 8" class="cls-1" d="M62,.33,2,34.983v69.271l60,34.706,60-34.706V34.983ZM47.076,78.759H42.159V99.13H32.335V78.759H23.547V70.754H47.076ZM36.671,67.954h-13V39.577H36.5q10.376,0,10.376,7.059a11.553,11.553,0,0,1-.588,4.118,6.329,6.329,0,0,1-2.353,2.706,5.965,5.965,0,0,1,2.859,2.182,8.708,8.708,0,0,1,.788,4.3Q47.6,67.954,36.671,67.954ZM73.065,78.589H59.271v2.418h8.9v7.747h-8.9v2.559H73.065v7.835H49.447V70.754H73.065Zm1.088-20.971q0,6.018-3.006,8.453t-9.471,2.435q-6.471,0-9.465-2.353t-3.006-8.371V39.548h9.853V58.171a2.129,2.129,0,0,0,.588,1.765,3.218,3.218,0,0,0,2.053.512,3.153,3.153,0,0,0,2.035-.512,2.182,2.182,0,0,0,.588-1.765V39.577h9.829ZM99.282,79.489c-2.312-.282-8.112-.982-10.071-.982s-3.229.371-3.794,1.124-.847,2.294-.847,4.635a19.6,19.6,0,0,0,.406,4.871,2.741,2.741,0,0,0,1.288,1.8,6.894,6.894,0,0,0,2.882.447l10.135-1.306v7.647a72.509,72.509,0,0,1-12.594,1.959,15.884,15.884,0,0,1-7.241-1.335,7.7,7.7,0,0,1-3.659-4.471,27.951,27.951,0,0,1-1.124-9.035q0-8.429,2.6-11.541T87.2,70.189a36.329,36.329,0,0,1,7.2.847l4.882.788Zm.788-11.535H89.994l-2.5-7.535-2.553,7.535h-10L81,54.359,74.941,39.577h10l2.582,7.794,3.3-7.794h9.659l-6.171,13.5Z" transform="translate(-1.98 -0.33)"/>
    <path id="Path_9" data-name="Path 9" class="cls-1" d="M57.828,96.2H55.54v4.659h2.288a2.923,2.923,0,0,0,1.988-.488,2.488,2.488,0,0,0,.512-1.818,2.447,2.447,0,0,0-.553-1.841A2.877,2.877,0,0,0,57.828,96.2Z" transform="translate(-24.026 -39.8)"/>
    <path id="Path_10" data-name="Path 10" class="cls-1" d="M59.522,82.041a2.576,2.576,0,0,0,.506-1.765,2.247,2.247,0,0,0-.553-1.718,2.553,2.553,0,0,0-1.765-.506H55.54v4.529h2.2A2.353,2.353,0,0,0,59.522,82.041Z" transform="translate(-24.026 -32.329)"/>
  </g>
</svg>
