<svg xmlns="http://www.w3.org/2000/svg" viewBox="10090 741 45.589 40">
  <defs>
    <style>
      .cls-1 {
        fill: #555;
      }
    </style>
  </defs>
  <g id="Group_10" data-name="Group 10" transform="translate(10090.088 741.026)">
    <path id="Path_18" data-name="Path 18" class="cls-1" d="M43.206.739A6.2,6.2,0,0,1,45.3-.012c.483.215,0,.7-.376,1.771S31.08,36.527,31.08,36.9s-1.4.7-2.146.376c-.7-.376-13.843-6.385-13.843-6.385L34.621,10.665l-22.7,18.779L.55,23.757c-.751-.376-1.073-1.4.376-2.146C2.374,20.914,43.206.739,43.206.739Z" transform="translate(0 0)"/>
    <path id="Path_19" data-name="Path 19" class="cls-1" d="M28.3,62.2l6.009,2.844s-3.917,3.166-4.614,3.541-1.4.376-1.4-.7Z" transform="translate(-13.156 -28.838)"/>
  </g>
</svg>
