<svg xmlns="http://www.w3.org/2000/svg" viewBox="9723 119 30 30">
  <defs>
    <style>
      .cls-1 {
        fill: none;
      }

      .cls-2, .cls-4 {
        fill: #fff;
      }

      .cls-3, .cls-4 {
        stroke: none;
      }
    </style>
  </defs>
  <g id="Group_64" data-name="Group 64" transform="translate(7960 76)">
    <g id="Group_59" data-name="Group 59">
      <g id="Path_32" data-name="Path 32" class="cls-1" transform="translate(1763 43)">
        <path class="cls-3" d="M3,0H27a3,3,0,0,1,3,3V27a3,3,0,0,1-3,3H3a3,3,0,0,1-3-3V3A3,3,0,0,1,3,0Z"/>
        <path class="cls-4" d="M 27 29 C 28.1028003692627 29 29 28.1028003692627 29 27 L 29 3 C 29 1.897199988365173 28.1028003692627 1 27 1 L 3 1 C 1.897199988365173 1 1 1.897199988365173 1 3 L 1 27 C 1 28.1028003692627 1.897199988365173 29 3 29 L 27 29 M 27 30 L 3 30 C 1.343150019645691 30 -1.77635683940025e-15 28.6568603515625 -1.77635683940025e-15 27 L -1.77635683940025e-15 3 C -1.77635683940025e-15 1.343150019645691 1.343150019645691 -1.77635683940025e-15 3 -1.77635683940025e-15 L 27 -1.77635683940025e-15 C 28.6568603515625 -1.77635683940025e-15 30 1.343150019645691 30 3 L 30 27 C 30 28.6568603515625 28.6568603515625 30 27 30 Z"/>
      </g>
      <g id="Group_37" data-name="Group 37" transform="translate(-38 1)">
        <rect id="Rectangle_2" data-name="Rectangle 2" class="cls-2" width="20" height="3" rx="1.5" transform="translate(1806.233 49)"/>
        <rect id="Rectangle_3" data-name="Rectangle 3" class="cls-2" width="20" height="3" rx="1.5" transform="translate(1806.233 63)"/>
        <rect id="Rectangle_4" data-name="Rectangle 4" class="cls-2" width="20" height="3" rx="1.5" transform="translate(1806.233 56)"/>
      </g>
    </g>
  </g>
</svg>
