<svg xmlns="http://www.w3.org/2000/svg" viewBox="10098 851 28.604 40">
  <defs>
    <style>
      .cls-1 {
        fill: #555;
      }
    </style>
  </defs>
  <path id="Path_20" data-name="Path 20" class="cls-1" d="M11.475.9C11.209.051,10.1-.108,8.611.051A46.158,46.158,0,0,0,2.829,1.377C1.557,1.749-.618,4.188.231,8.644s4.3,12.464,5.516,14.9S13.914,36.859,16.99,38.61c2.334,1.379,5.3,1.856,6.258.849s4.561-4.4,5.039-4.826c.477-.477.583-1.379-.371-2.7s-4.561-6.789-5.039-7.531-1.326-.743-2.97,0-2.6,1.326-2.864,1.379c-.265.106-2.97-3.607-3.819-5.2s-2.493-5.94-2.122-6.258c.371-.265,3.182-2.281,3.66-2.6.689-.477,1.008-.849.371-2.334C14.339,7.9,11.475.9,11.475.9Z" transform="translate(10097.961 851.003)"/>
</svg>
