<?xml version="1.0" standalone="no"?>
<!DOCTYPE svg PUBLIC "-//W3C//DTD SVG 20010904//EN"
 "http://www.w3.org/TR/2001/REC-SVG-20010904/DTD/svg10.dtd">
<svg version="1.0" xmlns="http://www.w3.org/2000/svg"
 width="235.000000pt" height="235.000000pt" viewBox="0 0 235.000000 235.000000"
 preserveAspectRatio="xMidYMid meet">
<metadata>
Created by potrace 1.11, written by Peter Selinger 2001-2013
</metadata>
<g transform="translate(0.000000,235.000000) scale(0.100000,-0.100000)"
fill="#000000" stroke="none">
<path d="M1036 2284 c-49 -30 -91 -54 -93 -54 -2 0 -65 -36 -139 -80 -75 -44
-138 -80 -140 -80 -3 0 -30 -16 -60 -35 -30 -19 -56 -35 -59 -35 -3 0 -29 -16
-59 -35 -30 -19 -57 -35 -60 -35 -5 0 -298 -169 -306 -177 -3 -2 -5 -268 -5
-590 l0 -586 31 -23 c17 -13 34 -24 37 -24 3 0 30 -14 59 -31 29 -18 67 -39
83 -49 129 -73 353 -202 365 -209 8 -6 105 -62 216 -125 139 -80 210 -116 232
-116 22 0 114 48 318 166 158 91 301 174 318 184 59 33 141 80 156 90 8 5 63
36 121 69 l106 61 -1 592 -1 591 -72 43 c-40 23 -96 56 -125 72 -61 34 -173
98 -205 118 -13 8 -26 14 -29 13 -4 0 -10 3 -13 8 -3 4 -15 13 -26 19 -11 6
-81 46 -155 89 -74 43 -151 87 -170 97 -19 11 -76 44 -127 74 -51 30 -96 54
-100 53 -4 0 -48 -25 -97 -55z"/>
</g>
</svg>
