<?xml version="1.0" encoding="utf-8"?>
<!-- Generator: Adobe Illustrator 22.0.1, SVG Export Plug-In . SVG Version: 6.00 Build 0)  -->
<svg version="1.1" id="Layer_1" xmlns="http://www.w3.org/2000/svg" xmlns:xlink="http://www.w3.org/1999/xlink" x="0px" y="0px"
	 viewBox="0 0 568.9 50.8" style="enable-background:new 0 0 568.9 50.8;" xml:space="preserve">
<style type="text/css">
	.st0{fill:url(#SVGID_1_);}
	.st1{fill:#FFFFFF;}
	.st2{fill:url(#SVGID_2_);}
	.st3{fill:url(#SVGID_3_);}
	.st4{fill:url(#SVGID_4_);}
	.st5{fill:url(#SVGID_5_);}
	.st6{fill:url(#SVGID_6_);}
	.st7{fill:url(#SVGID_7_);}
	.st8{fill:url(#SVGID_8_);}
	.st9{fill:url(#SVGID_9_);}
	.st10{fill:url(#SVGID_10_);}
	.st11{fill:url(#SVGID_11_);}
	.st12{fill:url(#SVGID_12_);}
	.st13{fill:url(#SVGID_13_);}
	.st14{fill:url(#SVGID_14_);}
	.st15{fill:url(#SVGID_15_);}
	.st16{fill:url(#SVGID_16_);}
	.st17{fill:url(#SVGID_17_);}
	.st18{fill:url(#SVGID_18_);}
	.st19{fill:url(#SVGID_19_);}
	.st20{fill:url(#SVGID_20_);}
	.st21{fill:url(#SVGID_21_);}
	.st22{fill:url(#SVGID_22_);}
	.st23{fill:url(#SVGID_23_);}
	.st24{fill:url(#SVGID_24_);}
	.st25{fill:url(#SVGID_25_);}
	.st26{fill:url(#SVGID_26_);}
	.st27{fill:url(#SVGID_27_);}
	.st28{fill:url(#SVGID_28_);}
</style>
<g>
	<linearGradient id="SVGID_1_" gradientUnits="userSpaceOnUse" x1="29.6062" y1="5.3521" x2="29.6062" y2="47.1565">
		<stop  offset="0" style="stop-color:#00984A"/>
		<stop  offset="1" style="stop-color:#003C10"/>
	</linearGradient>
	<path class="st0" d="M12,45.1l0.2,0.1H26l0.8-0.4l-0.4,0.4h1.7l0.2-0.2l0.4,0.2h4l0.4-0.2l0.6,0.2h1.4l0.6-0.6l6.9,0.3
		c0.6,0,1.1,0,1.7,0.1c1.5-0.4,2.8-1.3,3.9-2.7c1.6-2,2.5-4.5,2.5-7.4v-4.7c0-2.2-0.6-4.2-1.9-5.8c1.3-1.5,1.9-3.5,1.9-5.8V16
		c0-2.9-0.8-5.4-2.5-7.4c-1.6-2-3.6-3-5.9-3H8.5v9.5h30.1v4.6h-27v9.3h27v6.6L8.5,35.8v9.5h3.2L12,45.1z M46.5,35.5
		c0,0.3-0.4,0.5-0.8,0.5h-0.8v-1.7l0.8,0.3C46.2,34.9,46.5,35.2,46.5,35.5z M45.3,32.3c0.2,0,0.4,0.1,0.4,0.3c0,0.1-0.2,0.3-0.4,0.3
		c-0.2,0-0.4-0.1-0.4-0.3C44.9,32.4,45.1,32.3,45.3,32.3z M44.4,30.1c0.2,0,0.4,0.1,0.4,0.3c0,0.1-0.2,0.3-0.4,0.3
		c-0.2,0-0.4-0.1-0.4-0.3C44,30.3,44.2,30.1,44.4,30.1z"/>
	<path class="st1" d="M52,35c-0.2,0-0.4,0.1-0.4,0.3c0,0.1,0.2,0.3,0.4,0.3c0.2,0,0.4-0.1,0.4-0.3C52.4,35.1,52.2,35,52,35z"/>
	<g>
		<linearGradient id="SVGID_2_" gradientUnits="userSpaceOnUse" x1="234.8711" y1="5.3549" x2="234.8711" y2="46.7254">
			<stop  offset="0" style="stop-color:#A7A9AC"/>
			<stop  offset="1" style="stop-color:#000000"/>
		</linearGradient>
		<path class="st2" d="M244.4,5.6v16.2h-19.2V5.6h-11.7v15.1c0,2.9,0.8,5.3,2.3,7.3c1.6,2,3.5,3,5.7,3l7.4-0.1v0.3c0,0,0.1,0,0.2,0
			c0.2,0,0.4,0.1,0.4,0.3c0,0.1-0.2,0.3-0.4,0.3c-0.1,0-0.1,0-0.2,0v8.8c0.4,0,0.9-0.1,1.2,0l1.1,0.1l-0.1,1.1l-2.1,0.4l-0.1,0v0.9
			l1.8,0.1l-1.2,0.5l-0.6,0.3V44h3.1l0.1-1.3l2.7,2.1l-0.5-0.9l-0.5-0.9l3.5-0.6l1,0.8l1,0.8l1.5-0.9l0.1,0V31.1h7.5
			c2.2,0,4-1,5.4-3c1.4-2,2.2-4.1,2.3-6.5V5.6H244.4z M224.2,30.7c-0.2,0-0.4-0.1-0.4-0.3c0-0.1,0.2-0.3,0.4-0.3s0.4,0.1,0.4,0.3
			C224.6,30.6,224.4,30.7,224.2,30.7z M233.5,33.7l-0.6,0.4v-1.4l1.1,0.7L233.5,33.7z"/>
		<linearGradient id="SVGID_3_" gradientUnits="userSpaceOnUse" x1="181.8293" y1="44.1709" x2="181.8293" y2="44.4996">
			<stop  offset="0" style="stop-color:#A7A9AC"/>
			<stop  offset="1" style="stop-color:#000000"/>
		</linearGradient>
		<polygon class="st3" points="181.7,44.5 182,44.5 181.7,44.2 		"/>
		<linearGradient id="SVGID_4_" gradientUnits="userSpaceOnUse" x1="187.8176" y1="5.3522" x2="187.8176" y2="47.1451">
			<stop  offset="0" style="stop-color:#A7A9AC"/>
			<stop  offset="1" style="stop-color:#000000"/>
		</linearGradient>
		<path class="st4" d="M166.7,15.5h15v24.3c0.2,0,0.3,0.1,0.3,0.2c0,0-0.1,0.1-0.3,0.2v3.4l1.9,0l2.5,0v1.4h1.3l0-1.2
			c0-0.7-0.3-1.5-0.7-1.9l-0.7-0.7h0.8c0.5,0,1.4,0.2,2.2,0.3l1.3,0.3l-2,1.5l0.4,0.3c0.2,0.2,1.2,0.3,2.2,0.4l1.8,0.1v1l1-0.5V15.5
			h15.1V5.6h-42.2V15.5z M192.9,41.9v1.7l-0.8-0.3c-0.5-0.2-0.8-0.6-0.8-0.8c0-0.3,0.4-0.5,0.8-0.5H192.9z M190.7,32.8
			c0.2,0,0.6,0.2,0.9,0.5c0.3,0.3,0.3,0.5,0.1,0.5c-0.2,0-0.6-0.2-0.9-0.5C190.5,33.1,190.4,32.8,190.7,32.8z M185.6,36.6l-0.6,0.4
			l-0.6,0.4l-0.6-0.4l-0.6-0.4H185.6z M182.4,38.2c0.2,0,0.4,0.1,0.4,0.3c0,0.1-0.2,0.3-0.4,0.3c-0.2,0-0.4-0.1-0.4-0.3
			C182,38.3,182.2,38.2,182.4,38.2z"/>
		<linearGradient id="SVGID_5_" gradientUnits="userSpaceOnUse" x1="138.9611" y1="5.3521" x2="138.9611" y2="47.1565">
			<stop  offset="0" style="stop-color:#A7A9AC"/>
			<stop  offset="1" style="stop-color:#000000"/>
		</linearGradient>
		<path class="st5" d="M147.8,5.6l-8.6,11.7l-8.6-11.7h-13.6l14.2,18.5l-14.8,21.1h8.9l1.2-1.4l5-0.1l7.6-11.3l8,11.9l0.2-0.2
			l0.4-0.7l1.1,1l1,0.8h0.2l0-0.8l0-0.9h1.7v1.6h4.1L157,44l1.1,0.6l1.1,0.6l1.7-1.5l-13.7-19.5l14.2-18.5H147.8z M150.2,38.7
			c0-0.2,0.5-0.5,1-0.7c0.6-0.1,1.2-0.2,1.3-0.1c0.2,0.1,0.2,0.3,0,0.6c-0.2,0.2-0.7,0.5-1.3,0.5l-1,0.1V38.7z M149.7,42.4l-0.6,0.3
			l-0.6,0.4l-0.6-0.4l-0.6-0.3H149.7z"/>
		<linearGradient id="SVGID_6_" gradientUnits="userSpaceOnUse" x1="131.0513" y1="44.571" x2="131.0513" y2="44.7915">
			<stop  offset="0" style="stop-color:#A7A9AC"/>
			<stop  offset="1" style="stop-color:#000000"/>
		</linearGradient>
		<polygon class="st6" points="131,44.8 131.1,44.6 131,44.6 		"/>
		<linearGradient id="SVGID_7_" gradientUnits="userSpaceOnUse" x1="113.3388" y1="44.6095" x2="113.3388" y2="45.2768">
			<stop  offset="0" style="stop-color:#A7A9AC"/>
			<stop  offset="1" style="stop-color:#000000"/>
		</linearGradient>
		<path class="st7" d="M113.4,44.6c0,0.1-0.1,0.3-0.2,0.6h0.3v-0.6C113.4,44.6,113.4,44.6,113.4,44.6z"/>
		<linearGradient id="SVGID_8_" gradientUnits="userSpaceOnUse" x1="107.8427" y1="5.3566" x2="107.8427" y2="46.4501">
			<stop  offset="0" style="stop-color:#A7A9AC"/>
			<stop  offset="1" style="stop-color:#000000"/>
		</linearGradient>
		<path class="st8" d="M102.2,43.7l5.4-0.1v0.5c0,0.3,0.4,0.5,0.9,0.5h0.9l-0.5-0.9l-0.5-0.9l1.3,0.3c0.7,0.2,2.4,0.3,3.8,0.3V31
			l0-0.7c-0.8-0.3-1.4-0.4-1.5-0.5c-0.1,0-0.4-0.7-0.7-1.5l-0.6-1.5l2.6,0.3l0.1,0l0-0.2l0-5.3V5.6h-11.3V43.7z"/>
		<linearGradient id="SVGID_9_" gradientUnits="userSpaceOnUse" x1="76.07" y1="5.2931" x2="76.07" y2="47.1593">
			<stop  offset="0" style="stop-color:#A7A9AC"/>
			<stop  offset="1" style="stop-color:#000000"/>
		</linearGradient>
		<path class="st9" d="M57,8.7c-1.6,2-2.4,4.5-2.4,7.3v2.7c0,2.9,0.8,5.2,2.3,7.1c1.5,1.9,3.5,3.1,6,3.6h22.6V36l-30.9-0.2v9.4h5.9
			l1.2-0.2l0.4,0.2h3.7l0.3-0.1l2.7-1l2.1,0.3l2.1,0.3l1.1-2.2h2.5l-0.5,0.5l-0.5,0.5l0.5,0.8l0.5,0.9h1.1c0.6,0,2.1-0.3,3.4-0.8
			l2.3-0.8l2.5,0.8l2.5,0.8l0.6-0.6l0.6-0.6l3.5-0.1c0.6-0.4,1.1-0.9,1.6-1.6L94,42.6l-1.9-1.2l1.3-0.5l1.2-0.5l0.5,0.9l0.3,0.5
			c1-1.4,1.7-3,1.9-4.8l-0.6,0.3V36h0.7c0-0.4,0.1-0.8,0.1-1.2v-4.7c0-2.9-0.8-5.1-2.4-6.6C93.5,22,91.5,21,89,20.7H66.5v-5.5
			l31-0.1V5.6L62.8,5.6C60.5,5.6,58.6,6.6,57,8.7z M58.7,38.7c-0.2,0-0.4-0.1-0.4-0.3c0-0.2,0.2-0.3,0.4-0.3c0.2,0,0.4,0.1,0.4,0.3
			C59.1,38.6,58.9,38.7,58.7,38.7z M64.9,38.7v-0.8c0-0.4,0.1-0.8,0.3-0.8c0.2,0,0.5,0.4,0.8,0.8l0.5,0.8H64.9z M80,36.6
			c0,0.3-0.4,0.5-0.8,0.5c-0.4,0-1-0.2-1.3-0.5L77.4,36H80V36.6z M91.7,26.4h0.8c0.5,0,0.8,0.1,0.8,0.2c0,0.1-0.4,0.4-0.8,0.6
			l-0.8,0.3V26.4z M90.8,35.3L92,36l-0.6,0.4l-0.6,0.4V35.3z M90.4,37.1c0.2,0,0.4,0.1,0.4,0.3c0,0.1-0.2,0.3-0.4,0.3
			c-0.2,0-0.4-0.1-0.4-0.3C90,37.2,90.2,37.1,90.4,37.1z"/>
	</g>
	<g>
		<linearGradient id="SVGID_10_" gradientUnits="userSpaceOnUse" x1="424.4126" y1="4.8774" x2="424.4126" y2="50.2118">
			<stop  offset="0" style="stop-color:#00984A"/>
			<stop  offset="1" style="stop-color:#003C10"/>
		</linearGradient>
		<polygon class="st10" points="423.5,40.3 425.3,40.7 425.3,39.2 423.5,39.2 		"/>
		<linearGradient id="SVGID_11_" gradientUnits="userSpaceOnUse" x1="444.1562" y1="4.8786" x2="444.1562" y2="50.2116">
			<stop  offset="0" style="stop-color:#00984A"/>
			<stop  offset="1" style="stop-color:#003C10"/>
		</linearGradient>
		<path class="st11" d="M456.9,5.6h-33.4v33l0,0l2.1-0.5l1.4,0.2l1.4,0.2l1-0.4l1-0.4l-1.7-0.3c-0.9-0.2-2-0.3-2.4-0.3
			c-0.4,0-1.2,0-1.7,0l-1-0.1l0.9-1.5l2.7,0.4c1.5,0.2,3.7,0.6,5,0.8l2.3,0.3v1.6h-4.1l-0.6,0.6l-0.6,0.6l2.7-0.3
			c1-0.1,2-0.2,2.9-0.3V26.9c-0.2,0-0.3-0.1-0.3-0.2c0-0.1,0.1-0.2,0.3-0.3V15.2h18.7v6.6h-10.8l5.5,11.6h0.1c0.5,0,1.4,0.2,2.1,0.5
			l1.3,0.5h-0.8c-0.5,0-1.4-0.2-2.1-0.5l-0.4-0.2l1.3,2.8c1.2,0.1,2.4,0.2,3.1,0.2l2,0l1.2,1.3l1.2,1.3l-0.5-1.5l-0.5-1.5l2-1.5
			l1.2,0.3l1.2,0.3v0l-0.6-1.1h-0.6c-0.7,0-1.8,0.4-2.5,0.8l-1.3,0.8l-0.1-0.4c-0.1-0.2-0.1-0.6,0-0.8c0.1-0.2-0.3-0.4-0.7-0.4h-0.8
			v-2l1.6,0l1.6,0.1l0-0.4c0-0.2,0-0.9,0-1.5v-1.1h-6.6l-0.9-1l-0.9-1l0.8-0.3l0.8-0.3v1.2l1.7-0.7v1.7h1.8l-0.5-0.5l-0.5-0.5
			l2.7-0.3l2.7-0.3l1.2,0.3l1.2,0.3l-3,1.4l1.4,0.4l0.4,0.1c1.6-0.7,2.8-1.7,3.6-3c1.1-1.9,1.6-4,1.6-6.3V16c0-2.9-0.8-5.4-2.3-7.4
			C460.9,6.6,459.1,5.6,456.9,5.6z M425.8,33.7l-0.6,0.4l-0.6-0.4l-0.6-0.4h2.2L425.8,33.7z M426.1,31.8v-0.5c0-0.3,0.2-0.5,0.4-0.5
			c0.2,0,0.6,0.2,0.9,0.5l0.5,0.5H426.1z M429.5,29l-3.7,0.6l-0.4-0.3l-0.4-0.3l1.2-0.5c0.7-0.3,1.7-0.5,2.3-0.5l1,0V29z
			 M431.1,33.9v-0.5c0-0.3,0.2-0.5,0.4-0.5c0.2,0,0.6,0.2,0.9,0.5l0.5,0.5H431.1z M456.8,26.7l-0.5,0.3l-2.2-0.6l1.6,0l1.6,0
			L456.8,26.7z"/>
		<linearGradient id="SVGID_12_" gradientUnits="userSpaceOnUse" x1="350.5073" y1="4.8786" x2="350.5073" y2="50.2116">
			<stop  offset="0" style="stop-color:#00984A"/>
			<stop  offset="1" style="stop-color:#003C10"/>
		</linearGradient>
		<path class="st12" d="M363.6,5.6h-34.8V34c0.5,0.3,1.2,0.4,1.6,0.4h1l0.8-1.9l-0.1,1.6l-0.1,1.6l1.7,0.2c0.9,0.1,2,0.4,2.5,0.7
			l0.8,0.5l-1.9,0.3l-1.9,0.3l0.5,0.5l0.5,0.5l1.6-0.6l1.6-0.6v1.1H335l-1.8,2.1h2.4l0.8,1.3l0.9-0.8l0.9-0.8l1.5,0.6l1.3,0.5v-1.9
			c-0.1,0-0.1,0-0.2,0c-0.4,0-0.9-0.5-1.1-1l-0.4-1l0.5-0.3l0.5-0.3l0.8,0.4V15.2h18.8v6.6h-12.7V31l16.5,0.1c2.3,0,4.4-1,6-3
			c1.7-2,2.5-4.5,2.5-7.3V16c0-2.9-0.8-5.3-2.5-7.3C368,6.6,366,5.6,363.6,5.6z M335.4,33.4c-0.2,0-0.4-0.1-0.4-0.3
			c0-0.2,0.2-0.3,0.4-0.3c0.2,0,0.4,0.1,0.4,0.3C335.8,33.2,335.6,33.4,335.4,33.4z M339.6,36.6c-0.2,0-0.4-0.1-0.4-0.3
			c0-0.1,0.2-0.3,0.4-0.3c0.2,0,0.4,0.1,0.4,0.3C340,36.4,339.8,36.6,339.6,36.6z M365.1,29.6c-0.5,0-0.8-0.2-0.8-0.5
			c0-0.3,0.4-0.5,0.8-0.5c0.5,0,0.8,0.2,0.8,0.5C365.9,29.4,365.5,29.6,365.1,29.6z M363.8,26.8l-0.7-0.8l-0.7-0.8l1.1-0.5
			c0.6-0.3,1.6-0.5,2.2-0.5l1.1,0L363.8,26.8z"/>
		<linearGradient id="SVGID_13_" gradientUnits="userSpaceOnUse" x1="331.5044" y1="4.8782" x2="331.5044" y2="50.2116">
			<stop  offset="0" style="stop-color:#00984A"/>
			<stop  offset="1" style="stop-color:#003C10"/>
		</linearGradient>
		<path class="st13" d="M330.9,40.9l0.4-2.1l0.4-2.1l-2.6-1.5l-0.2-0.1v0.4c0,0,0,0,0.1,0c0.1,0,0.2,0.5,0.1,1.2
			c-0.1,0.7,0.2,1.6,0.5,2.1l0.6,0.9h-0.9c-0.1,0-0.3,0-0.4-0.1v2l1.3-0.5l-0.5,0.5l-0.5,0.5l1.3,0.3c0.7,0.2,1.9,0.3,2.5,0.3h1.2
			l-1.6-1L330.9,40.9z"/>
		<linearGradient id="SVGID_14_" gradientUnits="userSpaceOnUse" x1="559.2582" y1="4.8791" x2="559.2582" y2="50.2105">
			<stop  offset="0" style="stop-color:#00984A"/>
			<stop  offset="1" style="stop-color:#003C10"/>
		</linearGradient>
		<path class="st14" d="M558.8,25.8l0.9,0.4c-0.1-0.2-0.2-0.4-0.3-0.6L558.8,25.8z"/>
		<linearGradient id="SVGID_15_" gradientUnits="userSpaceOnUse" x1="556.0395" y1="4.8782" x2="556.0395" y2="50.2129">
			<stop  offset="0" style="stop-color:#00984A"/>
			<stop  offset="1" style="stop-color:#003C10"/>
		</linearGradient>
		<path class="st15" d="M555.9,22.3l1.2,1l0.2-0.4c-0.8-0.6-1.7-1.2-2.6-1.5L555.9,22.3z"/>
		<linearGradient id="SVGID_16_" gradientUnits="userSpaceOnUse" x1="554.0497" y1="4.8781" x2="554.0497" y2="50.2115">
			<stop  offset="0" style="stop-color:#00984A"/>
			<stop  offset="1" style="stop-color:#003C10"/>
		</linearGradient>
		<polygon class="st16" points="553.6,36 554.5,35.2 553.6,34.4 		"/>
		<linearGradient id="SVGID_17_" gradientUnits="userSpaceOnUse" x1="553.7997" y1="4.8782" x2="553.7997" y2="50.2117">
			<stop  offset="0" style="stop-color:#00984A"/>
			<stop  offset="1" style="stop-color:#003C10"/>
		</linearGradient>
		<polygon class="st17" points="552.4,33.9 555.2,33.7 554.2,33 		"/>
		<linearGradient id="SVGID_18_" gradientUnits="userSpaceOnUse" x1="545.2372" y1="4.8785" x2="545.2372" y2="50.2114">
			<stop  offset="0" style="stop-color:#00984A"/>
			<stop  offset="1" style="stop-color:#003C10"/>
		</linearGradient>
		<polygon class="st18" points="546,36 544.2,36 543.2,38.2 547.2,38.4 545.6,36.8 		"/>
		<linearGradient id="SVGID_19_" gradientUnits="userSpaceOnUse" x1="531.7997" y1="4.8781" x2="531.7997" y2="50.2116">
			<stop  offset="0" style="stop-color:#00984A"/>
			<stop  offset="1" style="stop-color:#003C10"/>
		</linearGradient>
		<polygon class="st19" points="530.7,38.3 532.9,39.8 532.5,37.3 		"/>
		<linearGradient id="SVGID_20_" gradientUnits="userSpaceOnUse" x1="539.0723" y1="4.879" x2="539.0723" y2="50.2119">
			<stop  offset="0" style="stop-color:#00984A"/>
			<stop  offset="1" style="stop-color:#003C10"/>
		</linearGradient>
		<path class="st20" d="M538.6,38.3c0,0,1.2,0.4,0.9-0.1C539.2,37.7,538.6,38.3,538.6,38.3z"/>
		<linearGradient id="SVGID_21_" gradientUnits="userSpaceOnUse" x1="539.0038" y1="4.8786" x2="539.0038" y2="50.2112">
			<stop  offset="0" style="stop-color:#00984A"/>
			<stop  offset="1" style="stop-color:#003C10"/>
		</linearGradient>
		<path class="st21" d="M525.7,5.6c-2.3,0-4.2,1-5.8,3c-1.6,2-2.3,4.5-2.3,7.3v2.7c0,2.9,0.8,5.2,2.3,7.1c1,1.2,2.1,2.1,3.5,2.8
			l0.9,0.1l1.8,0.2l1-0.7c0.5-0.4,1-0.9,1-1.2v-0.6h-1.8l1.1-2.1h-1.9l0.5-0.5c0.3-0.3,0.9-0.5,1.3-0.5h0.8l-0.4,0.4l-0.4,0.4
			l1.2,1.5l1.2,1.5l-0.5,0.8l-0.4,0.7l-0.1-0.1l-1.2,0.6l-0.5,0.3h2.5l-0.3-0.4l-0.3-0.3l1.2-0.3l1.2-0.3l0.5,0.6l0.5,0.6l3-0.3
			l3-0.3l-1.5,0.7l-0.2,0.1h3.9l0.8-0.6l-0.1,0.6h7V30l0.1,0.1l0.5,0.5l5-1.1v-1h3l-0.6-2.5c-0.3-1.4-0.9-3-1.2-3.6l-0.6-1
			c-0.8-0.3-1.7-0.6-2.7-0.7h-8.1c1,0.7,1.9,1.4,2.3,1.7l0.9,1l-0.9,1.4l-0.9,1.4l-2.4,0.2l-2.4,0.2l-0.9-0.9l-1.7,0.7l-0.7-0.7
			l-0.4-1.9l1.2-0.9l-1.4-1.4l-1.5-1h-1.5l0.3,0.1l0.5,1.4l1.1-0.1l0.6,1l0.1,2l-1.7,1.6l-1-0.8c-0.6-0.5-1.7-1-2.5-1.2l-1.5-0.3
			v-0.6c0-0.4,0.6-1.1,1.3-1.6l1.3-1l-0.2-0.4h-2.9v-5.5l5.1,0l0.7-0.4l1.3,0.2c0.5,0.1,1,0.1,1.3,0.2l22.6,0V5.6L525.7,5.6z
			 M552.8,28c0.2,0,0.4,0.1,0.4,0.3c0,0.1-0.2,0.3-0.4,0.3c-0.2,0-0.4-0.1-0.4-0.3C552.4,28.1,552.6,28,552.8,28z M549.4,24.3
			c0.2,0,0.4,0.1,0.4,0.3c0,0.1-0.2,0.3-0.4,0.3c-0.2,0-0.4-0.1-0.4-0.3C549,24.4,549.2,24.3,549.4,24.3z M547.3,25.9l1.2-0.5
			l1.1,0.3c0.6,0.1,1.1,0.5,1.1,0.8c0,0.3-0.6,0.9-1.4,1.4l-1.4,0.9l0.5-1.2l0.5-1.2l-2.8,0L547.3,25.9z M544.8,27.8l1.1,0.7
			l-0.6,0.4l-0.6,0.4V27.8z"/>
		<linearGradient id="SVGID_22_" gradientUnits="userSpaceOnUse" x1="539.4711" y1="4.8795" x2="539.4711" y2="50.2106">
			<stop  offset="0" style="stop-color:#00984A"/>
			<stop  offset="1" style="stop-color:#003C10"/>
		</linearGradient>
		<polygon class="st22" points="539.7,21.5 540.3,20.7 538.7,20.7 538.9,21.5 		"/>
		<linearGradient id="SVGID_23_" gradientUnits="userSpaceOnUse" x1="397.7158" y1="4.8786" x2="397.7158" y2="50.2113">
			<stop  offset="0" style="stop-color:#00984A"/>
			<stop  offset="1" style="stop-color:#003C10"/>
		</linearGradient>
		<path class="st23" d="M411.3,5.6h-27.2c-2.1,0-3.9,1-5.4,3c-1.5,2-2.2,4.5-2.2,7.4v18.8c0,0.3,0,0.6,0,0.9l0.7,0.3l-0.7,0
			c0.1,1.6,0.5,3.1,1.1,4.4l1.6,1.1l0.5-0.9l0.5-0.9l0.8,0.3l0.8,0.3l-0.6,0.6l-0.6,0.6l1.4-0.7l1.4-0.7v-2.5h-0.8
			c-0.5,0-0.8,0.2-0.8,0.5v0.5h-4.1l-0.5-0.5l-0.5-0.5l0.5-0.8l0.5-0.8l1.4,0c0.8,0,2.5-0.1,3.9-0.2l2.5-0.1l1-2.7l0.6,0.7l0.3,0.3
			V15.5H408v18.8c0.3,0,0.7,0,1,0l2.5,0.1l-2.3,0.9l-1.2-0.2v0.2h-2v1l-1.7,0.3l-1.7,0.3v1.7h-0.8c-0.5,0-0.8-0.2-0.8-0.5v-0.5
			l-2.5-0.7c-1.4-0.4-2.5-0.9-2.5-1.1v-0.4l5.4,0.2l0-0.4h-8.8v1.2l-1,0l-1.1,0l1.1,0.3l1,0.3v2.7l13.5-0.7l3.5-1.3l0.4,0.7
			c0.2,0.4,0.7,0.7,1.1,0.7h0.7l-1-1.6h2.6l-1,1.6h2l0.4-1.1l0.4-1.1h1.7l-0.4,1.6l-0.4,1.6h1.4l0.5-1.6l0.5-1.6h0
			c0.1-0.4,0.1-0.7,0.1-1.1l-0.2,0.2l-2.4-1.3l-0.5,0.3l-0.5,0.3l-1.7-0.4l-1.7-0.4v-1h2.4l0.3,0.6l0.3,0.6l1.9-0.7l1.9-0.7l0.2,0.1
			v-0.6c-0.2,0-0.4-0.1-0.4-0.3c0-0.1,0.2-0.3,0.4-0.3V16c0-2.9-0.8-5.4-2.3-7.4C415.2,6.6,413.4,5.6,411.3,5.6z M382.2,26.9
			c0.2,0,0.4,0.1,0.4,0.3c0,0.2-0.2,0.3-0.4,0.3c-0.2,0-0.4-0.1-0.4-0.3C381.8,27.1,382,26.9,382.2,26.9z M378.9,34.4h-1.3v-1
			l1.3,0.3c0.7,0.2,1.3,0.4,1.3,0.5C380.1,34.3,379.6,34.4,378.9,34.4z M381,30.3l0.5-0.3c0.3-0.2,1-0.3,1.6-0.3h1.1v1.6h-1.2
			c-0.7,0-1.4-0.2-1.7-0.5L381,30.3z M383.9,33.9c-0.3,0.3-0.9,0.5-1.3,0.5c-0.4,0-0.8-0.2-0.8-0.5v-0.5h2.6L383.9,33.9z M410,28.9
			l-0.6,0.4l-0.6-0.4l-0.6-0.4h2.2L410,28.9z M410.2,27.7l-0.8,0.3v-1.7h0.8c0.5,0,0.8,0.2,0.8,0.5
			C411.1,27.2,410.7,27.6,410.2,27.7z M395.2,38.2c0,0.3-0.2,0.5-0.4,0.5c-0.2,0-0.6-0.2-0.9-0.5l-0.5-0.5h1.8V38.2z M400.1,38.9
			l-0.4,0.3l-1.8-0.3l-1.8-0.3v-0.9l1,0c0.6,0,1.6,0.2,2.3,0.5l1.2,0.5L400.1,38.9z M403.5,38.7v-0.5c0-0.3,0.3-0.5,0.6-0.5
			c0.4,0,1.2,0.2,1.9,0.5l1.3,0.5L403.5,38.7z M407.4,37.4l-0.6,0.4l-0.6-0.4l-0.6-0.3h2.2L407.4,37.4z"/>
		<linearGradient id="SVGID_24_" gradientUnits="userSpaceOnUse" x1="497.3057" y1="4.8803" x2="497.3057" y2="50.2105">
			<stop  offset="0" style="stop-color:#00984A"/>
			<stop  offset="1" style="stop-color:#003C10"/>
		</linearGradient>
		<path class="st24" d="M496.4,35.1l1.3-0.3c0.1,0,0.4-0.1,0.6-0.1v-0.8h-1.9V35.1z"/>
		<linearGradient id="SVGID_25_" gradientUnits="userSpaceOnUse" x1="498.1415" y1="4.8772" x2="498.1415" y2="50.2124">
			<stop  offset="0" style="stop-color:#00984A"/>
			<stop  offset="1" style="stop-color:#003C10"/>
		</linearGradient>
		<polygon class="st25" points="498,29.5 498.3,29.7 498.3,28 498,28.1 		"/>
		<linearGradient id="SVGID_26_" gradientUnits="userSpaceOnUse" x1="499.2733" y1="4.8785" x2="499.2733" y2="50.2112">
			<stop  offset="0" style="stop-color:#00984A"/>
			<stop  offset="1" style="stop-color:#003C10"/>
		</linearGradient>
		<path class="st26" d="M499.3,28.5c-0.2,0-0.4,0.1-0.4,0.3c0,0.1,0.2,0.3,0.4,0.3c0.2,0,0.4-0.1,0.4-0.3
			C499.7,28.7,499.5,28.5,499.3,28.5z"/>
		<linearGradient id="SVGID_27_" gradientUnits="userSpaceOnUse" x1="492.2245" y1="4.8786" x2="492.2245" y2="50.2112">
			<stop  offset="0" style="stop-color:#00984A"/>
			<stop  offset="1" style="stop-color:#003C10"/>
		</linearGradient>
		<path class="st27" d="M471.1,15.5h15V33c0.2-0.5,0.4-1.4,0.6-2.5L487,28l0.5,0c0.3,0,1,0,1.6,0h1.1l2.8,4l0-1l0-1l1.2,0.3l1.2,0.3
			l0.4-1l0.4-1l-1.6-0.3l-1.6-0.3v-1.5l2.3,0l2.3,0l0.7,0.3v-1.4h-1.1v-0.5c0-0.3,0.2-0.5,0.4-0.5c0.2,0,0.5,0.2,0.7,0.4v-9.2h15
			V5.6h-42.2V15.5z M491.7,26.9c0.2,0,0.4,0.1,0.4,0.3c0,0.2-0.2,0.3-0.4,0.3c-0.2,0-0.4-0.1-0.4-0.3
			C491.3,27.1,491.5,26.9,491.7,26.9z M487.6,25.3l0.5-0.5h3.2v0.5c0,0.3-0.4,0.7-0.9,0.9l-0.9,0.3l-1.3-0.3l-1.3-0.3L487.6,25.3z"
			/>
		<linearGradient id="SVGID_28_" gradientUnits="userSpaceOnUse" x1="303.1762" y1="4.8786" x2="303.1762" y2="50.2113">
			<stop  offset="0" style="stop-color:#00984A"/>
			<stop  offset="1" style="stop-color:#003C10"/>
		</linearGradient>
		<path class="st28" d="M324.3,34.8v-4.7c0-2.9-0.8-5.1-2.4-6.6c-1.6-1.6-3.6-2.5-6.1-2.9h-22.6v-5.5l31-0.1V5.6l-34.7,0.1
			c-2.3,0-4.2,1-5.8,3c-1.6,2-2.4,4.5-2.4,7.3v2.7c0,2.9,0.8,5.2,2.3,7.1c1.5,1.9,3.5,3.1,6,3.6h1.8c0,0.1,0.2,0.2,0.4,0.2
			c0.2,0,0.4-0.1,0.4-0.2h20V36l-30.9-0.2v7.6c0,0,0,0,0,0v-1.2l1.1,0.7l-0.7,0.5c1.8,0,3.6-0.1,4.9-0.2l4-0.2l1.3-0.7l1.3-0.7
			l0.4,0.7l0.4,0.7l1.6-0.9l1.6-0.9v1.2h2.5v-1l-2.7-0.6l-2.7-0.6l1-0.6l1-0.6l1,0.6l1,0.6h3.7l0.5-0.5l0.5-0.5h-1.8v-1.6L304,37
			l1.4,0.4l1.4,0.4l-1.1,0.4c-0.6,0.2-1.1,0.6-1.1,0.9c0,0.3-0.2,0.8-0.4,1.1l-0.4,0.7H301v1.6h0.7c0.4,0,0.7-0.2,0.7-0.5v-0.5h2.5
			v1.1l1.5-0.5l1.5-0.5l1,0.6l1,0.6v-1.4l1.7,0.3l1.7,0.3l0-0.6l0-0.6l-3.2,0l0.8-0.8h4.5l2.2-2.3L320,39l-1,1.6l-4.5,0l-1.2,0
			l1.1,0.9l1.1,0.9h2.8l-1.1-1.2l2,0.4c1.1,0.2,2.1,0.6,2.2,0.8l0.1,0.1c0.1-0.1,0.2-0.2,0.3-0.4c0.2-0.3,0.5-0.6,0.7-1
			c0.1,0.1,0.2,0.1,0.3,0.1c0.2,0,0.4-0.1,0.4-0.3c0-0.2-0.2-0.3-0.4-0.3c0,0-0.1,0-0.1,0c0.5-0.9,0.9-1.8,1.1-2.8
			c0.2-0.4,0.3-0.9,0.5-1.4l0.5-1.7h-0.6C324.3,34.9,324.3,34.9,324.3,34.8z"/>
	</g>
</g>
</svg>
