<?xml version="1.0" encoding="utf-8"?>
<!-- Generator: Adobe Illustrator 22.0.1, SVG Export Plug-In . SVG Version: 6.00 Build 0)  -->
<svg version="1.1" id="Layer_2" xmlns="http://www.w3.org/2000/svg" xmlns:xlink="http://www.w3.org/1999/xlink" x="0px" y="0px"
	 viewBox="0 0 103.1 69.7" style="enable-background:new 0 0 103.1 69.7;" xml:space="preserve">
<style type="text/css">
	.st0{fill:url(#SVGID_1_);}
	.st1{fill:#41595F;}
</style>
<g>
	<linearGradient id="SVGID_1_" gradientUnits="userSpaceOnUse" x1="10.9561" y1="1.9229" x2="102.7039" y2="47.5275">
		<stop  offset="0" style="stop-color:#F1A974"/>
		<stop  offset="7.068331e-02" style="stop-color:#EE8D5C"/>
		<stop  offset="0.1602" style="stop-color:#EB6E44"/>
		<stop  offset="0.2475" style="stop-color:#E85233"/>
		<stop  offset="0.3307" style="stop-color:#E63A2A"/>
		<stop  offset="0.4081" style="stop-color:#E52627"/>
		<stop  offset="0.474" style="stop-color:#E51E26"/>
		<stop  offset="1" style="stop-color:#7E1416"/>
	</linearGradient>
	<path class="st0" d="M95.8,6.1c0.4-0.7,1.2-0.9,2.8-1l1.3-0.2v-2c-3.5,0.1-4.7,0.2-7.8,0.2c-3.3,0-4.5-0.1-8-0.2v2l1.3,0.2
		c1.6,0.1,2.4,0.3,2.8,1c0.5,0.7,0.6,2.5,0.6,5v17.8c-1.8-2.7-4.1-4.6-7.4-6.1c-7.2-3.1-13.9-2-19.1,2.4V11.1c0-2.5,0.1-4.2,0.6-5
		c0.4-0.7,1.2-0.9,2.8-1l1.3-0.2v-2c-3.4,0.1-4.7,0.2-7.8,0.2c-3.2,0-4.5-0.1-8-0.2v2l1.3,0.2c1.6,0.1,2.4,0.3,2.8,1
		c0.5,0.7,0.6,2.5,0.6,5v20c-1.3,2.9-3.5,5.9-6.5,8.2c-2.9,2.2-6.5,4.5-10,6c-2.2,0.7-4.7,1.2-7.1,1.4c-0.2,0-0.4,0-0.5,0
		c-0.2,0-0.4,0-0.6,0c-13.1,0-21.8-8.5-21.8-21.6c0-11.3,6.6-20.4,19-20.4C31,4.6,33.9,5,36,5.7c3.1,1.1,5.4,3.8,5.7,8.9
		c1.1,0.3,2.1,0,2.1,0c0-3.5,0.6-7,1.3-10.1c-3.2-1.1-9.2-2.7-15.3-2.7c-7.4,0-14.2,2.3-19.2,6.4C5.4,12.3,2.4,18.4,2.4,26
		c0,15.1,10.8,24.2,26.7,24.2c0.6,0,1.2,0,1.8-0.1c0.7,0.1,1.6,0.1,2.6,0c5.1-0.5,10.4-2.7,15.5-6.6c2.2-1.7,5-4.6,7-7.6v5
		c0,2.5-0.1,4.2-0.6,5c-0.4,0.7-1.2,0.9-2.8,1L51.3,47v2c3.5-0.1,4.7-0.2,8-0.2c3.1,0,4.3,0.1,7.8,0.2v-2l-1.3-0.2
		c-1.6-0.1-2.4-0.3-2.8-1c-0.5-0.7-0.6-2.5-0.6-5V29.7c0.2-0.1,0.3-0.2,0.5-0.4c4.7-4.5,10.8-4.8,17.5-1.9c3.9,1.7,6.8,4.4,8.5,7.8
		v5.7c0,2.5-0.1,4.2-0.6,5c-0.4,0.7-1.2,0.9-2.8,1L84.2,47v2c3.5-0.1,4.7-0.2,8-0.2c3.1,0,4.3,0.1,7.8,0.2v-2l-1.3-0.2
		c-1.6-0.1-2.4-0.3-2.8-1c-0.5-0.7-0.6-2.5-0.6-5V11.1C95.2,8.5,95.3,6.8,95.8,6.1z"/>
	<g>
		<path class="st1" d="M15.9,65.7c0,0.6,0,1,0.1,1.2c0.1,0.2,0.3,0.2,0.7,0.2l0.8,0v0.5c-0.8,0-1.6,0-2.3,0c-0.8,0-1.5,0-2.1,0v-0.5
			l0.5,0c0.4,0,0.6-0.1,0.7-0.2c0.1-0.2,0.1-0.6,0.1-1.2v-7.1h0c-0.2,0.4-0.5,0.9-0.7,1.3l-2.8,5.9c-0.3,0.6-0.6,1.3-0.8,2H9.8
			l-4.3-9.2h0v7.1c0,0.6,0,1,0.1,1.2c0.1,0.2,0.3,0.2,0.7,0.2l0.7,0v0.5c-0.7,0-1.3,0-1.9,0c-0.6,0-1.2,0-1.8,0v-0.5l0.7,0
			c0.4,0,0.6-0.1,0.7-0.2c0.1-0.2,0.1-0.6,0.1-1.2v-7c0-0.6,0-1-0.1-1.2c-0.1-0.2-0.3-0.2-0.7-0.2l-0.7,0v-0.5c0.5,0,1,0,1.5,0
			c0.5,0,1,0,1.5,0l4.1,8.7l4.1-8.7c0.5,0,1,0,1.5,0c0.5,0,1,0,1.5,0v0.5l-0.7,0c-0.4,0-0.6,0.1-0.7,0.2c-0.1,0.2-0.1,0.6-0.1,1.2
			V65.7z"/>
		<path class="st1" d="M28,65.6c0.1,0.3,0.3,0.7,0.5,1.1c0.2,0.3,0.3,0.5,0.6,0.5l0.5,0v0.5c-0.7,0-1.4,0-2.1,0c-0.5,0-1.2,0-2.1,0
			v-0.5l0.7,0c0.3,0,0.6-0.1,0.6-0.3c0-0.2-0.2-0.6-0.3-1L25.8,64h-4.5l-0.4,1c-0.1,0.3-0.5,1.4-0.5,1.6c0,0.3,0.3,0.4,0.8,0.4
			l0.6,0v0.5c-0.8,0-1.3,0-1.8,0c-0.6,0-1.2,0-1.8,0v-0.5l0.6,0c0.4,0,0.7-0.4,0.8-0.8l2.8-6.3c0.5-1.1,1-2.3,1.4-3.4h0.5L28,65.6z
			 M25.5,63.4l-2-4.7l-2,4.7H25.5z"/>
		<path class="st1" d="M33.3,65.7c0,0.6,0,1,0.1,1.2c0.1,0.2,0.3,0.2,0.7,0.2l0.8,0v0.5c-0.8,0-1.6,0-2.3,0c-0.8,0-1.5,0-2.3,0v-0.5
			l0.8,0c0.4,0,0.6-0.1,0.7-0.2c0.1-0.2,0.1-0.6,0.1-1.2v-7c0-0.6,0-1-0.1-1.2c-0.1-0.2-0.3-0.2-0.7-0.2l-0.6,0v-0.5
			c0.8,0,1.7,0,2.7,0c0.9,0,1.8,0,2.7,0c2.5,0,3.2,1.2,3.2,2.4c0,1.7-1.5,2.7-3.1,3l3.6,4.6c0.2,0.3,0.6,0.4,1,0.4v0.5
			c-0.4,0-0.8,0-1.1,0c-0.4,0-0.7,0-1.1,0c-0.2-0.3-0.4-0.6-0.6-0.8L34.7,63c-0.2-0.3-0.5-0.6-0.8-1l0.1-0.2c0.4,0,0.9,0,1.4-0.1
			c1.1-0.2,2-1,2-2.2c0-1.7-1.3-2.2-2.5-2.2c-0.7,0-1.2,0.1-1.6,0.2V65.7z"/>
		<path class="st1" d="M43.8,65.7c0,0.6,0,1,0.1,1.2c0.1,0.2,0.3,0.2,0.7,0.2l0.8,0v0.5c-0.8,0-1.6,0-2.3,0c-0.8,0-1.5,0-2.3,0v-0.5
			l0.8,0c0.4,0,0.6-0.1,0.7-0.2c0.1-0.2,0.1-0.6,0.1-1.2v-7c0-0.6,0-1-0.1-1.2c-0.1-0.2-0.3-0.2-0.7-0.2l-0.8,0v-0.5
			c0.8,0,1.5,0,2.3,0c0.7,0,1.5,0,2.3,0v0.5l-0.8,0c-0.4,0-0.6,0.1-0.7,0.2c-0.1,0.2-0.1,0.6-0.1,1.2v3.4l4.4-4.2
			c0.2-0.2,0.5-0.5,0.5-0.6v-0.4c0.5,0,0.9,0,1.4,0c0.4,0,0.9,0,1.3,0v0.5l-0.7,0c-0.4,0-0.8,0.2-1.2,0.6l-4.2,3.8l5.2,4.9
			c0.4,0.4,0.7,0.6,1,0.6l0.3,0v0.5c-0.3,0-0.7,0-1,0c-0.4,0-0.8,0-1.2,0L44,62.4l-0.2,0.1V65.7z"/>
		<path class="st1" d="M53.7,58.7c0-0.6,0-1-0.1-1.2c-0.1-0.2-0.3-0.2-0.7-0.2l-0.8,0v-0.5c0.9,0,1.8,0,2.6,0c1.4,0,2.8,0,3.7,0
			c0.7,0,1.4,0,2,0c-0.2,0.7-0.3,1.6-0.3,2.4h-0.5v-1c0-0.2,0-0.4-0.1-0.4c-0.8-0.3-2.1-0.3-3.1-0.3c-0.4,0-0.9,0-1.3,0.1v4.2
			c0.5,0,1.1,0,1.8,0c1,0,1.5-0.1,1.7-0.2c0.1-0.1,0.1-0.2,0.1-0.4l0.1-0.8h0.5c0,0.6,0,1.2,0,1.8c0,0.6,0,1.2,0,1.7h-0.5L58.8,63
			c0-0.2,0-0.3-0.1-0.4c-0.2-0.1-0.7-0.2-1.7-0.2c-0.8,0-1.3,0-1.8,0v4.4c0.4,0.1,0.9,0.1,1.3,0.1c1.3,0,2.9,0,3.2-0.2
			c0.2-0.1,0.4-0.8,0.5-1.8h0.5c-0.2,0.8-0.2,1.7-0.2,2.6c-0.7,0-1.9,0.1-3.1,0c-1.2,0-2.4,0-3.4,0c-0.6,0-1.1,0-1.7,0v-0.5l0.6,0
			c0.4,0,0.6-0.1,0.7-0.2c0.1-0.2,0.1-0.6,0.1-1.2V58.7z"/>
		<path class="st1" d="M65.4,59.1c0-0.6,0-1.1-0.1-1.6h-2.4c-0.5,0-0.6,0.1-0.6,0.5l-0.1,1.2h-0.5c0-0.8,0-1.7-0.1-2.5
			c1.1,0,2.3,0,3.4,0h2.3c1.1,0,2.3,0,3.4,0c-0.1,0.8-0.1,1.7-0.1,2.5h-0.5L70,58.1c0-0.4-0.2-0.5-0.6-0.5H67c0,0.5-0.1,1-0.1,1.6
			v6.6c0,0.6,0,1,0.1,1.2c0.1,0.2,0.3,0.2,0.7,0.2l0.8,0v0.5c-0.8,0-1.5,0-2.3,0c-0.8,0-1.5,0-2.3,0v-0.5l0.7,0
			c0.4,0,0.6-0.1,0.7-0.2c0.1-0.2,0.1-0.6,0.1-1.2V59.1z"/>
		<path class="st1" d="M74.4,65.7c0,0.6,0,1,0.1,1.2c0.1,0.2,0.3,0.2,0.7,0.2l0.8,0v0.5c-0.8,0-1.6,0-2.3,0c-0.8,0-1.5,0-2.3,0v-0.5
			l0.8,0c0.4,0,0.6-0.1,0.7-0.2c0.1-0.2,0.1-0.6,0.1-1.2v-7c0-0.6,0-1-0.1-1.2c-0.1-0.2-0.3-0.2-0.7-0.2l-0.8,0v-0.5
			c0.8,0,1.6,0,2.3,0c0.7,0,1.5,0,2.3,0v0.5l-0.8,0c-0.4,0-0.6,0.1-0.7,0.2c-0.1,0.2-0.1,0.6-0.1,1.2V65.7z"/>
		<path class="st1" d="M78,58.7c0-0.6,0-1-0.1-1.2c-0.1-0.2-0.3-0.2-0.7-0.2l-0.7,0v-0.5c0.7,0,1.3,0,1.9,0c0.3,0,0.6,0,0.8,0
			l7.5,9.2h0v-7.3c0-0.6,0-1-0.1-1.2c-0.1-0.2-0.3-0.2-0.7-0.2l-0.7,0v-0.5c0.6,0,1.3,0,1.8,0c0.6,0,1.2,0,1.9,0v0.5l-0.7,0
			c-0.4,0-0.6,0.1-0.7,0.2c-0.1,0.2-0.1,0.6-0.1,1.2v8.6c0,0.2,0,0.4,0,0.6l-1.4-0.2l-7.4-9.2h0v7.2c0,0.6,0,1,0.1,1.2
			c0.1,0.2,0.3,0.2,0.7,0.2l0.7,0v0.5c-0.7,0-1.3,0-1.9,0c-0.6,0-1.2,0-1.8,0v-0.5l0.7,0c0.4,0,0.6-0.1,0.7-0.2
			c0.1-0.2,0.1-0.6,0.1-1.2V58.7z"/>
		<path class="st1" d="M98.6,64.5c0-0.4-0.1-0.5-0.5-0.5l-1.3-0.1v-0.5c0.6,0,1.3,0,1.9,0c0.6,0,1.3,0,1.9,0l0.1,0.4l-0.5,0.2
			c-0.2,0.1-0.2,0.1-0.2,0.6v2.6c-1.3,0.4-3,0.8-4.1,0.8c-3.5,0-6.3-1.8-6.3-5.7c0-3.4,2.8-5.7,6.6-5.7c1.9,0,3.2,0.4,3.9,0.6
			c-0.2,0.7-0.3,1.6-0.3,2.4h-0.5v-0.8c0-0.7-0.6-1-1.3-1.3c-0.5-0.2-1.2-0.3-2.2-0.3c-3,0-4.5,2-4.5,4.7c0,3.1,1.8,5.4,5,5.4
			c1.2,0,2.1-0.3,2.2-0.5c0.1-0.2,0.1-0.3,0.1-0.6V64.5z"/>
	</g>
</g>
</svg>
