<?xml version="1.0" encoding="utf-8"?>
<!-- Generator: Adobe Illustrator 22.0.1, SVG Export Plug-In . SVG Version: 6.00 Build 0)  -->
<svg version="1.1" id="Layer_1" xmlns="http://www.w3.org/2000/svg" xmlns:xlink="http://www.w3.org/1999/xlink" x="0px" y="0px"
	 viewBox="0 0 162.6 91.9" style="enable-background:new 0 0 162.6 91.9;" xml:space="preserve">
<style type="text/css">
	.st0{fill:#034EA2;}
	.st1{fill:#034EA2;stroke:#034EA2;stroke-miterlimit:10;}
	.st2{fill:#0072BC;stroke:#034EA2;stroke-miterlimit:10;}
	.st3{fill:#008FD5;stroke:#034EA2;stroke-miterlimit:10;}
	.st4{fill:url(#SVGID_1_);stroke:#034EA2;stroke-miterlimit:10;}
	.st5{fill:url(#SVGID_2_);stroke:#000000;stroke-miterlimit:10;}
	.st6{fill:url(#SVGID_3_);stroke:#000000;stroke-miterlimit:10;}
</style>
<g>
	<g>
		<path class="st0" d="M4.8,78.4h3.8v0.8H5.7v2.3h2.7v0.8H5.7v3.2H4.8V78.4z"/>
		<path class="st0" d="M13.7,84c0,0.5,0,1,0,1.4H13l-0.1-0.8h0c-0.2,0.4-0.8,0.9-1.7,0.9c-0.8,0-1.7-0.4-1.7-2.2v-3h0.9v2.8
			c0,1,0.3,1.6,1.1,1.6c0.6,0,1-0.4,1.2-0.8c0.1-0.1,0.1-0.3,0.1-0.5v-3.1h0.9V84z"/>
		<path class="st0" d="M16.4,79.1v1.2h1.3V81h-1.3v2.7c0,0.6,0.2,1,0.7,1c0.3,0,0.4,0,0.5-0.1l0,0.7c-0.2,0.1-0.5,0.1-0.8,0.1
			c-0.4,0-0.8-0.1-1-0.4c-0.3-0.3-0.4-0.7-0.4-1.3V81h-0.8v-0.7h0.8v-0.9L16.4,79.1z"/>
		<path class="st0" d="M23,84c0,0.5,0,1,0,1.4h-0.8l-0.1-0.8h0c-0.2,0.4-0.8,0.9-1.7,0.9c-0.8,0-1.7-0.4-1.7-2.2v-3h0.9v2.8
			c0,1,0.3,1.6,1.1,1.6c0.6,0,1-0.4,1.2-0.8c0.1-0.1,0.1-0.3,0.1-0.5v-3.1H23V84z"/>
		<path class="st0" d="M24.5,81.9c0-0.6,0-1.1,0-1.6h0.8l0,1h0c0.2-0.7,0.8-1.1,1.4-1.1c0.1,0,0.2,0,0.3,0v0.9c-0.1,0-0.2,0-0.3,0
			c-0.6,0-1.1,0.5-1.2,1.2c0,0.1,0,0.3,0,0.4v2.7h-0.9L24.5,81.9z"/>
		<path class="st0" d="M28.4,83c0,1.2,0.8,1.8,1.7,1.8c0.7,0,1.1-0.1,1.4-0.2l0.2,0.6c-0.3,0.1-0.9,0.3-1.7,0.3
			c-1.5,0-2.5-1-2.5-2.6c0-1.5,0.9-2.7,2.4-2.7c1.7,0,2.1,1.5,2.1,2.4c0,0.2,0,0.3,0,0.4L28.4,83z M31.1,82.4c0-0.6-0.2-1.5-1.3-1.5
			c-0.9,0-1.3,0.9-1.4,1.5H31.1z"/>
		<path class="st0" d="M40.7,85.1c-0.4,0.2-1.2,0.4-2.2,0.4c-1.1,0-1.9-0.3-2.6-0.9c-0.6-0.6-1-1.5-1-2.6c0-2.1,1.5-3.6,3.8-3.6
			c0.8,0,1.5,0.2,1.8,0.3l-0.2,0.7c-0.4-0.2-0.8-0.3-1.6-0.3c-1.7,0-2.8,1.1-2.8,2.8c0,1.8,1.1,2.8,2.7,2.8c0.6,0,1-0.1,1.2-0.2
			v-2.1h-1.4v-0.7h2.3V85.1z"/>
		<path class="st0" d="M42.7,83c0,1.2,0.8,1.8,1.7,1.8c0.7,0,1.1-0.1,1.4-0.2l0.2,0.6c-0.3,0.1-0.9,0.3-1.7,0.3
			c-1.5,0-2.5-1-2.5-2.6c0-1.5,0.9-2.7,2.4-2.7c1.7,0,2.1,1.5,2.1,2.4c0,0.2,0,0.3,0,0.4L42.7,83z M45.4,82.4c0-0.6-0.2-1.5-1.3-1.5
			c-0.9,0-1.3,0.9-1.4,1.5H45.4z"/>
		<path class="st0" d="M47.4,81.7c0-0.5,0-1,0-1.4h0.8l0.1,0.8h0c0.3-0.5,0.8-0.9,1.7-0.9c0.7,0,1.8,0.4,1.8,2.2v3h-0.9v-2.9
			c0-0.8-0.3-1.5-1.2-1.5c-0.6,0-1.1,0.4-1.2,0.9c0,0.1-0.1,0.3-0.1,0.4v3.1h-0.9V81.7z"/>
		<path class="st0" d="M53.7,83c0,1.2,0.8,1.8,1.7,1.8c0.7,0,1.1-0.1,1.4-0.2l0.2,0.6c-0.3,0.1-0.9,0.3-1.7,0.3
			c-1.5,0-2.5-1-2.5-2.6c0-1.5,0.9-2.7,2.4-2.7c1.7,0,2.1,1.5,2.1,2.4c0,0.2,0,0.3,0,0.4L53.7,83z M56.4,82.4c0-0.6-0.2-1.5-1.3-1.5
			c-0.9,0-1.3,0.9-1.4,1.5H56.4z"/>
		<path class="st0" d="M58.5,81.9c0-0.6,0-1.1,0-1.6h0.8l0,1h0c0.2-0.7,0.8-1.1,1.4-1.1c0.1,0,0.2,0,0.3,0v0.9c-0.1,0-0.2,0-0.3,0
			c-0.6,0-1.1,0.5-1.2,1.2c0,0.1,0,0.3,0,0.4v2.7h-0.9L58.5,81.9z"/>
		<path class="st0" d="M65.4,84.2c0,0.4,0,0.9,0.1,1.2h-0.8l-0.1-0.6h0c-0.3,0.4-0.8,0.8-1.5,0.8c-1,0-1.5-0.7-1.5-1.5
			c0-1.2,1.1-1.9,3-1.9v-0.1c0-0.4-0.1-1.2-1.1-1.2c-0.5,0-1,0.1-1.3,0.4l-0.2-0.6c0.4-0.3,1-0.4,1.7-0.4c1.6,0,1.9,1.1,1.9,2.1
			V84.2z M64.5,82.8c-1,0-2.1,0.2-2.1,1.1c0,0.6,0.4,0.9,0.9,0.9c0.7,0,1.1-0.4,1.2-0.8c0-0.1,0-0.2,0-0.3V82.8z"/>
		<path class="st0" d="M67.9,79.1v1.2h1.3V81h-1.3v2.7c0,0.6,0.2,1,0.7,1c0.3,0,0.4,0,0.5-0.1l0,0.7c-0.2,0.1-0.5,0.1-0.8,0.1
			c-0.4,0-0.8-0.1-1-0.4c-0.3-0.3-0.4-0.7-0.4-1.3V81h-0.8v-0.7H67v-0.9L67.9,79.1z"/>
		<path class="st0" d="M70.7,79.4c-0.3,0-0.6-0.3-0.6-0.6c0-0.3,0.2-0.6,0.6-0.6c0.4,0,0.6,0.3,0.6,0.6
			C71.3,79.1,71.1,79.4,70.7,79.4L70.7,79.4z M70.3,85.4v-5.1h0.9v5.1H70.3z"/>
		<path class="st0" d="M74.8,85.5c-1.4,0-2.4-1-2.4-2.6c0-1.7,1.1-2.7,2.5-2.7c1.5,0,2.4,1.1,2.4,2.6C77.3,84.7,76,85.5,74.8,85.5
			L74.8,85.5z M74.8,84.8c0.9,0,1.5-0.8,1.5-2c0-0.9-0.4-1.9-1.5-1.9c-1.1,0-1.5,1-1.5,2C73.3,84,73.9,84.8,74.8,84.8L74.8,84.8z"/>
		<path class="st0" d="M78.5,81.7c0-0.5,0-1,0-1.4h0.8l0.1,0.8h0c0.3-0.5,0.8-0.9,1.7-0.9c0.7,0,1.8,0.4,1.8,2.2v3h-0.9v-2.9
			c0-0.8-0.3-1.5-1.2-1.5c-0.6,0-1.1,0.4-1.2,0.9c0,0.1-0.1,0.3-0.1,0.4v3.1h-0.9V81.7z"/>
		<path class="st0" d="M84.2,84.5c0.3,0.2,0.8,0.4,1.2,0.4c0.7,0,1-0.3,1-0.8c0-0.4-0.3-0.7-0.9-0.9c-0.9-0.3-1.4-0.8-1.4-1.4
			c0-0.8,0.7-1.5,1.7-1.5c0.5,0,1,0.1,1.2,0.3l-0.2,0.7c-0.2-0.1-0.6-0.3-1-0.3c-0.5,0-0.8,0.3-0.8,0.7c0,0.4,0.3,0.6,1,0.9
			c0.9,0.3,1.3,0.8,1.3,1.5c0,0.9-0.7,1.5-1.9,1.5c-0.6,0-1.1-0.1-1.4-0.4L84.2,84.5z"/>
		<path class="st0" d="M95.6,85.2c-0.3,0.2-1,0.3-1.9,0.3c-2,0-3.5-1.3-3.5-3.6c0-2.2,1.5-3.7,3.7-3.7c0.9,0,1.4,0.2,1.7,0.3
			l-0.2,0.7C95,79.1,94.6,79,94,79c-1.7,0-2.8,1.1-2.8,2.9c0,1.7,1,2.8,2.7,2.8c0.6,0,1.1-0.1,1.5-0.3L95.6,85.2z"/>
		<path class="st0" d="M96.7,78h0.9v3.2h0c0.1-0.3,0.4-0.5,0.7-0.6c0.3-0.2,0.6-0.3,0.9-0.3c0.7,0,1.8,0.4,1.8,2.2v3h-0.9v-2.9
			c0-0.8-0.3-1.5-1.2-1.5c-0.6,0-1.1,0.4-1.2,0.9c-0.1,0.1-0.1,0.3-0.1,0.4v3.1h-0.9V78z"/>
		<path class="st0" d="M106.1,84.2c0,0.4,0,0.9,0.1,1.2h-0.8l-0.1-0.6h0c-0.3,0.4-0.8,0.8-1.5,0.8c-1,0-1.5-0.7-1.5-1.5
			c0-1.2,1.1-1.9,3-1.9v-0.1c0-0.4-0.1-1.2-1.1-1.2c-0.5,0-1,0.1-1.3,0.4l-0.2-0.6c0.4-0.3,1-0.4,1.7-0.4c1.6,0,1.9,1.1,1.9,2.1
			V84.2z M105.2,82.8c-1,0-2.1,0.2-2.1,1.1c0,0.6,0.4,0.9,0.9,0.9c0.7,0,1.1-0.4,1.2-0.8c0-0.1,0-0.2,0-0.3V82.8z"/>
		<path class="st0" d="M107.5,81.9c0-0.6,0-1.1,0-1.6h0.8l0,1h0c0.2-0.7,0.8-1.1,1.4-1.1c0.1,0,0.2,0,0.3,0v0.9c-0.1,0-0.2,0-0.3,0
			c-0.6,0-1.1,0.5-1.2,1.2c0,0.1,0,0.3,0,0.4v2.7h-0.9L107.5,81.9z"/>
		<path class="st0" d="M111.4,79.4c-0.3,0-0.6-0.3-0.6-0.6c0-0.3,0.2-0.6,0.6-0.6c0.4,0,0.6,0.3,0.6,0.6
			C112,79.1,111.8,79.4,111.4,79.4L111.4,79.4z M111,85.4v-5.1h0.9v5.1H111z"/>
		<path class="st0" d="M114.5,79.1v1.2h1.3V81h-1.3v2.7c0,0.6,0.2,1,0.7,1c0.3,0,0.4,0,0.5-0.1l0,0.7c-0.2,0.1-0.5,0.1-0.8,0.1
			c-0.4,0-0.8-0.1-1-0.4c-0.3-0.3-0.4-0.7-0.4-1.3V81h-0.8v-0.7h0.8v-0.9L114.5,79.1z"/>
		<path class="st0" d="M120.5,84.2c0,0.4,0,0.9,0.1,1.2h-0.8l-0.1-0.6h0c-0.3,0.4-0.8,0.8-1.5,0.8c-1,0-1.5-0.7-1.5-1.5
			c0-1.2,1.1-1.9,3-1.9v-0.1c0-0.4-0.1-1.2-1.1-1.2c-0.5,0-1,0.1-1.3,0.4l-0.2-0.6c0.4-0.3,1-0.4,1.7-0.4c1.6,0,1.9,1.1,1.9,2.1
			V84.2z M119.6,82.8c-1,0-2.1,0.2-2.1,1.1c0,0.6,0.4,0.9,0.9,0.9c0.7,0,1.1-0.4,1.2-0.8c0-0.1,0-0.2,0-0.3V82.8z"/>
		<path class="st0" d="M121.9,78h0.9v3.2h0c0.3-0.6,0.9-0.9,1.7-0.9c1.3,0,2.1,1,2.1,2.6c0,1.8-1.2,2.7-2.3,2.7
			c-0.7,0-1.3-0.3-1.7-1h0l-0.1,0.8h-0.8c0-0.3,0-0.9,0-1.3V78z M122.9,83.4c0,0.1,0,0.2,0,0.3c0.2,0.6,0.7,1.1,1.4,1.1
			c1,0,1.5-0.8,1.5-1.9c0-1-0.5-1.9-1.5-1.9c-0.6,0-1.2,0.4-1.4,1.1c0,0.1-0.1,0.2-0.1,0.4V83.4z"/>
		<path class="st0" d="M127.9,78h0.9v7.4h-0.9V78z"/>
		<path class="st0" d="M130.9,83c0,1.2,0.8,1.8,1.7,1.8c0.7,0,1.1-0.1,1.4-0.2l0.2,0.6c-0.3,0.1-0.9,0.3-1.7,0.3
			c-1.5,0-2.5-1-2.5-2.6c0-1.5,0.9-2.7,2.4-2.7c1.7,0,2.1,1.5,2.1,2.4c0,0.2,0,0.3,0,0.4L130.9,83z M133.6,82.4
			c0-0.6-0.2-1.5-1.3-1.5c-0.9,0-1.3,0.9-1.4,1.5H133.6z"/>
		<path class="st0" d="M138.7,79.1h-2.1v-0.8h5.2v0.8h-2.2v6.3h-0.9V79.1z"/>
		<path class="st0" d="M142.1,81.9c0-0.6,0-1.1,0-1.6h0.8l0,1h0c0.2-0.7,0.8-1.1,1.4-1.1c0.1,0,0.2,0,0.3,0v0.9c-0.1,0-0.2,0-0.3,0
			c-0.6,0-1.1,0.5-1.2,1.2c0,0.1,0,0.3,0,0.4v2.7h-0.9L142.1,81.9z"/>
		<path class="st0" d="M149.7,84c0,0.5,0,1,0,1.4H149l-0.1-0.8h0c-0.2,0.4-0.8,0.9-1.7,0.9c-0.8,0-1.7-0.4-1.7-2.2v-3h0.9v2.8
			c0,1,0.3,1.6,1.1,1.6c0.6,0,1-0.4,1.2-0.8c0.1-0.1,0.1-0.3,0.1-0.5v-3.1h0.9V84z"/>
		<path class="st0" d="M151.1,84.5c0.3,0.2,0.8,0.4,1.2,0.4c0.7,0,1-0.3,1-0.8c0-0.4-0.3-0.7-0.9-0.9c-0.9-0.3-1.3-0.8-1.3-1.4
			c0-0.8,0.7-1.5,1.7-1.5c0.5,0,1,0.1,1.2,0.3l-0.2,0.7c-0.2-0.1-0.6-0.3-1-0.3c-0.5,0-0.8,0.3-0.8,0.7c0,0.4,0.3,0.6,1,0.9
			c0.9,0.3,1.3,0.8,1.3,1.5c0,0.9-0.7,1.5-1.9,1.5c-0.6,0-1.1-0.1-1.4-0.4L151.1,84.5z"/>
		<path class="st0" d="M156.5,79.1v1.2h1.3V81h-1.3v2.7c0,0.6,0.2,1,0.7,1c0.3,0,0.4,0,0.5-0.1l0,0.7c-0.2,0.1-0.5,0.1-0.8,0.1
			c-0.4,0-0.8-0.1-1-0.4c-0.3-0.3-0.4-0.7-0.4-1.3V81h-0.8v-0.7h0.8v-0.9L156.5,79.1z"/>
	</g>
	<path class="st1" d="M133.3,57.9l-5.6-0.2v6.7c0.3,0.6,1.1,0.9,2,0.9c1.2,0,2.2-0.4,3.1-0.9l0.7,7.6c7.9,0,14.6,0,19.5,0
		c-6.9-6.1-14-12.4-19.7-18.7V57.9z"/>
	<path class="st2" d="M78.3,53.5c0-1.6-0.9-2.3-2-2.3c-1.1,0-2,0.6-2,2.3c0,1.7,0.8,2.3,2,2.3C77.4,55.8,78.3,55.2,78.3,53.5z"/>
	<g>
		<path class="st0" d="M8.1,72.3c3.8-5.7,7.4-11.5,11-17.4c3.6-5.9,7.1-11.7,10.2-17.8c1.6-3,3.3-6.1,5.5-8.8
			c1.1-1.3,2.5-2.7,4.4-3.2c0.9-0.3,2-0.2,2.9,0.1c0.9,0.3,1.7,0.8,2.4,1.4c1.4,1.1,2.5,2.5,3.6,3.9c1,1.4,2,2.9,2.9,4.3
			c0.9,1.5,1.7,3,2.6,4.4c0.5,0.7,0.9,1.4,1.5,2c0.5,0.6,1.1,1,1.7,0.9l-0.3,0.2c4.1-3.8,7.6-8.2,10.5-13c1.5-2.4,2.8-4.9,4.1-7.4
			c1.4-2.5,2.8-4.9,4.4-7.3c1.6-2.3,3.3-4.7,5.5-6.6c1.1-0.9,2.4-1.9,4-2.1c0.4-0.1,0.9,0,1.3,0.2c0.4,0.2,0.7,0.4,1,0.7
			c0.6,0.5,1,1.2,1.4,1.8c1.5,2.5,2.6,5.1,3.7,7.7c1.1,2.6,2.2,5.2,3.6,7.6c1.4,2.4,3,4.8,4.7,6.9c0.9,1.1,1.8,2.1,2.8,3.1
			c0.5,0.5,1,0.9,1.6,1.3c0.3,0.2,0.5,0.4,0.8,0.5c0.3,0.1,0.6,0.3,0.7,0.2c0,0.1,0.3-0.2,0.5-0.4c0.2-0.2,0.4-0.5,0.6-0.8
			c0.4-0.6,0.7-1.2,1-1.8c0.7-1.2,1.3-2.5,1.9-3.8c0.6-1.3,1.3-2.5,2-3.8c0.7-1.2,1.4-2.5,2.3-3.7c0.3-0.3,0.5-0.6,0.9-0.8
			c0.1-0.1,0.2-0.1,0.4-0.1c0.1,0,0.3,0,0.4,0c0.3,0,0.5,0.1,0.7,0.2c0.8,0.5,1.1,1.2,1.5,1.9c0.6,1.4,1,2.7,1.4,4.1
			c0.8,2.7,1.5,5.5,2.3,8.1c0.4,1.3,0.9,2.7,1.4,3.9c0.5,1.3,1.2,2.5,1.9,3.7c0.4,0.6,0.7,1.2,1.1,1.8c0.4,0.6,0.8,1.1,1.2,1.7
			c0.8,1.1,1.7,2.3,2.4,3.5l0,0c-1.1-0.9-2.2-1.9-3.1-2.9c-0.5-0.5-0.9-1.1-1.3-1.7c-0.4-0.6-0.8-1.2-1.1-1.8
			c-0.7-1.2-1.4-2.5-2-3.8c-0.6-1.3-1-2.7-1.4-4c-0.9-2.7-1.6-5.5-2.3-8.2c-0.4-1.3-0.8-2.7-1.3-3.9c-0.3-0.6-0.6-1.2-1-1.4
			c-0.1,0-0.2-0.1-0.3-0.1c-0.1,0-0.1,0-0.2,0c-0.2,0.1-0.4,0.3-0.6,0.6c-0.8,1-1.5,2.3-2.2,3.5c-0.7,1.2-1.3,2.5-1.9,3.8
			c-0.6,1.3-1.3,2.5-1.9,3.8c-0.3,0.6-0.7,1.3-1.1,1.9c-0.2,0.3-0.4,0.6-0.7,0.9c-0.1,0.2-0.3,0.3-0.4,0.4c-0.1,0.1-0.2,0.1-0.3,0.2
			c-0.1,0.1-0.3,0.1-0.5,0.1c-0.6,0-0.9-0.2-1.3-0.4c-0.4-0.2-0.7-0.4-1-0.6c-0.6-0.4-1.1-0.9-1.7-1.4c-1-1-2-2.1-2.9-3.2
			c-1.8-2.2-3.4-4.6-4.8-7.1c-1.4-2.5-2.5-5.1-3.7-7.7c-1.1-2.6-2.2-5.2-3.7-7.5c-0.4-0.6-0.8-1.1-1.2-1.6C86.5,7.3,86.2,7.1,86,7
			c-0.3-0.1-0.4-0.1-0.8-0.1c-1.2,0.1-2.4,0.9-3.4,1.8c-2.1,1.8-3.7,4.1-5.3,6.4c-1.6,2.3-3,4.7-4.3,7.2c-1.3,2.5-2.7,5-4.2,7.4
			c-2.9,4.9-6.4,9.4-10.7,13.3l-0.1,0.1l-0.2,0c-0.6,0.1-1.2-0.1-1.6-0.4c-0.5-0.3-0.8-0.6-1.1-0.9c-0.6-0.7-1.1-1.4-1.6-2.2
			c-0.9-1.5-1.8-3-2.7-4.4c-0.9-1.5-1.8-2.9-2.8-4.2c-1-1.3-2.1-2.6-3.4-3.6c-1.3-1-2.8-1.6-4.2-1.2c-1.4,0.4-2.7,1.6-3.8,2.8
			c-2.1,2.6-3.8,5.6-5.4,8.6c-3.2,6.1-6.7,12-10.3,17.9C16.5,61.3,12.8,67.1,9,72.8L8.1,72.3z"/>
	</g>
	<g>
		<path class="st3" d="M43,43.2c-1.1,1.7-4.9,10.1-7.6,12.9c-2.8,2.8-2.9-3.6-3-5.6c-0.1-2-0.5-1.7-2-0.6C28.9,51,14.7,63,14.7,63
			c0.1-0.1,0.2-0.3,0.3-0.5c-3.7,5.8-6.4,10-6.4,10s14.2-0.1,34-0.2v-7.8l-2.4,0.1v-7.4l2.4,0.1V47h2.4C44.1,44.7,43.5,42.4,43,43.2
			z"/>
		<linearGradient id="SVGID_1_" gradientUnits="userSpaceOnUse" x1="52.125" y1="49.4713" x2="129.3681" y2="49.4713">
			<stop  offset="0" style="stop-color:#008FD5"/>
			<stop  offset="1" style="stop-color:#034EA2"/>
		</linearGradient>
		<path class="st4" d="M129.4,49.1c-4.8-4.1-8.5-12.9-9.7-11.3c-0.8,1.2-1.4,2.8-1.8,1.6c-0.4-1.2-0.5-4.1-1.2-3
			c-0.8,1.1-2.2,3.5-2.8,3c-1.1-1.1-0.2-9.1-1.8-6.8c-0.9,1.3-3.2,4.7-3.2,4.7s-1.2-0.6-1.9-0.9c-0.4,0.1-1-0.2-1.7-0.7
			c-4.4-2.1-6.9-5.5-9.4-7.9c-1-1-2.1-2.5-2.5,1.2c-0.4,3.7-1,6.6-1.9,3.2c-0.9-3.4-1.6-4.8-2-3.4c-0.4,1.4-1.3,4.5-3,9
			c-1.7,4.5-2.5,0.3-3.8-3.1c-1.3-3.4-2.2-8.2-3.2-4.7c-0.6,2.1-4,11.5-6,13.2c-2,1.7-1.3-5.9-1.3-8.5c0-2.6-2-2.3-3.6-0.9
			c-1.6,1.4-9.1,7.2-11.5,8.8c-1.6,1.1-2.9,2.5-4.8,4.3h10.7v8.8l-10-0.3v1.8h6.4v7.4h-5.5v7.7c3.2,0,6.5,0,9.9-0.1l0.7-6.2
			c3.3,1.8,7.5,2.1,9.8,2.1c2.2,0,3.9-0.4,3.9-1.5c-1.3,0.2-2.6,0.3-3.7,0.3c-5.8,0-8.5-1.5-8.5-4.3c0-1.2,0.5-2.2,1.5-3.2
			c-2.7-1-3.8-3.1-3.8-5.9c0-4,3-7.2,12.9-7.2c4.4,0,7.6,0.8,9.7,2.4c0.6-1.5,2-2.4,3.7-2.4c0.5,0,0.9,0,1.4,0.2l-0.5,6.6h-2.7
			c0.4,5-3.1,7.5-12.3,7.3c0,0.8,0.4,1.3,1.6,1.3c1.1,0,3.3-0.3,4.6-0.3c6.5,0,7.7,3.6,7.7,5.9c0,1.9-0.7,3.5-2.4,4.7
			c3.4,0,6.8,0,10.1-0.1c-3.6-2.1-6-5.8-6-11.5c0-10.4,7.6-14.2,15.4-14.2c2.3,0,4.9,0.3,7.1,0.8l-0.2,9.2c-2.1-0.6-4-0.9-5.6-0.9
			c-3.6,0-5.6,2-5.6,4.8c0,2.8,2,4.8,5.6,4.8c1.6,0,3.5-0.2,5.6-0.9l0.3,7.7c1.8,0,3.5,0,5.2,0c-1.3-1.2-2.1-2.9-2.1-5v-9.3h-2.3
			v-4.8l7.5-6.5h4.4v2.7H129.4z"/>
		<linearGradient id="SVGID_2_" gradientUnits="userSpaceOnUse" x1="21.2061" y1="52.5657" x2="21.2363" y2="52.5657">
			<stop  offset="0" style="stop-color:#414042"/>
			<stop  offset="1" style="stop-color:#000000"/>
		</linearGradient>
		<path class="st5" d="M21.2,52.6C21.2,52.6,21.2,52.6,21.2,52.6C21.2,52.6,21.2,52.6,21.2,52.6z"/>
		<linearGradient id="SVGID_3_" gradientUnits="userSpaceOnUse" x1="23.1329" y1="49.335" x2="23.1914" y2="49.335">
			<stop  offset="0" style="stop-color:#414042"/>
			<stop  offset="1" style="stop-color:#000000"/>
		</linearGradient>
		<path class="st6" d="M23.1,49.4C23.2,49.4,23.2,49.3,23.1,49.4C23.2,49.3,23.2,49.4,23.1,49.4z"/>
	</g>
</g>
</svg>
