<?xml version="1.0" encoding="utf-8"?>
<!-- Generator: Adobe Illustrator 22.0.1, SVG Export Plug-In . SVG Version: 6.00 Build 0)  -->
<svg version="1.1" xmlns="http://www.w3.org/2000/svg" xmlns:xlink="http://www.w3.org/1999/xlink" x="0px" y="0px"
	 viewBox="0 0 203.2 68" style="enable-background:new 0 0 203.2 68;" xml:space="preserve">
<style type="text/css">
	.st0{fill:url(#SVGID_1_);stroke:#009CA7;stroke-width:0.5;stroke-miterlimit:10;}
	.st1{fill:url(#SVGID_2_);stroke:#009CA7;stroke-width:0.5;stroke-miterlimit:10;}
	.st2{fill:url(#SVGID_3_);stroke:#009CA7;stroke-width:0.5;stroke-miterlimit:10;}
	.st3{fill:url(#SVGID_4_);stroke:#009CA7;stroke-width:0.5;stroke-miterlimit:10;}
	.st4{fill:url(#SVGID_5_);stroke:#009CA7;stroke-width:0.5;stroke-miterlimit:10;}
	.st5{fill:url(#SVGID_6_);stroke:#009CA7;stroke-width:0.5;stroke-miterlimit:10;}
	.st6{fill:url(#SVGID_7_);stroke:#009CA7;stroke-width:0.5;stroke-miterlimit:10;}
	.st7{fill:url(#SVGID_8_);stroke:#009CA7;stroke-width:0.5;stroke-miterlimit:10;}
	.st8{fill:url(#SVGID_9_);stroke:#009CA7;stroke-width:0.5;stroke-miterlimit:10;}
	.st9{fill:url(#SVGID_10_);stroke:#009CA7;stroke-width:0.5;stroke-miterlimit:10;}
	.st10{fill:url(#SVGID_11_);stroke:#009CA7;stroke-width:0.5;stroke-miterlimit:10;}
	.st11{fill:url(#SVGID_12_);stroke:#009CA7;stroke-width:0.5;stroke-miterlimit:10;}
	.st12{fill:url(#SVGID_13_);stroke:#009CA7;stroke-width:0.5;stroke-miterlimit:10;}
	.st13{fill:url(#SVGID_14_);stroke:#009CA7;stroke-width:0.5;stroke-miterlimit:10;}
	.st14{fill:url(#SVGID_15_);stroke:#009CA7;stroke-width:0.5;stroke-miterlimit:10;}
	.st15{fill:url(#SVGID_16_);stroke:#009CA7;stroke-width:0.5;stroke-miterlimit:10;}
	.st16{fill:url(#SVGID_17_);stroke:#009CA7;stroke-width:0.5;stroke-miterlimit:10;}
	.st17{fill:url(#SVGID_18_);stroke:#009CA7;stroke-width:0.5;stroke-miterlimit:10;}
	.st18{fill:url(#SVGID_19_);stroke:#009CA7;stroke-width:0.5;stroke-miterlimit:10;}
	.st19{fill:url(#SVGID_20_);stroke:#009CA7;stroke-width:0.5;stroke-miterlimit:10;}
	.st20{fill:url(#SVGID_21_);stroke:#009CA7;stroke-width:0.5;stroke-miterlimit:10;}
	.st21{fill:url(#SVGID_22_);stroke:#009CA7;stroke-width:0.5;stroke-miterlimit:10;}
	.st22{fill:url(#SVGID_23_);stroke:#009CA7;stroke-width:0.5;stroke-miterlimit:10;}
	.st23{fill:url(#SVGID_24_);stroke:#009CA7;stroke-width:0.5;stroke-miterlimit:10;}
	.st24{fill:url(#SVGID_25_);stroke:#009CA7;stroke-width:0.5;stroke-miterlimit:10;}
	.st25{fill:url(#SVGID_26_);stroke:#009CA7;stroke-width:0.5;stroke-miterlimit:10;}
	.st26{fill:url(#SVGID_27_);stroke:#009CA7;stroke-width:0.5;stroke-miterlimit:10;}
	.st27{fill:url(#SVGID_28_);stroke:#009CA7;stroke-width:0.5;stroke-miterlimit:10;}
	.st28{fill:url(#SVGID_29_);stroke:#009CA7;stroke-width:0.5;stroke-miterlimit:10;}
	.st29{fill:url(#SVGID_30_);stroke:#009CA7;stroke-width:0.5;stroke-miterlimit:10;}
	.st30{fill:#009CA7;stroke:#009CA7;stroke-width:0.5;stroke-miterlimit:10;}
	.st31{fill:#03686B;}
	.st32{fill:#009CA7;}
	.st33{fill:#0071B9;}
	.st34{fill:#65656A;}
	.st35{fill:#FFFFFF;stroke:#009CA7;stroke-width:0.5;stroke-miterlimit:10;}
	.st36{fill:url(#SVGID_31_);}
	.st37{fill:#64CADF;}
</style>
<g id="Layer_2">
</g>
<g id="Layer_1">
	<g>
		<g>
			<linearGradient id="SVGID_1_" gradientUnits="userSpaceOnUse" x1="139.9853" y1="11.7042" x2="191.9091" y2="11.7042">
				<stop  offset="0" style="stop-color:#BCBEC0"/>
				<stop  offset="0.277" style="stop-color:#D7D9DA"/>
				<stop  offset="0.5452" style="stop-color:#EBECED"/>
				<stop  offset="0.7927" style="stop-color:#F8F8F9"/>
				<stop  offset="1" style="stop-color:#FFFFFF"/>
			</linearGradient>
			<polygon class="st0" points="187.9,13.8 140,13.8 144,9.6 191.9,9.6 			"/>
			<linearGradient id="SVGID_2_" gradientUnits="userSpaceOnUse" x1="128.4862" y1="15.9744" x2="183.7255" y2="15.9744">
				<stop  offset="0" style="stop-color:#BCBEC0"/>
				<stop  offset="0.277" style="stop-color:#D7D9DA"/>
				<stop  offset="0.5452" style="stop-color:#EBECED"/>
				<stop  offset="0.7927" style="stop-color:#F8F8F9"/>
				<stop  offset="1" style="stop-color:#FFFFFF"/>
			</linearGradient>
			<polygon class="st1" points="179.7,18.1 128.5,18.1 132.5,13.8 183.7,13.8 			"/>
			<linearGradient id="SVGID_3_" gradientUnits="userSpaceOnUse" x1="120.411" y1="20.2446" x2="175.6513" y2="20.2446">
				<stop  offset="0" style="stop-color:#BCBEC0"/>
				<stop  offset="0.277" style="stop-color:#D7D9DA"/>
				<stop  offset="0.5452" style="stop-color:#EBECED"/>
				<stop  offset="0.7927" style="stop-color:#F8F8F9"/>
				<stop  offset="1" style="stop-color:#FFFFFF"/>
			</linearGradient>
			<polygon class="st2" points="171.7,22.4 120.4,22.4 124.4,18.1 175.7,18.1 			"/>
			<linearGradient id="SVGID_4_" gradientUnits="userSpaceOnUse" x1="113.0605" y1="24.5154" x2="168.2987" y2="24.5154">
				<stop  offset="0" style="stop-color:#BCBEC0"/>
				<stop  offset="0.277" style="stop-color:#D7D9DA"/>
				<stop  offset="0.5452" style="stop-color:#EBECED"/>
				<stop  offset="0.7927" style="stop-color:#F8F8F9"/>
				<stop  offset="1" style="stop-color:#FFFFFF"/>
			</linearGradient>
			<polygon class="st3" points="164.3,26.7 113.1,26.7 117.1,22.4 168.3,22.4 			"/>
			<linearGradient id="SVGID_5_" gradientUnits="userSpaceOnUse" x1="105.3876" y1="28.7857" x2="160.6259" y2="28.7857">
				<stop  offset="0" style="stop-color:#BCBEC0"/>
				<stop  offset="0.277" style="stop-color:#D7D9DA"/>
				<stop  offset="0.5452" style="stop-color:#EBECED"/>
				<stop  offset="0.7927" style="stop-color:#F8F8F9"/>
				<stop  offset="1" style="stop-color:#FFFFFF"/>
			</linearGradient>
			<polygon class="st4" points="156.6,30.9 105.4,30.9 109.4,26.7 160.6,26.7 			"/>
			<linearGradient id="SVGID_6_" gradientUnits="userSpaceOnUse" x1="124.1386" y1="11.7042" x2="176.0634" y2="11.7042">
				<stop  offset="0" style="stop-color:#BCBEC0"/>
				<stop  offset="0.277" style="stop-color:#D7D9DA"/>
				<stop  offset="0.5452" style="stop-color:#EBECED"/>
				<stop  offset="0.7927" style="stop-color:#F8F8F9"/>
				<stop  offset="1" style="stop-color:#FFFFFF"/>
			</linearGradient>
			<polygon class="st5" points="172.1,13.8 124.1,13.8 128.1,9.6 176.1,9.6 			"/>
			<linearGradient id="SVGID_7_" gradientUnits="userSpaceOnUse" x1="117.8446" y1="11.7042" x2="158.9804" y2="11.7042">
				<stop  offset="0" style="stop-color:#BCBEC0"/>
				<stop  offset="0.277" style="stop-color:#D7D9DA"/>
				<stop  offset="0.5452" style="stop-color:#EBECED"/>
				<stop  offset="0.7927" style="stop-color:#F8F8F9"/>
				<stop  offset="1" style="stop-color:#FFFFFF"/>
			</linearGradient>
			<polygon class="st6" points="121.7,9.6 117.8,13.8 155,13.8 159,9.6 			"/>
			<linearGradient id="SVGID_8_" gradientUnits="userSpaceOnUse" x1="103.8827" y1="28.7857" x2="144.7792" y2="28.7857">
				<stop  offset="0" style="stop-color:#BCBEC0"/>
				<stop  offset="0.277" style="stop-color:#D7D9DA"/>
				<stop  offset="0.5452" style="stop-color:#EBECED"/>
				<stop  offset="0.7927" style="stop-color:#F8F8F9"/>
				<stop  offset="1" style="stop-color:#FFFFFF"/>
			</linearGradient>
			<polygon class="st7" points="106.3,26.7 103.9,30.9 140.8,30.9 144.8,26.7 			"/>
			<linearGradient id="SVGID_9_" gradientUnits="userSpaceOnUse" x1="103.748" y1="28.7857" x2="124.3827" y2="28.7857">
				<stop  offset="0" style="stop-color:#BCBEC0"/>
				<stop  offset="0.277" style="stop-color:#D7D9DA"/>
				<stop  offset="0.5452" style="stop-color:#EBECED"/>
				<stop  offset="0.7927" style="stop-color:#F8F8F9"/>
				<stop  offset="1" style="stop-color:#FFFFFF"/>
			</linearGradient>
			<polygon class="st8" points="103.7,30.9 120.4,30.9 124.4,26.7 107.6,26.7 			"/>
			<linearGradient id="SVGID_10_" gradientUnits="userSpaceOnUse" x1="106.2772" y1="24.5154" x2="152.453" y2="24.5154">
				<stop  offset="0" style="stop-color:#BCBEC0"/>
				<stop  offset="0.277" style="stop-color:#D7D9DA"/>
				<stop  offset="0.5452" style="stop-color:#EBECED"/>
				<stop  offset="0.7927" style="stop-color:#F8F8F9"/>
				<stop  offset="1" style="stop-color:#FFFFFF"/>
			</linearGradient>
			<polygon class="st9" points="110.2,22.4 106.3,26.7 148.5,26.7 152.5,22.4 			"/>
			<linearGradient id="SVGID_11_" gradientUnits="userSpaceOnUse" x1="106.1415" y1="24.5154" x2="132.0556" y2="24.5154">
				<stop  offset="0" style="stop-color:#BCBEC0"/>
				<stop  offset="0.277" style="stop-color:#D7D9DA"/>
				<stop  offset="0.5452" style="stop-color:#EBECED"/>
				<stop  offset="0.7927" style="stop-color:#F8F8F9"/>
				<stop  offset="1" style="stop-color:#FFFFFF"/>
			</linearGradient>
			<polygon class="st10" points="110,22.4 106.1,26.7 128.1,26.7 132.1,22.4 			"/>
			<linearGradient id="SVGID_12_" gradientUnits="userSpaceOnUse" x1="110.1776" y1="20.2446" x2="159.8026" y2="20.2446">
				<stop  offset="0" style="stop-color:#BCBEC0"/>
				<stop  offset="0.277" style="stop-color:#D7D9DA"/>
				<stop  offset="0.5452" style="stop-color:#EBECED"/>
				<stop  offset="0.7927" style="stop-color:#F8F8F9"/>
				<stop  offset="1" style="stop-color:#FFFFFF"/>
			</linearGradient>
			<polygon class="st11" points="114.1,18.1 110.2,22.4 155.8,22.4 159.8,18.1 			"/>
			<linearGradient id="SVGID_13_" gradientUnits="userSpaceOnUse" x1="114.079" y1="15.9744" x2="167.8778" y2="15.9744">
				<stop  offset="0" style="stop-color:#BCBEC0"/>
				<stop  offset="0.277" style="stop-color:#D7D9DA"/>
				<stop  offset="0.5452" style="stop-color:#EBECED"/>
				<stop  offset="0.7927" style="stop-color:#F8F8F9"/>
				<stop  offset="1" style="stop-color:#FFFFFF"/>
			</linearGradient>
			<polygon class="st12" points="118,13.8 114.1,18.1 163.9,18.1 167.9,13.8 			"/>
			<linearGradient id="SVGID_14_" gradientUnits="userSpaceOnUse" x1="110.0429" y1="20.2446" x2="139.4071" y2="20.2446">
				<stop  offset="0" style="stop-color:#BCBEC0"/>
				<stop  offset="0.277" style="stop-color:#D7D9DA"/>
				<stop  offset="0.5452" style="stop-color:#EBECED"/>
				<stop  offset="0.7927" style="stop-color:#F8F8F9"/>
				<stop  offset="1" style="stop-color:#FFFFFF"/>
			</linearGradient>
			<polygon class="st13" points="113.9,18.1 110,22.4 135.4,22.4 139.4,18.1 			"/>
			<linearGradient id="SVGID_15_" gradientUnits="userSpaceOnUse" x1="113.9433" y1="15.9744" x2="147.4813" y2="15.9744">
				<stop  offset="0" style="stop-color:#BCBEC0"/>
				<stop  offset="0.277" style="stop-color:#D7D9DA"/>
				<stop  offset="0.5452" style="stop-color:#EBECED"/>
				<stop  offset="0.7927" style="stop-color:#F8F8F9"/>
				<stop  offset="1" style="stop-color:#FFFFFF"/>
			</linearGradient>
			<polygon class="st14" points="117.8,13.8 113.9,18.1 143.5,18.1 147.5,13.8 			"/>
		</g>
		<g>
			<linearGradient id="SVGID_16_" gradientUnits="userSpaceOnUse" x1="11.244" y1="11.7042" x2="63.1688" y2="11.7042">
				<stop  offset="0" style="stop-color:#FFFFFF"/>
				<stop  offset="0.2036" style="stop-color:#F8F8F8"/>
				<stop  offset="0.4581" style="stop-color:#EAEBEC"/>
				<stop  offset="0.7385" style="stop-color:#D5D7D8"/>
				<stop  offset="1" style="stop-color:#BCBEC0"/>
			</linearGradient>
			<polygon class="st15" points="15.2,13.8 63.2,13.8 59.2,9.6 11.2,9.6 			"/>
			<linearGradient id="SVGID_17_" gradientUnits="userSpaceOnUse" x1="19.4286" y1="15.9744" x2="74.6669" y2="15.9744">
				<stop  offset="0" style="stop-color:#FFFFFF"/>
				<stop  offset="0.2036" style="stop-color:#F8F8F8"/>
				<stop  offset="0.4581" style="stop-color:#EAEBEC"/>
				<stop  offset="0.7385" style="stop-color:#D5D7D8"/>
				<stop  offset="1" style="stop-color:#BCBEC0"/>
			</linearGradient>
			<polygon class="st16" points="23.4,18.1 74.7,18.1 70.7,13.8 19.4,13.8 			"/>
			<linearGradient id="SVGID_18_" gradientUnits="userSpaceOnUse" x1="27.5028" y1="20.2446" x2="82.7421" y2="20.2446">
				<stop  offset="0" style="stop-color:#FFFFFF"/>
				<stop  offset="0.2036" style="stop-color:#F8F8F8"/>
				<stop  offset="0.4581" style="stop-color:#EAEBEC"/>
				<stop  offset="0.7385" style="stop-color:#D5D7D8"/>
				<stop  offset="1" style="stop-color:#BCBEC0"/>
			</linearGradient>
			<polygon class="st17" points="31.5,22.4 82.7,22.4 78.7,18.1 27.5,18.1 			"/>
			<linearGradient id="SVGID_19_" gradientUnits="userSpaceOnUse" x1="34.8534" y1="24.5152" x2="90.0917" y2="24.5152">
				<stop  offset="0" style="stop-color:#FFFFFF"/>
				<stop  offset="0.2036" style="stop-color:#F8F8F8"/>
				<stop  offset="0.4581" style="stop-color:#EAEBEC"/>
				<stop  offset="0.7385" style="stop-color:#D5D7D8"/>
				<stop  offset="1" style="stop-color:#BCBEC0"/>
			</linearGradient>
			<polygon class="st18" points="38.8,26.7 90.1,26.7 86.1,22.4 34.9,22.4 			"/>
			<linearGradient id="SVGID_20_" gradientUnits="userSpaceOnUse" x1="42.5282" y1="28.7857" x2="97.7655" y2="28.7857">
				<stop  offset="0" style="stop-color:#FFFFFF"/>
				<stop  offset="0.2036" style="stop-color:#F8F8F8"/>
				<stop  offset="0.4581" style="stop-color:#EAEBEC"/>
				<stop  offset="0.7385" style="stop-color:#D5D7D8"/>
				<stop  offset="1" style="stop-color:#BCBEC0"/>
			</linearGradient>
			<polygon class="st19" points="46.5,30.9 97.8,30.9 93.8,26.7 42.5,26.7 			"/>
			<linearGradient id="SVGID_21_" gradientUnits="userSpaceOnUse" x1="27.0897" y1="11.7042" x2="79.0155" y2="11.7042">
				<stop  offset="0" style="stop-color:#FFFFFF"/>
				<stop  offset="0.2036" style="stop-color:#F8F8F8"/>
				<stop  offset="0.4581" style="stop-color:#EAEBEC"/>
				<stop  offset="0.7385" style="stop-color:#D5D7D8"/>
				<stop  offset="1" style="stop-color:#BCBEC0"/>
			</linearGradient>
			<polygon class="st20" points="31.1,13.8 79,13.8 75,9.6 27.1,9.6 			"/>
			<linearGradient id="SVGID_22_" gradientUnits="userSpaceOnUse" x1="44.1728" y1="11.7042" x2="85.3095" y2="11.7042">
				<stop  offset="0" style="stop-color:#FFFFFF"/>
				<stop  offset="0.2036" style="stop-color:#F8F8F8"/>
				<stop  offset="0.4581" style="stop-color:#EAEBEC"/>
				<stop  offset="0.7385" style="stop-color:#D5D7D8"/>
				<stop  offset="1" style="stop-color:#BCBEC0"/>
			</linearGradient>
			<polygon class="st21" points="81.4,9.6 85.3,13.8 48.2,13.8 44.2,9.6 			"/>
			<linearGradient id="SVGID_23_" gradientUnits="userSpaceOnUse" x1="58.3739" y1="28.7857" x2="99.2714" y2="28.7857">
				<stop  offset="0" style="stop-color:#FFFFFF"/>
				<stop  offset="0.2036" style="stop-color:#F8F8F8"/>
				<stop  offset="0.4581" style="stop-color:#EAEBEC"/>
				<stop  offset="0.7385" style="stop-color:#D5D7D8"/>
				<stop  offset="1" style="stop-color:#BCBEC0"/>
			</linearGradient>
			<polygon class="st22" points="96.9,26.7 99.3,30.9 62.4,30.9 58.4,26.7 			"/>
			<linearGradient id="SVGID_24_" gradientUnits="userSpaceOnUse" x1="78.7714" y1="28.7857" x2="99.4062" y2="28.7857">
				<stop  offset="0" style="stop-color:#FFFFFF"/>
				<stop  offset="0.2036" style="stop-color:#F8F8F8"/>
				<stop  offset="0.4581" style="stop-color:#EAEBEC"/>
				<stop  offset="0.7385" style="stop-color:#D5D7D8"/>
				<stop  offset="1" style="stop-color:#BCBEC0"/>
			</linearGradient>
			<polygon class="st23" points="99.4,30.9 82.8,30.9 78.8,26.7 95.5,26.7 			"/>
			<linearGradient id="SVGID_25_" gradientUnits="userSpaceOnUse" x1="50.7001" y1="24.5154" x2="96.8749" y2="24.5154">
				<stop  offset="0" style="stop-color:#FFFFFF"/>
				<stop  offset="0.2036" style="stop-color:#F8F8F8"/>
				<stop  offset="0.4581" style="stop-color:#EAEBEC"/>
				<stop  offset="0.7385" style="stop-color:#D5D7D8"/>
				<stop  offset="1" style="stop-color:#BCBEC0"/>
			</linearGradient>
			<polygon class="st24" points="93,22.4 96.9,26.7 54.7,26.7 50.7,22.4 			"/>
			<linearGradient id="SVGID_26_" gradientUnits="userSpaceOnUse" x1="71.0976" y1="24.5154" x2="97.0126" y2="24.5154">
				<stop  offset="0" style="stop-color:#FFFFFF"/>
				<stop  offset="0.2036" style="stop-color:#F8F8F8"/>
				<stop  offset="0.4581" style="stop-color:#EAEBEC"/>
				<stop  offset="0.7385" style="stop-color:#D5D7D8"/>
				<stop  offset="1" style="stop-color:#BCBEC0"/>
			</linearGradient>
			<polygon class="st25" points="93.1,22.4 97,26.7 75.1,26.7 71.1,22.4 			"/>
			<linearGradient id="SVGID_27_" gradientUnits="userSpaceOnUse" x1="43.3495" y1="20.2446" x2="92.9755" y2="20.2446">
				<stop  offset="0" style="stop-color:#FFFFFF"/>
				<stop  offset="0.2036" style="stop-color:#F8F8F8"/>
				<stop  offset="0.4581" style="stop-color:#EAEBEC"/>
				<stop  offset="0.7385" style="stop-color:#D5D7D8"/>
				<stop  offset="1" style="stop-color:#BCBEC0"/>
			</linearGradient>
			<polygon class="st26" points="89.1,18.1 93,22.4 47.3,22.4 43.3,18.1 			"/>
			<linearGradient id="SVGID_28_" gradientUnits="userSpaceOnUse" x1="35.2743" y1="15.9744" x2="89.0741" y2="15.9744">
				<stop  offset="0" style="stop-color:#FFFFFF"/>
				<stop  offset="0.2036" style="stop-color:#F8F8F8"/>
				<stop  offset="0.4581" style="stop-color:#EAEBEC"/>
				<stop  offset="0.7385" style="stop-color:#D5D7D8"/>
				<stop  offset="1" style="stop-color:#BCBEC0"/>
			</linearGradient>
			<polygon class="st27" points="85.2,13.8 89.1,18.1 39.3,18.1 35.3,13.8 			"/>
			<linearGradient id="SVGID_29_" gradientUnits="userSpaceOnUse" x1="63.746" y1="20.2446" x2="93.1112" y2="20.2446">
				<stop  offset="0" style="stop-color:#FFFFFF"/>
				<stop  offset="0.2036" style="stop-color:#F8F8F8"/>
				<stop  offset="0.4581" style="stop-color:#EAEBEC"/>
				<stop  offset="0.7385" style="stop-color:#D5D7D8"/>
				<stop  offset="1" style="stop-color:#BCBEC0"/>
			</linearGradient>
			<polygon class="st28" points="89.2,18.1 93.1,22.4 67.7,22.4 63.7,18.1 			"/>
			<linearGradient id="SVGID_30_" gradientUnits="userSpaceOnUse" x1="55.6728" y1="15.9744" x2="89.2099" y2="15.9744">
				<stop  offset="0" style="stop-color:#FFFFFF"/>
				<stop  offset="0.2036" style="stop-color:#F8F8F8"/>
				<stop  offset="0.4581" style="stop-color:#EAEBEC"/>
				<stop  offset="0.7385" style="stop-color:#D5D7D8"/>
				<stop  offset="1" style="stop-color:#BCBEC0"/>
			</linearGradient>
			<polygon class="st29" points="85.3,13.8 89.2,18.1 59.7,18.1 55.7,13.8 			"/>
		</g>
		<polygon class="st30" points="102.4,32.6 78.5,6.2 8.4,6.3 12.3,10.6 72.7,10.6 92.4,32.6 		"/>
		<g>
			<path class="st31" d="M98.1,11.4h7.3l5.1,28.4l-3.1-6.1l-1.7-4.8h-8.4l-1.8,4.8l-3.3,6.1L98.1,11.4z M101.8,16L101.8,16l-2.9,8.7
				h5.6L101.8,16z"/>
		</g>
		<g>
			<path class="st32" d="M98.1,11.4h7.3l5.1,28.4l-2.5-7.3l-2.2-3.5h-8.4l-1.8,4.8l-3.3,6.1L98.1,11.4z M101.8,12.5l-0.1,3.5
				l-2.9,8.7l7,1.2L101.8,12.5z"/>
		</g>
		<g>
			<path class="st33" d="M46.1,44.1h6v1.7h-3.6v2h3.5v1.7h-3.5v3.6h-2.4V44.1z"/>
			<path class="st33" d="M57.4,44c3,0,4.5,1.8,4.5,4.6c0,2.9-1.6,4.6-4.5,4.6c-2.9,0-4.5-1.8-4.5-4.6C52.9,45.7,54.5,44,57.4,44z
				 M57.4,51.5c1.5,0,2-1.4,2-2.9c0-1.6-0.6-2.9-2-2.9c-1.5,0-2,1.3-2,2.9C55.4,50.1,56,51.5,57.4,51.5z"/>
			<path class="st33" d="M63.2,44.1h4.3c1.6,0,2.9,0.7,2.9,2.3c0,1.2-0.6,2-1.7,2.3v0c0.8,0.2,0.8,0.9,1.3,2l0.9,2.4h-2.5l-0.5-1.6
				c-0.5-1.5-0.8-1.9-1.7-1.9h-0.5v3.5h-2.4V44.1z M65.6,47.8h0.6c0.8,0,1.7,0,1.7-1c0-0.8-0.8-1-1.7-1h-0.6V47.8z"/>
			<path class="st33" d="M77.3,45.9h-2.2v-1.8h6.8v1.8h-2.2v7.2h-2.4V45.9z"/>
			<path class="st33" d="M82.9,44.1h2.4v3.4h2.8v-3.4h2.4v9h-2.4v-3.8h-2.8v3.8h-2.4V44.1z"/>
			<path class="st33" d="M92.1,44.1h6.3v1.7h-3.9v1.8h3.7v1.7h-3.7v2h4.1v1.7h-6.5V44.1z"/>
			<path class="st33" d="M106.6,44.1h2.9l3.5,9h-2.6l-0.7-1.9h-3.4l-0.7,1.9h-2.4L106.6,44.1z M108.1,46L108.1,46l-1.2,3.5h2.2
				L108.1,46z"/>
			<path class="st33" d="M114,44.1h3l3,6.1h0l0-6.1h2.2v9h-3l-3.1-6.1h0l0.1,6.1H114V44.1z"/>
			<path class="st33" d="M132.2,52.8c-1.5,0.4-2.6,0.4-3.5,0.4c-2.4,0-5.2-1.2-5.2-4.6c0-3.4,2.4-4.7,5.7-4.7c0.6,0,1.8,0.1,2.7,0.4
				l-0.2,2c-0.7-0.4-1.6-0.6-2.2-0.6c-1.9,0-3.5,0.8-3.5,2.9c0,1.8,1.2,2.8,3,2.8c0.3,0,0.6-0.1,0.8-0.2v-1.8h-1.4v-1.7h3.7V52.8z"
				/>
			<path class="st33" d="M133.9,44.1h6.3v1.7h-3.9v1.8h3.7v1.7h-3.7v2h4.1v1.7h-6.5V44.1z"/>
			<path class="st33" d="M141.8,44.1h2.4v7.2h3.7v1.8h-6.1V44.1z"/>
			<path class="st33" d="M148.9,50.9c0.6,0.3,1.5,0.6,2.5,0.6c0.8,0,1.5-0.2,1.5-0.9c0-1.7-4.2-0.6-4.2-3.9c0-2.2,2.1-2.7,3.9-2.7
				c0.9,0,1.7,0.1,2.3,0.3l-0.2,1.8c-0.6-0.3-1.3-0.4-2-0.4c-0.6,0-1.6,0.1-1.6,0.8c0,1.5,4.2,0.5,4.2,3.7c0,2.3-2,3-3.9,3
				c-0.8,0-1.9-0.1-2.7-0.4L148.9,50.9z"/>
			<path class="st34" d="M45.2,62.6C45,62.5,45,62.4,45,62.3c0-0.1,0-0.2,0.1-0.3c0.1-0.1,0.2-0.1,0.2-0.1c0.1,0,0.2,0,0.2,0.1
				c0.1,0.1,0.1,0.1,0.1,0.3c0,0.1,0,0.1-0.1,0.2c0,0.1-0.1,0.1-0.1,0.1c0,0,0,0,0,0.1c0,0,0.1,0,0.1,0c0.2,0,0.3-0.1,0.4-0.4
				c0.1-0.3,0.3-1.1,0.6-2.4l0.3-1.2h-0.5l0.1-0.3H47c0-0.2,0.1-0.4,0.3-0.7c0.1-0.3,0.3-0.5,0.5-0.7c0.2-0.2,0.5-0.3,0.8-0.3
				c0.2,0,0.4,0,0.5,0.1c0.1,0.1,0.2,0.2,0.2,0.4c0,0.1,0,0.2-0.1,0.3c-0.1,0.1-0.2,0.1-0.2,0.1c-0.1,0-0.2,0-0.2-0.1
				c-0.1-0.1-0.1-0.1-0.1-0.2c0-0.1,0-0.1,0.1-0.2c0-0.1,0.1-0.1,0.1-0.1c0,0,0,0,0-0.1c0,0,0,0-0.1,0c-0.1,0-0.2,0.1-0.3,0.3
				c-0.1,0.2-0.2,0.4-0.3,0.8l-0.1,0.5h0.6l-0.1,0.3h-0.6c-0.3,1.6-0.6,2.7-0.8,3.2c-0.3,0.7-0.7,1.1-1.3,1.1
				C45.5,62.8,45.3,62.8,45.2,62.6z"/>
			<path class="st34" d="M48.7,60.7c0-0.1,0-0.2,0.1-0.3l0.4-1.3c0-0.1,0-0.1,0-0.2c0,0,0-0.1,0-0.1c0-0.1,0-0.1-0.1-0.2
				c-0.1,0-0.2,0-0.3,0v-0.2c0.5,0,0.8-0.1,1.1-0.1c0.2,0,0.4-0.1,0.4-0.1l-0.3,1.1l-0.3,1.1c0,0,0,0.1-0.1,0.2c0,0.1,0,0.2,0,0.3
				c0,0.1,0,0.1,0,0.1c0,0,0.1,0,0.1,0c0.1,0,0.3-0.1,0.4-0.3c0.2-0.2,0.3-0.5,0.5-0.9c0.1-0.2,0.2-0.5,0.3-0.7
				c0.1-0.2,0.1-0.4,0.2-0.8h0.8l-0.3,1c0,0-0.1,0.2-0.1,0.5c-0.1,0.3-0.1,0.5-0.1,0.5c0,0.1-0.1,0.2-0.1,0.3c0,0.1,0,0.2,0,0.2
				c0,0,0,0.1,0,0.1c0,0,0,0,0.1,0c0.1,0,0.2-0.1,0.3-0.2c0.1-0.1,0.1-0.2,0.2-0.3l0.1,0.1c-0.1,0.2-0.3,0.5-0.5,0.6
				c-0.2,0.2-0.4,0.3-0.6,0.3c-0.2,0-0.3-0.1-0.4-0.2c0-0.1-0.1-0.2-0.1-0.3c0-0.1,0-0.2,0-0.3c0-0.1,0.1-0.2,0.1-0.4l0,0
				c-0.3,0.4-0.5,0.7-0.6,0.8c-0.2,0.2-0.5,0.3-0.7,0.3c-0.1,0-0.2,0-0.3-0.1c-0.1-0.1-0.2-0.2-0.2-0.5
				C48.7,60.8,48.7,60.8,48.7,60.7z"/>
			<path class="st34" d="M52.3,61.4l0.6-2.2c0-0.1,0-0.2,0.1-0.2c0-0.1,0-0.2,0-0.2c0-0.1,0-0.1-0.1-0.2c-0.1,0-0.2,0-0.3,0v-0.2
				c0.3,0,0.5,0,0.7-0.1c0.2,0,0.4-0.1,0.7-0.1l-0.4,1.3l0,0c0,0,0.1-0.1,0.2-0.3c0.1-0.2,0.3-0.4,0.4-0.5c0.1-0.1,0.3-0.2,0.4-0.3
				c0.1-0.1,0.3-0.1,0.5-0.1c0.1,0,0.3,0,0.4,0.1c0.1,0.1,0.2,0.2,0.2,0.4c0,0.2-0.1,0.6-0.3,1.2c-0.2,0.6-0.3,0.9-0.3,1
				c0,0,0,0.1,0,0.1c0,0,0,0,0.1,0c0.1,0,0.2-0.1,0.3-0.2c0.1-0.1,0.1-0.2,0.2-0.3l0.2,0.1c-0.2,0.3-0.3,0.5-0.4,0.6
				c-0.2,0.2-0.4,0.3-0.7,0.3c-0.1,0-0.2,0-0.3-0.1c-0.1-0.1-0.1-0.2-0.1-0.3c0-0.1,0-0.2,0.1-0.4c0-0.2,0.1-0.4,0.2-0.6l0.3-1
				c0,0,0,0,0-0.1c0,0,0,0,0-0.1c0-0.1,0-0.1-0.1-0.1c0,0-0.1,0-0.1,0c-0.1,0-0.3,0.1-0.5,0.3c-0.2,0.2-0.3,0.4-0.4,0.7
				c-0.1,0.2-0.2,0.5-0.3,0.7c-0.1,0.2-0.2,0.6-0.3,1H52.3z"/>
			<path class="st34" d="M58.3,58.3c0.1,0,0.1,0.1,0.2,0.1l0.3-1.1c0,0,0,0,0-0.1c0,0,0,0,0-0.1c0-0.1,0-0.1-0.1-0.2
				c0,0-0.1,0-0.2,0h-0.1v-0.2l0.3,0c0.2,0,0.4,0,0.5-0.1c0.1,0,0.3-0.1,0.6-0.1L59,59.4c-0.1,0.2-0.1,0.5-0.2,0.9
				c-0.1,0.4-0.2,0.6-0.2,0.6c0,0,0,0.1,0,0.1c0,0,0,0,0.1,0c0.1,0,0.1-0.1,0.2-0.2c0.1-0.1,0.2-0.2,0.2-0.3l0.2,0.1
				c-0.2,0.3-0.3,0.5-0.4,0.6c-0.2,0.2-0.4,0.3-0.6,0.3c-0.1,0-0.2,0-0.3-0.1c-0.1-0.1-0.2-0.2-0.2-0.4c0,0,0-0.1,0-0.2
				c0-0.1,0-0.2,0.1-0.3c-0.2,0.3-0.3,0.5-0.4,0.6c-0.2,0.2-0.4,0.3-0.7,0.3c-0.2,0-0.4-0.1-0.5-0.2c-0.1-0.2-0.2-0.4-0.2-0.7
				c0-0.5,0.2-1,0.6-1.5c0.4-0.5,0.8-0.8,1.3-0.8C58.1,58.2,58.2,58.2,58.3,58.3z M57,60.9c0.1,0.1,0.1,0.1,0.2,0.1
				c0.3,0,0.5-0.3,0.8-1c0.2-0.5,0.3-0.9,0.3-1.2c0-0.1,0-0.2,0-0.2c0-0.1-0.1-0.1-0.2-0.1c-0.3,0-0.5,0.3-0.8,0.9
				c-0.2,0.5-0.4,0.9-0.4,1.2C56.9,60.7,57,60.8,57,60.9z"/>
			<path class="st34" d="M59.5,61.4c0.2-0.7,0.3-1.2,0.5-1.7c0.1-0.5,0.2-0.8,0.2-0.9c0-0.1,0-0.1-0.1-0.2c-0.1,0-0.2,0-0.3,0v-0.2
				c0.3,0,0.5,0,0.7-0.1c0.1,0,0.4-0.1,0.7-0.1l-0.4,1.2l0,0c0.2-0.4,0.4-0.7,0.5-0.8c0.2-0.3,0.4-0.4,0.6-0.4c0.1,0,0.2,0,0.3,0.1
				c0.1,0.1,0.1,0.2,0.1,0.3c0,0.1,0,0.3-0.1,0.4c-0.1,0.1-0.2,0.2-0.3,0.2c-0.1,0-0.1,0-0.2,0c0,0-0.1-0.1-0.1-0.1l-0.1-0.1
				c0,0,0,0,0,0c0,0,0,0,0,0c-0.1,0-0.2,0.1-0.3,0.4c-0.1,0.2-0.3,0.5-0.4,0.7c-0.1,0.2-0.2,0.4-0.2,0.7c-0.1,0.3-0.2,0.5-0.2,0.7
				H59.5z"/>
			<path class="st34" d="M62.8,59c0.4-0.5,0.8-0.8,1.3-0.8c0.2,0,0.3,0.1,0.4,0.2c0,0.1,0.1,0.2,0.1,0.3l0.1-0.4l0.7-0.1L65,59.9
				c-0.1,0.2-0.1,0.4-0.1,0.5c-0.1,0.2-0.1,0.4-0.1,0.5c0,0,0,0.1,0,0.1c0,0,0,0,0.1,0c0,0,0.1,0,0.1,0c0,0,0.1-0.1,0.1-0.1
				c0,0,0.1-0.1,0.1-0.1c0.1-0.1,0.1-0.1,0.1-0.2l0.1,0.1c-0.2,0.3-0.4,0.5-0.5,0.6c-0.2,0.2-0.3,0.2-0.5,0.2c-0.1,0-0.2,0-0.3-0.1
				C64.1,61.3,64,61.2,64,61c0-0.1,0-0.2,0.1-0.4c0,0,0,0,0,0c0,0-0.1,0.1-0.1,0.2c-0.1,0.2-0.3,0.3-0.4,0.5
				c-0.2,0.1-0.4,0.2-0.6,0.2c-0.2,0-0.4-0.1-0.5-0.2c-0.2-0.1-0.2-0.4-0.2-0.7C62.2,60.1,62.4,59.5,62.8,59z M64.4,58.6
				c0-0.1-0.1-0.2-0.2-0.2c-0.2,0-0.5,0.3-0.8,0.9c-0.2,0.5-0.3,0.9-0.3,1.2c0,0.1,0,0.2,0.1,0.3c0.1,0.1,0.1,0.1,0.2,0.1
				c0.2,0,0.5-0.3,0.8-0.9c0.2-0.5,0.3-0.9,0.3-1.2C64.5,58.8,64.5,58.7,64.4,58.6z"/>
			<path class="st34" d="M65.9,60.7c0-0.1,0-0.2,0.1-0.3l0.4-1.6c0,0,0,0,0-0.1c0,0,0,0,0-0.1c0-0.1,0-0.1-0.1-0.2
				c-0.1,0-0.2,0-0.3,0v-0.2c0.1,0,0.3,0,0.6-0.1c0.2,0,0.4-0.1,0.5-0.1l0.3-0.1l-0.5,2c0,0.2-0.1,0.3-0.1,0.4
				c0,0.2-0.1,0.3-0.1,0.3c0,0,0,0.1,0,0.1c0,0,0,0,0.1,0c0.1,0,0.2-0.1,0.3-0.2c0.1-0.1,0.2-0.2,0.3-0.4l0.2,0.1
				c-0.2,0.3-0.4,0.6-0.5,0.7c-0.2,0.2-0.4,0.3-0.6,0.3c-0.1,0-0.2,0-0.3-0.1c-0.1-0.1-0.2-0.2-0.2-0.4
				C65.8,60.9,65.8,60.8,65.9,60.7z M67.5,56.8c0.1,0.1,0.1,0.2,0.1,0.3c0,0.1,0,0.2-0.1,0.3c-0.1,0.1-0.2,0.1-0.3,0.1
				c-0.1,0-0.2,0-0.3-0.1c-0.1-0.1-0.1-0.2-0.1-0.3c0-0.1,0-0.2,0.1-0.3c0.1-0.1,0.2-0.1,0.3-0.1C67.3,56.7,67.4,56.7,67.5,56.8z"/>
			<path class="st34" d="M67.8,60.3l0.2,0c0,0.3,0.1,0.6,0.3,0.7c0.1,0.1,0.3,0.2,0.4,0.2c0.1,0,0.2,0,0.3-0.1
				c0.1-0.1,0.1-0.2,0.1-0.3c0-0.1,0-0.2-0.1-0.3c-0.1-0.1-0.1-0.2-0.2-0.3l-0.3-0.3c-0.1-0.1-0.2-0.3-0.3-0.4
				c-0.1-0.2-0.1-0.3-0.1-0.5c0-0.2,0.1-0.4,0.3-0.6c0.2-0.2,0.4-0.2,0.7-0.2c0.1,0,0.2,0,0.4,0.1c0.1,0.1,0.2,0.1,0.3,0.1
				c0.1,0,0.1,0,0.1,0c0,0,0.1-0.1,0.1-0.1h0.2l-0.2,1.1l-0.2,0c0-0.3-0.1-0.5-0.2-0.6c-0.1-0.1-0.2-0.2-0.4-0.2s-0.2,0-0.3,0.1
				c-0.1,0.1-0.1,0.2-0.1,0.3c0,0.1,0,0.2,0.1,0.2c0,0.1,0.1,0.2,0.3,0.4l0.3,0.4c0.1,0.1,0.1,0.2,0.2,0.3c0.1,0.1,0.1,0.3,0.1,0.4
				c0,0.3-0.1,0.5-0.3,0.7c-0.2,0.2-0.4,0.3-0.7,0.3c-0.1,0-0.3,0-0.4-0.1c-0.1-0.1-0.2-0.1-0.3-0.1c-0.1,0-0.1,0-0.1,0
				c0,0-0.1,0.1-0.1,0.1h-0.2L67.8,60.3z"/>
			<path class="st34" d="M70.5,60.7c0-0.1,0-0.2,0.1-0.3l0.4-1.6c0,0,0,0,0-0.1c0,0,0,0,0-0.1c0-0.1,0-0.1-0.1-0.2
				c-0.1,0-0.2,0-0.3,0v-0.2c0.1,0,0.3,0,0.6-0.1c0.2,0,0.4-0.1,0.5-0.1l0.3-0.1l-0.5,2c0,0.2-0.1,0.3-0.1,0.4
				c0,0.2-0.1,0.3-0.1,0.3c0,0,0,0.1,0,0.1c0,0,0,0,0.1,0c0.1,0,0.2-0.1,0.3-0.2c0.1-0.1,0.2-0.2,0.3-0.4l0.2,0.1
				c-0.2,0.3-0.4,0.6-0.5,0.7c-0.2,0.2-0.4,0.3-0.6,0.3c-0.1,0-0.2,0-0.3-0.1c-0.1-0.1-0.2-0.2-0.2-0.4
				C70.4,60.9,70.4,60.8,70.5,60.7z M72.1,56.8c0.1,0.1,0.1,0.2,0.1,0.3c0,0.1,0,0.2-0.1,0.3c-0.1,0.1-0.2,0.1-0.3,0.1
				s-0.2,0-0.3-0.1c-0.1-0.1-0.1-0.2-0.1-0.3c0-0.1,0-0.2,0.1-0.3c0.1-0.1,0.2-0.1,0.3-0.1S72,56.7,72.1,56.8z"/>
			<path class="st34" d="M72.3,61.4l0.6-2.2c0-0.1,0-0.2,0.1-0.2c0-0.1,0-0.2,0-0.2c0-0.1,0-0.1-0.1-0.2c-0.1,0-0.2,0-0.3,0v-0.2
				c0.3,0,0.5,0,0.7-0.1c0.2,0,0.4-0.1,0.7-0.1l-0.4,1.3l0,0c0,0,0.1-0.1,0.2-0.3c0.1-0.2,0.3-0.4,0.4-0.5c0.1-0.1,0.3-0.2,0.4-0.3
				c0.1-0.1,0.3-0.1,0.5-0.1c0.1,0,0.3,0,0.4,0.1c0.1,0.1,0.2,0.2,0.2,0.4c0,0.2-0.1,0.6-0.3,1.2c-0.2,0.6-0.3,0.9-0.3,1
				c0,0,0,0.1,0,0.1c0,0,0,0,0.1,0c0.1,0,0.2-0.1,0.3-0.2c0.1-0.1,0.1-0.2,0.2-0.3l0.2,0.1c-0.2,0.3-0.3,0.5-0.4,0.6
				c-0.2,0.2-0.4,0.3-0.6,0.3c-0.1,0-0.2,0-0.3-0.1c-0.1-0.1-0.1-0.2-0.1-0.3c0-0.1,0-0.2,0.1-0.4c0-0.2,0.1-0.4,0.2-0.6l0.3-1
				c0,0,0,0,0-0.1c0,0,0,0,0-0.1c0-0.1,0-0.1-0.1-0.1c0,0-0.1,0-0.1,0c-0.1,0-0.3,0.1-0.5,0.3c-0.2,0.2-0.3,0.4-0.4,0.7
				c-0.1,0.2-0.2,0.5-0.3,0.7c-0.1,0.2-0.2,0.6-0.3,1H72.3z"/>
			<path class="st34" d="M76.5,61.2c-0.1-0.1-0.2-0.2-0.2-0.3c0-0.1,0-0.2,0.1-0.3c0.1-0.1,0.3-0.2,0.5-0.3
				c-0.2-0.1-0.3-0.2-0.4-0.3c-0.1-0.1-0.1-0.3-0.1-0.5c0-0.3,0.1-0.6,0.4-0.8c0.3-0.3,0.6-0.4,1.1-0.4c0.2,0,0.4,0,0.6,0.1
				c0.2,0.1,0.2,0.1,0.2,0.1h0.8v0.4H79c0,0.1,0,0.1,0,0.2c0,0,0,0.1,0,0.1c0,0.3-0.1,0.6-0.4,0.9c-0.3,0.2-0.6,0.4-1.1,0.4
				c-0.1,0-0.2,0-0.4,0c0,0-0.1,0-0.1,0.1c0,0.1-0.1,0.1-0.1,0.1c0,0.1,0.1,0.1,0.2,0.2c0.1,0,0.1,0.1,0.2,0.1l0.4,0.1
				c0.3,0.1,0.6,0.2,0.7,0.3c0.2,0.1,0.3,0.4,0.3,0.6c0,0.3-0.2,0.5-0.5,0.7c-0.3,0.2-0.7,0.3-1.1,0.3c-0.3,0-0.6,0-0.8-0.1
				c-0.4-0.1-0.6-0.3-0.6-0.6c0-0.2,0.1-0.4,0.3-0.5c0.1-0.1,0.3-0.1,0.6-0.2C76.6,61.3,76.5,61.3,76.5,61.2z M77.9,61.8
				c-0.1-0.1-0.2-0.1-0.3-0.2c-0.1,0-0.2-0.1-0.4-0.1c-0.2-0.1-0.3-0.1-0.3-0.1c0,0-0.1,0-0.3,0.1c-0.2,0.1-0.3,0.3-0.3,0.5
				c0,0.1,0,0.2,0.1,0.3c0.1,0.2,0.4,0.2,0.7,0.2c0.2,0,0.4,0,0.6-0.1c0.1-0.1,0.2-0.2,0.2-0.3C78,62,78,61.9,77.9,61.8z M78,59.7
				c0.1-0.3,0.2-0.6,0.2-0.8c0-0.1,0-0.2-0.1-0.3c0-0.1-0.1-0.1-0.2-0.1c-0.2,0-0.4,0.2-0.5,0.5c-0.1,0.3-0.2,0.6-0.2,0.8
				c0,0.1,0,0.2,0.1,0.3c0.1,0.1,0.1,0.1,0.2,0.1C77.7,60.1,77.9,60,78,59.7z"/>
			<path class="st34" d="M80.3,62.6c-0.1-0.1-0.2-0.2-0.2-0.4c0-0.1,0-0.2,0.1-0.3c0.1-0.1,0.2-0.1,0.2-0.1c0.1,0,0.2,0,0.2,0.1
				c0.1,0.1,0.1,0.1,0.1,0.3c0,0.1,0,0.1-0.1,0.2c0,0.1-0.1,0.1-0.1,0.1c0,0,0,0,0,0.1c0,0,0.1,0,0.1,0c0.2,0,0.3-0.1,0.4-0.4
				c0.1-0.3,0.3-1.1,0.6-2.4l0.3-1.2h-0.5l0.1-0.3h0.5c0-0.2,0.1-0.4,0.3-0.7c0.1-0.3,0.3-0.5,0.5-0.7c0.2-0.2,0.5-0.3,0.8-0.3
				c0.2,0,0.4,0,0.5,0.1c0.1,0.1,0.2,0.2,0.2,0.4c0,0.1,0,0.2-0.1,0.3c-0.1,0.1-0.2,0.1-0.2,0.1c-0.1,0-0.2,0-0.2-0.1
				c-0.1-0.1-0.1-0.1-0.1-0.2c0-0.1,0-0.1,0.1-0.2c0-0.1,0.1-0.1,0.1-0.1c0,0,0,0,0-0.1c0,0,0,0-0.1,0c-0.1,0-0.2,0.1-0.3,0.3
				c-0.1,0.2-0.2,0.4-0.3,0.8L83,58.3h0.6l-0.1,0.3h-0.6c-0.3,1.6-0.6,2.7-0.8,3.2c-0.3,0.7-0.7,1.1-1.3,1.1
				C80.6,62.8,80.5,62.8,80.3,62.6z"/>
			<path class="st34" d="M86.3,58.4c0.3,0.2,0.5,0.5,0.5,0.9c0,0.5-0.2,1-0.6,1.4c-0.4,0.5-0.9,0.8-1.4,0.8c-0.3,0-0.5-0.1-0.8-0.2
				c-0.2-0.2-0.4-0.4-0.4-0.8c0-0.5,0.2-1,0.6-1.4c0.4-0.5,0.9-0.8,1.4-0.8C85.9,58.2,86.1,58.3,86.3,58.4z M84.6,61.1
				c0.1,0.1,0.2,0.2,0.3,0.2c0.3,0,0.5-0.3,0.8-1c0.2-0.6,0.3-1,0.3-1.4c0-0.1,0-0.2,0-0.3c-0.1-0.1-0.1-0.2-0.3-0.2
				c-0.3,0-0.6,0.4-0.8,1.1c-0.2,0.5-0.3,1-0.3,1.3C84.5,60.9,84.5,61,84.6,61.1z"/>
			<path class="st34" d="M87,61.4c0.2-0.7,0.3-1.2,0.5-1.7c0.1-0.5,0.2-0.8,0.2-0.9c0-0.1,0-0.1-0.1-0.2c-0.1,0-0.2,0-0.3,0v-0.2
				c0.3,0,0.5,0,0.7-0.1c0.1,0,0.4-0.1,0.7-0.1l-0.4,1.2l0,0c0.2-0.4,0.4-0.7,0.5-0.8c0.2-0.3,0.4-0.4,0.6-0.4c0.1,0,0.2,0,0.3,0.1
				c0.1,0.1,0.1,0.2,0.1,0.3c0,0.1,0,0.3-0.1,0.4c-0.1,0.1-0.2,0.2-0.3,0.2c-0.1,0-0.1,0-0.2,0c0,0-0.1-0.1-0.1-0.1l-0.1-0.1
				c0,0,0,0,0,0c0,0,0,0,0,0c-0.1,0-0.2,0.1-0.3,0.4c-0.1,0.2-0.3,0.5-0.4,0.7c-0.1,0.2-0.2,0.4-0.2,0.7c-0.1,0.3-0.2,0.5-0.2,0.7
				H87z"/>
			<path class="st34" d="M91.5,60.8c0-0.1,0-0.2,0.1-0.4l0.5-1.9h-0.4v-0.2c0.2-0.1,0.4-0.2,0.6-0.3c0.3-0.2,0.5-0.4,0.7-0.7h0.2
				l-0.3,1h0.5v0.3h-0.6l-0.4,1.6c0,0.1-0.1,0.3-0.1,0.4c0,0.2-0.1,0.3-0.1,0.3c0,0,0,0.1,0,0.1c0,0,0,0,0.1,0
				c0.1,0,0.1-0.1,0.3-0.2c0.1-0.1,0.2-0.2,0.3-0.4l0.2,0.1c-0.2,0.3-0.4,0.5-0.5,0.6c-0.2,0.2-0.4,0.3-0.7,0.3
				c-0.1,0-0.2,0-0.3-0.1c-0.1-0.1-0.1-0.2-0.1-0.3C91.5,60.9,91.5,60.9,91.5,60.8z"/>
			<path class="st34" d="M93.4,61.4l1.1-3.9c0,0,0-0.1,0-0.2c0-0.1,0-0.1,0-0.1c0-0.1,0-0.2-0.1-0.2c-0.1,0-0.2,0-0.3,0v-0.2
				c0.3,0,0.6-0.1,0.7-0.1c0.1,0,0.4-0.1,0.8-0.1l-0.7,2.8l0,0c0,0,0,0,0-0.1c0-0.1,0.1-0.2,0.2-0.3c0.2-0.3,0.4-0.5,0.6-0.6
				c0.2-0.2,0.4-0.2,0.6-0.2c0.2,0,0.3,0,0.4,0.1c0.1,0.1,0.1,0.2,0.1,0.4c0,0.1,0,0.1,0,0.2c0,0.1-0.1,0.2-0.1,0.4l-0.5,1.4
				c0,0,0,0,0,0.1c0,0,0,0.1,0,0.1c0,0,0,0,0.1,0c0.1,0,0.2-0.1,0.3-0.2c0.1-0.1,0.1-0.2,0.2-0.4l0.2,0.1c-0.2,0.3-0.4,0.5-0.5,0.7
				c-0.2,0.2-0.4,0.3-0.6,0.3c-0.1,0-0.2,0-0.3-0.1c-0.1-0.1-0.1-0.2-0.1-0.3c0-0.1,0-0.2,0.1-0.4c0-0.2,0.1-0.4,0.2-0.6l0.3-1
				c0,0,0,0,0,0c0,0,0,0,0,0c0-0.1,0-0.1-0.1-0.1c0,0-0.1,0-0.1,0c-0.1,0-0.3,0.1-0.5,0.3c-0.2,0.2-0.3,0.4-0.4,0.6
				c-0.1,0.2-0.2,0.5-0.3,0.8c-0.1,0.2-0.2,0.5-0.3,0.9H93.4z"/>
			<path class="st34" d="M97.9,58.9c0.4-0.5,0.9-0.7,1.4-0.7c0.2,0,0.4,0.1,0.5,0.2c0.1,0.1,0.2,0.3,0.2,0.4c0,0.3-0.2,0.6-0.5,0.8
				c-0.3,0.3-0.8,0.4-1.3,0.5c0,0.1,0,0.1,0,0.2c0,0.1,0,0.1,0,0.1c0,0.1,0,0.3,0.1,0.3c0.1,0.2,0.2,0.2,0.4,0.2
				c0.2,0,0.3-0.1,0.5-0.3c0.1-0.1,0.2-0.2,0.3-0.4l0.2,0.1c-0.2,0.3-0.3,0.5-0.5,0.6c-0.2,0.2-0.5,0.3-0.9,0.3
				c-0.2,0-0.5-0.1-0.7-0.3c-0.2-0.2-0.3-0.4-0.3-0.8C97.3,59.9,97.5,59.4,97.9,58.9z M99.4,58.5c0-0.1-0.1-0.1-0.2-0.1
				c-0.2,0-0.3,0.1-0.5,0.4c-0.2,0.3-0.3,0.6-0.4,1.1c0.4-0.1,0.7-0.3,0.8-0.5c0.2-0.3,0.2-0.5,0.2-0.7
				C99.4,58.6,99.4,58.6,99.4,58.5z"/>
			<path class="st34" d="M102.6,59c0.4-0.5,0.8-0.8,1.3-0.8c0.2,0,0.3,0.1,0.4,0.2c0,0.1,0.1,0.2,0.1,0.3l0.1-0.4l0.7-0.1l-0.5,1.6
				c-0.1,0.2-0.1,0.4-0.1,0.5c-0.1,0.2-0.1,0.4-0.1,0.5c0,0,0,0.1,0,0.1c0,0,0,0,0.1,0c0,0,0.1,0,0.1,0c0,0,0.1-0.1,0.1-0.1
				c0,0,0.1-0.1,0.1-0.1c0.1-0.1,0.1-0.1,0.1-0.2l0.1,0.1c-0.2,0.3-0.4,0.5-0.5,0.6c-0.2,0.2-0.3,0.2-0.5,0.2c-0.1,0-0.2,0-0.3-0.1
				c-0.1-0.1-0.1-0.2-0.1-0.3c0-0.1,0-0.2,0.1-0.4c0,0,0,0,0,0c0,0-0.1,0.1-0.1,0.2c-0.1,0.2-0.3,0.3-0.4,0.5
				c-0.2,0.1-0.3,0.2-0.6,0.2c-0.2,0-0.4-0.1-0.5-0.2c-0.2-0.1-0.2-0.4-0.2-0.7C102,60.1,102.2,59.5,102.6,59z M104.2,58.6
				c0-0.1-0.1-0.2-0.2-0.2c-0.2,0-0.5,0.3-0.8,0.9c-0.2,0.5-0.3,0.9-0.3,1.2c0,0.1,0,0.2,0.1,0.3c0.1,0.1,0.1,0.1,0.2,0.1
				c0.2,0,0.5-0.3,0.8-0.9c0.2-0.5,0.3-0.9,0.3-1.2C104.2,58.8,104.2,58.7,104.2,58.6z"/>
			<path class="st34" d="M105.6,61.4l0.6-2.2c0-0.1,0-0.2,0.1-0.2c0-0.1,0-0.2,0-0.2c0-0.1,0-0.1-0.1-0.2c-0.1,0-0.2,0-0.3,0v-0.2
				c0.3,0,0.5,0,0.7-0.1c0.2,0,0.4-0.1,0.7-0.1l-0.4,1.3l0,0c0,0,0.1-0.1,0.2-0.3c0.1-0.2,0.3-0.4,0.4-0.5c0.1-0.1,0.3-0.2,0.4-0.3
				c0.1-0.1,0.3-0.1,0.5-0.1c0.1,0,0.3,0,0.4,0.1c0.1,0.1,0.2,0.2,0.2,0.4c0,0.2-0.1,0.6-0.3,1.2c-0.2,0.6-0.3,0.9-0.3,1
				c0,0,0,0.1,0,0.1c0,0,0,0,0.1,0c0.1,0,0.2-0.1,0.3-0.2c0.1-0.1,0.1-0.2,0.2-0.3l0.2,0.1c-0.2,0.3-0.3,0.5-0.4,0.6
				c-0.2,0.2-0.4,0.3-0.7,0.3c-0.1,0-0.2,0-0.3-0.1c-0.1-0.1-0.1-0.2-0.1-0.3c0-0.1,0-0.2,0.1-0.4c0-0.2,0.1-0.4,0.2-0.6l0.3-1
				c0,0,0,0,0-0.1c0,0,0,0,0-0.1c0-0.1,0-0.1-0.1-0.1c0,0-0.1,0-0.1,0c-0.1,0-0.3,0.1-0.5,0.3c-0.2,0.2-0.3,0.4-0.4,0.7
				c-0.1,0.2-0.2,0.5-0.3,0.7c-0.1,0.2-0.2,0.6-0.3,1H105.6z"/>
			<path class="st34" d="M109.7,61.2c-0.1-0.1-0.2-0.2-0.2-0.3c0-0.1,0-0.2,0.1-0.3c0.1-0.1,0.3-0.2,0.5-0.3
				c-0.2-0.1-0.3-0.2-0.4-0.3c-0.1-0.1-0.1-0.3-0.1-0.5c0-0.3,0.1-0.6,0.4-0.8c0.3-0.3,0.6-0.4,1.1-0.4c0.2,0,0.4,0,0.6,0.1
				c0.2,0.1,0.2,0.1,0.2,0.1h0.8v0.4h-0.5c0,0.1,0,0.1,0,0.2c0,0,0,0.1,0,0.1c0,0.3-0.1,0.6-0.4,0.9c-0.3,0.2-0.6,0.4-1.1,0.4
				c-0.1,0-0.2,0-0.4,0c0,0-0.1,0-0.1,0.1c0,0.1-0.1,0.1-0.1,0.1c0,0.1,0.1,0.1,0.2,0.2c0.1,0,0.1,0.1,0.2,0.1l0.4,0.1
				c0.3,0.1,0.6,0.2,0.7,0.3c0.2,0.1,0.3,0.4,0.3,0.6c0,0.3-0.2,0.5-0.5,0.7c-0.3,0.2-0.7,0.3-1.1,0.3c-0.3,0-0.6,0-0.8-0.1
				c-0.4-0.1-0.6-0.3-0.6-0.6c0-0.2,0.1-0.4,0.3-0.5c0.1-0.1,0.3-0.1,0.6-0.2C109.8,61.3,109.8,61.3,109.7,61.2z M111.2,61.8
				c-0.1-0.1-0.2-0.1-0.3-0.2c-0.1,0-0.2-0.1-0.4-0.1c-0.2-0.1-0.3-0.1-0.3-0.1c0,0-0.1,0-0.3,0.1c-0.2,0.1-0.3,0.3-0.3,0.5
				c0,0.1,0,0.2,0.1,0.3c0.1,0.2,0.4,0.2,0.7,0.2c0.2,0,0.4,0,0.6-0.1c0.1-0.1,0.2-0.2,0.2-0.3C111.3,62,111.2,61.9,111.2,61.8z
				 M111.3,59.7c0.1-0.3,0.2-0.6,0.2-0.8c0-0.1,0-0.2-0.1-0.3c0-0.1-0.1-0.1-0.2-0.1c-0.2,0-0.4,0.2-0.5,0.5
				c-0.1,0.3-0.2,0.6-0.2,0.8c0,0.1,0,0.2,0.1,0.3c0.1,0.1,0.1,0.1,0.2,0.1C111,60.1,111.1,60,111.3,59.7z"/>
			<path class="st34" d="M113.5,58.9c0.4-0.5,0.9-0.7,1.4-0.7c0.2,0,0.4,0.1,0.5,0.2c0.1,0.1,0.2,0.3,0.2,0.4c0,0.3-0.2,0.6-0.5,0.8
				c-0.3,0.3-0.8,0.4-1.3,0.5c0,0.1,0,0.1,0,0.2c0,0.1,0,0.1,0,0.1c0,0.1,0,0.3,0.1,0.3c0.1,0.2,0.2,0.2,0.4,0.2
				c0.2,0,0.3-0.1,0.5-0.3c0.1-0.1,0.2-0.2,0.3-0.4l0.2,0.1c-0.2,0.3-0.3,0.5-0.5,0.6c-0.2,0.2-0.5,0.3-0.9,0.3
				c-0.2,0-0.5-0.1-0.7-0.3c-0.2-0.2-0.3-0.4-0.3-0.8C112.9,59.9,113.1,59.4,113.5,58.9z M114.9,58.5c0-0.1-0.1-0.1-0.2-0.1
				c-0.2,0-0.3,0.1-0.5,0.4c-0.2,0.3-0.3,0.6-0.4,1.1c0.4-0.1,0.7-0.3,0.8-0.5c0.2-0.3,0.2-0.5,0.2-0.7
				C115,58.6,115,58.6,114.9,58.5z"/>
			<path class="st34" d="M116,60.7c0-0.1,0-0.1,0.1-0.3l0.8-3c0-0.1,0-0.1,0-0.2c0,0,0-0.1,0-0.1c0-0.1,0-0.2-0.1-0.2
				c-0.1,0-0.2,0-0.3,0v-0.2c0.3,0,0.6-0.1,0.7-0.1c0.1,0,0.4-0.1,0.7-0.1l-1,3.6c0,0.2-0.1,0.3-0.1,0.3c0,0.2-0.1,0.3-0.1,0.3
				c0,0,0,0.1,0,0.1c0,0,0,0,0.1,0c0.1,0,0.2-0.1,0.3-0.2c0.1-0.1,0.2-0.2,0.3-0.4l0.2,0.1c-0.2,0.3-0.4,0.5-0.5,0.6
				c-0.2,0.2-0.4,0.3-0.7,0.3c-0.1,0-0.2,0-0.3-0.1c-0.1-0.1-0.1-0.2-0.1-0.3C116,60.9,116,60.8,116,60.7z"/>
			<path class="st34" d="M117.8,61.4l0.6-2.2c0-0.1,0.1-0.2,0.1-0.3c0-0.1,0-0.1,0-0.2c0-0.1,0-0.1-0.1-0.1c0,0-0.1,0-0.3,0v-0.2
				c0.3,0,0.5,0,0.7-0.1c0.1,0,0.3-0.1,0.7-0.1l-0.4,1.3l0,0c0.3-0.5,0.5-0.8,0.7-0.9c0.2-0.3,0.5-0.4,0.8-0.4c0.1,0,0.2,0,0.3,0.1
				c0.1,0.1,0.1,0.2,0.1,0.3c0,0.1,0,0.2-0.1,0.4c0,0.1-0.1,0.2-0.1,0.3c0.3-0.4,0.5-0.6,0.7-0.8c0.3-0.2,0.6-0.4,0.9-0.4
				c0.2,0,0.4,0.1,0.5,0.2c0.1,0.1,0.2,0.2,0.2,0.4c0,0.1,0,0.2-0.1,0.4c0,0,0,0.1-0.1,0.3l-0.4,1.1c0,0.1-0.1,0.1-0.1,0.2
				c0,0.1,0,0.1,0,0.1c0,0,0,0,0,0.1c0,0,0.1,0,0.1,0c0.1,0,0.2-0.1,0.3-0.2c0.1-0.1,0.1-0.2,0.2-0.3l0.2,0.1
				c-0.2,0.3-0.3,0.5-0.4,0.6c-0.2,0.2-0.4,0.3-0.7,0.3c-0.1,0-0.2,0-0.3-0.1c-0.1-0.1-0.2-0.2-0.2-0.3c0-0.1,0-0.3,0.1-0.5
				c0-0.1,0.1-0.3,0.2-0.5l0.3-1.1c0,0,0,0,0-0.1c0,0,0,0,0-0.1c0-0.1,0-0.1,0-0.1c0,0-0.1-0.1-0.1-0.1c-0.2,0-0.4,0.1-0.6,0.4
				c-0.2,0.2-0.4,0.5-0.6,0.7c-0.1,0.1-0.1,0.2-0.2,0.3c-0.1,0.1-0.2,0.5-0.4,1.2h-0.8l0.6-2.3c0-0.1,0-0.1,0-0.1c0,0,0-0.1,0-0.1
				c0-0.1,0-0.1,0-0.1c0,0-0.1,0-0.1,0c-0.1,0-0.2,0.1-0.4,0.3c-0.2,0.2-0.3,0.5-0.5,0.8c-0.1,0.2-0.2,0.4-0.3,0.7
				c-0.1,0.2-0.1,0.5-0.2,0.8H117.8z"/>
			<path class="st34" d="M123.7,59c0.4-0.5,0.8-0.8,1.3-0.8c0.2,0,0.3,0.1,0.4,0.2c0,0.1,0.1,0.2,0.1,0.3l0.1-0.4l0.7-0.1l-0.5,1.6
				c-0.1,0.2-0.1,0.4-0.1,0.5c-0.1,0.2-0.1,0.4-0.1,0.5c0,0,0,0.1,0,0.1c0,0,0,0,0.1,0c0,0,0.1,0,0.1,0c0,0,0.1-0.1,0.1-0.1
				c0,0,0.1-0.1,0.1-0.1c0.1-0.1,0.1-0.1,0.1-0.2l0.1,0.1c-0.2,0.3-0.4,0.5-0.5,0.6c-0.2,0.2-0.3,0.2-0.5,0.2c-0.1,0-0.2,0-0.3-0.1
				c-0.1-0.1-0.1-0.2-0.1-0.3c0-0.1,0-0.2,0.1-0.4c0,0,0,0,0,0c0,0-0.1,0.1-0.1,0.2c-0.1,0.2-0.3,0.3-0.4,0.5
				c-0.2,0.1-0.3,0.2-0.6,0.2c-0.2,0-0.4-0.1-0.5-0.2c-0.2-0.1-0.2-0.4-0.2-0.7C123.1,60.1,123.3,59.5,123.7,59z M125.3,58.6
				c0-0.1-0.1-0.2-0.2-0.2c-0.2,0-0.5,0.3-0.8,0.9c-0.2,0.5-0.3,0.9-0.3,1.2c0,0.1,0,0.2,0.1,0.3c0.1,0.1,0.1,0.1,0.2,0.1
				c0.2,0,0.5-0.3,0.8-0.9c0.2-0.5,0.3-0.9,0.3-1.2C125.4,58.8,125.4,58.7,125.3,58.6z"/>
			<path class="st34" d="M126.7,61.4l0.6-2.2c0-0.1,0-0.2,0.1-0.2c0-0.1,0-0.2,0-0.2c0-0.1,0-0.1-0.1-0.2c-0.1,0-0.2,0-0.3,0v-0.2
				c0.3,0,0.5,0,0.7-0.1c0.2,0,0.4-0.1,0.7-0.1l-0.4,1.3l0,0c0,0,0.1-0.1,0.2-0.3c0.1-0.2,0.3-0.4,0.4-0.5c0.1-0.1,0.3-0.2,0.4-0.3
				c0.1-0.1,0.3-0.1,0.5-0.1c0.1,0,0.3,0,0.4,0.1c0.1,0.1,0.2,0.2,0.2,0.4c0,0.2-0.1,0.6-0.3,1.2c-0.2,0.6-0.3,0.9-0.3,1
				c0,0,0,0.1,0,0.1c0,0,0,0,0.1,0c0.1,0,0.2-0.1,0.3-0.2c0.1-0.1,0.1-0.2,0.2-0.3l0.2,0.1c-0.2,0.3-0.3,0.5-0.4,0.6
				c-0.2,0.2-0.4,0.3-0.7,0.3c-0.1,0-0.2,0-0.3-0.1c-0.1-0.1-0.1-0.2-0.1-0.3c0-0.1,0-0.2,0.1-0.4c0-0.2,0.1-0.4,0.2-0.6l0.3-1
				c0,0,0,0,0-0.1c0,0,0,0,0-0.1c0-0.1,0-0.1-0.1-0.1c0,0-0.1,0-0.1,0c-0.1,0-0.3,0.1-0.5,0.3c-0.2,0.2-0.3,0.4-0.4,0.7
				c-0.1,0.2-0.2,0.5-0.3,0.7c-0.1,0.2-0.2,0.6-0.3,1H126.7z"/>
			<path class="st34" d="M132.3,61.4l0.6-2.2c0-0.1,0-0.2,0.1-0.2c0-0.1,0-0.2,0-0.2c0-0.1,0-0.1-0.1-0.2c-0.1,0-0.2,0-0.3,0v-0.2
				c0.3,0,0.5,0,0.7-0.1c0.2,0,0.4-0.1,0.7-0.1l-0.4,1.3l0,0c0,0,0.1-0.1,0.2-0.3c0.1-0.2,0.3-0.4,0.4-0.5c0.1-0.1,0.3-0.2,0.4-0.3
				c0.1-0.1,0.3-0.1,0.5-0.1c0.1,0,0.3,0,0.4,0.1c0.1,0.1,0.2,0.2,0.2,0.4c0,0.2-0.1,0.6-0.3,1.2c-0.2,0.6-0.3,0.9-0.3,1
				c0,0,0,0.1,0,0.1c0,0,0,0,0.1,0c0.1,0,0.2-0.1,0.3-0.2c0.1-0.1,0.1-0.2,0.2-0.3l0.2,0.1c-0.2,0.3-0.3,0.5-0.4,0.6
				c-0.2,0.2-0.4,0.3-0.6,0.3c-0.1,0-0.2,0-0.3-0.1c-0.1-0.1-0.1-0.2-0.1-0.3c0-0.1,0-0.2,0.1-0.4c0-0.2,0.1-0.4,0.2-0.6l0.3-1
				c0,0,0,0,0-0.1c0,0,0,0,0-0.1c0-0.1,0-0.1-0.1-0.1c0,0-0.1,0-0.1,0c-0.1,0-0.3,0.1-0.5,0.3c-0.2,0.2-0.3,0.4-0.4,0.7
				c-0.1,0.2-0.2,0.5-0.3,0.7c-0.1,0.2-0.2,0.6-0.3,1H132.3z"/>
			<path class="st34" d="M136.7,58.9c0.4-0.5,0.9-0.7,1.4-0.7c0.2,0,0.4,0.1,0.5,0.2c0.1,0.1,0.2,0.3,0.2,0.4c0,0.3-0.2,0.6-0.5,0.8
				c-0.3,0.3-0.8,0.4-1.3,0.5c0,0.1,0,0.1,0,0.2c0,0.1,0,0.1,0,0.1c0,0.1,0,0.3,0.1,0.3c0.1,0.2,0.2,0.2,0.4,0.2
				c0.2,0,0.3-0.1,0.5-0.3c0.1-0.1,0.2-0.2,0.3-0.4l0.2,0.1c-0.2,0.3-0.3,0.5-0.5,0.6c-0.2,0.2-0.5,0.3-0.9,0.3
				c-0.2,0-0.5-0.1-0.7-0.3c-0.2-0.2-0.3-0.4-0.3-0.8C136.1,59.9,136.3,59.4,136.7,58.9z M138.2,58.5c0-0.1-0.1-0.1-0.2-0.1
				c-0.2,0-0.3,0.1-0.5,0.4c-0.2,0.3-0.3,0.6-0.4,1.1c0.4-0.1,0.7-0.3,0.8-0.5c0.2-0.3,0.2-0.5,0.2-0.7
				C138.2,58.6,138.2,58.6,138.2,58.5z"/>
			<path class="st34" d="M139.2,60.8c0-0.1,0-0.2,0.1-0.4l0.5-1.9h-0.4v-0.2c0.2-0.1,0.4-0.2,0.6-0.3c0.3-0.2,0.5-0.4,0.7-0.7h0.2
				l-0.3,1h0.5v0.3h-0.6l-0.4,1.6c0,0.1-0.1,0.3-0.1,0.4c0,0.2-0.1,0.3-0.1,0.3c0,0,0,0.1,0,0.1c0,0,0,0,0.1,0
				c0.1,0,0.1-0.1,0.3-0.2c0.1-0.1,0.2-0.2,0.3-0.4l0.2,0.1c-0.2,0.3-0.4,0.5-0.5,0.6c-0.2,0.2-0.4,0.3-0.7,0.3
				c-0.1,0-0.2,0-0.3-0.1c-0.1-0.1-0.1-0.2-0.1-0.3C139.1,60.9,139.1,60.9,139.2,60.8z"/>
			<path class="st34" d="M141.8,61.5l0-0.6l0-0.5c0-0.3,0-0.5,0-0.6c0-0.2,0-0.5-0.1-0.7c0-0.2-0.1-0.4-0.1-0.4
				c-0.1,0-0.2-0.1-0.3-0.1v-0.2l0.2,0c0.2,0,0.4-0.1,0.6-0.1c0.2,0,0.2-0.1,0.2,0l0,0c0.1,0.1,0.1,0.3,0.1,0.6
				c0,0.3,0.1,0.5,0.1,0.6l0,0.7l0.5-1c0.1-0.2,0.2-0.3,0.3-0.5c0.1-0.2,0.2-0.3,0.3-0.4h0.2l0.2,2.3c0.2-0.3,0.4-0.5,0.5-0.7
				c0.2-0.3,0.3-0.5,0.3-0.6c0-0.1,0-0.2-0.1-0.3c-0.1-0.1-0.1-0.3-0.1-0.3c0-0.1,0-0.2,0.1-0.3c0.1-0.1,0.2-0.1,0.3-0.1
				c0.1,0,0.2,0,0.3,0.1c0.1,0.1,0.1,0.2,0.1,0.3c0,0.3-0.2,0.8-0.7,1.5c-0.3,0.4-0.7,0.8-1.1,1.3h-0.2c0-0.1,0-0.2,0-0.4
				c0-0.1,0-0.3,0-0.4c0-0.1,0-0.3,0-0.4l-0.1-0.6c-0.2,0.4-0.4,0.7-0.4,0.8c-0.2,0.3-0.3,0.5-0.3,0.6l-0.4,0.6H141.8z"/>
			<path class="st34" d="M148.3,58.4c0.3,0.2,0.5,0.5,0.5,0.9c0,0.5-0.2,1-0.6,1.4c-0.4,0.5-0.9,0.8-1.4,0.8c-0.3,0-0.5-0.1-0.8-0.2
				c-0.2-0.2-0.4-0.4-0.4-0.8c0-0.5,0.2-1,0.6-1.4c0.4-0.5,0.9-0.8,1.4-0.8C147.9,58.2,148.2,58.3,148.3,58.4z M146.6,61.1
				c0.1,0.1,0.2,0.2,0.3,0.2c0.3,0,0.5-0.3,0.8-1c0.2-0.6,0.3-1,0.3-1.4c0-0.1,0-0.2,0-0.3c-0.1-0.1-0.1-0.2-0.3-0.2
				c-0.3,0-0.6,0.4-0.8,1.1c-0.2,0.5-0.3,1-0.3,1.3C146.6,60.9,146.6,61,146.6,61.1z"/>
			<path class="st34" d="M149.1,61.4c0.2-0.7,0.3-1.2,0.5-1.7c0.1-0.5,0.2-0.8,0.2-0.9c0-0.1,0-0.1-0.1-0.2c-0.1,0-0.2,0-0.3,0v-0.2
				c0.3,0,0.5,0,0.7-0.1c0.1,0,0.4-0.1,0.7-0.1l-0.4,1.2l0,0c0.2-0.4,0.4-0.7,0.5-0.8c0.2-0.3,0.4-0.4,0.6-0.4c0.1,0,0.2,0,0.3,0.1
				c0.1,0.1,0.1,0.2,0.1,0.3c0,0.1,0,0.3-0.1,0.4c-0.1,0.1-0.2,0.2-0.3,0.2c-0.1,0-0.1,0-0.2,0c0,0-0.1-0.1-0.1-0.1l-0.1-0.1
				c0,0,0,0,0,0c0,0,0,0,0,0c-0.1,0-0.2,0.1-0.3,0.4c-0.1,0.2-0.3,0.5-0.4,0.7c-0.1,0.2-0.2,0.4-0.2,0.7c-0.1,0.3-0.2,0.5-0.2,0.7
				H149.1z"/>
			<path class="st34" d="M151.8,61.4l1.1-3.9c0-0.1,0-0.1,0-0.2c0,0,0-0.1,0-0.1c0-0.1,0-0.2-0.1-0.2c-0.1,0-0.2,0-0.3,0v-0.2
				c0.3,0,0.6-0.1,0.7-0.1c0.1,0,0.4-0.1,0.7-0.1l-0.9,3.2c0.3-0.2,0.5-0.4,0.7-0.5c0.3-0.3,0.4-0.4,0.4-0.6c0-0.1,0-0.1-0.1-0.1
				c-0.1,0-0.2,0-0.3,0v-0.2h1.4v0.2c-0.1,0-0.2,0-0.4,0.1c-0.1,0.1-0.3,0.2-0.6,0.4l-0.2,0.2c-0.1,0.1-0.1,0.1-0.2,0.1
				c0,0-0.1,0,0,0c0,0,0,0.1,0.1,0.4c0,0.2,0.1,0.4,0.1,0.5c0.1,0.3,0.1,0.5,0.2,0.6c0,0.1,0.1,0.1,0.2,0.1c0.1,0,0.2,0,0.2-0.1
				c0-0.1,0.1-0.2,0.2-0.3l0.2,0.1c-0.1,0.2-0.2,0.4-0.4,0.6c-0.2,0.2-0.3,0.3-0.5,0.3c-0.2,0-0.3-0.1-0.4-0.2
				c-0.1-0.1-0.2-0.2-0.2-0.4c-0.1-0.2-0.1-0.4-0.2-0.6c0-0.2-0.1-0.4-0.1-0.4l-0.3,0.2l-0.3,1.3H151.8z"/>
		</g>
		<polygon class="st35" points="102.4,31.6 78.5,5.2 1.6,5.3 5.6,9.6 72.7,9.6 92.4,31.6 		"/>
		<polygon class="st30" points="124.6,6.2 100.8,32.6 110.7,32.6 130.5,10.6 190.9,10.6 194.9,6.3 		"/>
		<polygon class="st35" points="124.6,5.2 100.8,31.6 110.7,31.6 130.5,9.6 197.6,9.6 201.6,5.3 		"/>
		<g>
			<linearGradient id="SVGID_31_" gradientUnits="userSpaceOnUse" x1="103.3447" y1="5.7428" x2="101.6977" y2="42.629">
				<stop  offset="0" style="stop-color:#64CADF"/>
				<stop  offset="1" style="stop-color:#03686B"/>
			</linearGradient>
			<path class="st36" d="M96.1,5.4h11.2l13.3,34.4h-10.1l-2.6-7.4H95.1l-2.7,7.4H83L96.1,5.4z M101.7,12.5L101.7,12.5L97.2,26h8.6
				L101.7,12.5z"/>
		</g>
		<polygon class="st37" points="104.4,24.8 98.8,24.8 97.2,26 105.8,26 		"/>
	</g>
</g>
</svg>
