<?xml version="1.0" encoding="utf-8"?>
<!-- Generator: Adobe Illustrator 22.0.1, SVG Export Plug-In . SVG Version: 6.00 Build 0)  -->
<svg version="1.1" xmlns="http://www.w3.org/2000/svg" xmlns:xlink="http://www.w3.org/1999/xlink" x="0px" y="0px"
	 viewBox="0 0 198.4 141.7" style="enable-background:new 0 0 198.4 141.7;" xml:space="preserve">
<style type="text/css">
	.st0{fill:#9DA6AB;}
	.st1{fill:url(#SVGID_1_);}
	.st2{fill:url(#SVGID_2_);}
</style>
<g id="Layer_1">
</g>
<g id="Layer_2">
	<g>
		<g>
			<path class="st0" d="M34.5,105.3L34.5,105.3l-2.1,11.6h-2.3l3.6-18.3l6,13.8l6-13.8l3.6,18.3h-2.3l-2-11.6h0l-5.3,12L34.5,105.3z
				"/>
			<path class="st0" d="M68.5,108.1c0,5.2-4.1,9.1-9.2,9.1c-5.1,0-9.2-3.9-9.2-9.1c0-5,4.2-9.1,9.2-9.1
				C64.3,99,68.5,103.1,68.5,108.1z M66.3,108.1c0-3.9-2.9-7.1-7-7.1c-4.1,0-7,3.2-7,7.1c0,4,3.2,7.1,7,7.1
				C63.1,115.2,66.3,112.1,66.3,108.1z"/>
			<path class="st0" d="M81.5,116.9h-2.7l-5.2-7.4h-0.9v7.4h-2.2V99.3h2.7c1.6,0,3.2,0,4.6,0.8c1.5,0.9,2.3,2.5,2.3,4.2
				c0,2.5-1.7,4.6-4.2,4.9L81.5,116.9z M72.8,107.7h0.7c2.2,0,4.7-0.4,4.7-3.2c0-2.7-2.6-3.1-4.8-3.1h-0.6V107.7z"/>
			<path class="st0" d="M87.5,116.9h-2.2v-15.5h-4.2v-2h10.5v2h-4.2V116.9z"/>
			<path class="st0" d="M109.4,108v0.7c0,4.8-3.4,8.5-8.3,8.5c-4.9,0-8.9-4.2-8.9-9.1c0-5,4.1-9.2,9.1-9.2c2.7,0,5.4,1.2,7.1,3.4
				l-1.5,1.5c-1.3-1.7-3.4-2.9-5.5-2.9c-3.9,0-7,3.2-7,7.1c0,3.7,3,7.2,6.8,7.2c2.7,0,5.7-2.3,5.7-5.2h-4.5v-2H109.4z"/>
			<path class="st0" d="M114,112.5l-2,4.4h-2.3l8.4-18.3l8.4,18.3h-2.3l-2-4.4H114z M118,103.4l-3.1,7.1h6.2L118,103.4z"/>
			<path class="st0" d="M143.9,108v0.7c0,4.8-3.4,8.5-8.3,8.5c-4.9,0-8.9-4.2-8.9-9.1c0-5,4.1-9.2,9.1-9.2c2.7,0,5.4,1.2,7.1,3.4
				l-1.5,1.5c-1.3-1.7-3.4-2.9-5.5-2.9c-3.9,0-7,3.2-7,7.1c0,3.7,3,7.2,6.8,7.2c2.7,0,5.7-2.3,5.7-5.2h-4.5v-2H143.9z"/>
			<path class="st0" d="M146,99.3h9.4v2h-7.2v4.9h7v2h-7v6.6h7.2v2H146V99.3z"/>
			<path class="st0" d="M165.9,102.7c-0.7-1.1-1.5-1.7-2.8-1.7c-1.4,0-2.9,1-2.9,2.5c0,1.4,1.4,2.1,2.4,2.5l1.3,0.5
				c2.5,1,4.4,2.4,4.4,5.3c0,3.2-2.5,5.5-5.6,5.5c-2.8,0-5-2.1-5.4-4.9l2.2-0.5c0,1.9,1.5,3.3,3.4,3.3c1.9,0,3.2-1.6,3.2-3.4
				c0-1.9-1.5-2.7-3-3.3l-1.2-0.5c-2-0.9-3.8-2-3.8-4.4c0-2.8,2.5-4.5,5.2-4.5c2,0,3.6,1,4.5,2.7L165.9,102.7z"/>
		</g>
		<g>
			<radialGradient id="SVGID_1_" cx="142.4217" cy="44.7274" r="45.5451" gradientUnits="userSpaceOnUse">
				<stop  offset="0" style="stop-color:#0061AC"/>
				<stop  offset="1" style="stop-color:#2F2E79"/>
			</radialGradient>
			<path class="st1" d="M133.6,24.5c-17.8,0-34.1,13.1-34.1,31.8c0,20,14.3,34.1,34.1,34.1c19.8,0,34.2-14.1,34.2-34.1
				C167.7,37.6,151.3,24.5,133.6,24.5z M125.3,75.1V39.6l26.5,17.7L125.3,75.1z"/>
			<radialGradient id="SVGID_2_" cx="77.5115" cy="46.276" r="44.2908" gradientUnits="userSpaceOnUse">
				<stop  offset="0" style="stop-color:#0061AC"/>
				<stop  offset="1" style="stop-color:#2F2E79"/>
			</radialGradient>
			<path class="st2" d="M95.3,53.8c-0.2,9-0.8,16.7-6.3,24.4c-6.1,8.4-15.2,12.1-25.5,12.1c-19.4,0-32.9-13.2-32.9-32.6
				c0-20.1,13.6-33.2,33.5-33.2c12.7,0,22.5,5.7,27.8,17.3l-15.2,6.4c-2.2-5.9-6.9-9.8-13.3-9.8c-10.6,0-16.1,10.1-16.1,19.5
				c0,9.6,5.7,19.3,16.3,19.3c7,0,12.3-3.6,12.9-10.7H63.4V53.8H95.3z"/>
		</g>
	</g>
</g>
</svg>
