<?xml version="1.0" encoding="utf-8"?>
<!-- Generator: Adobe Illustrator 22.0.1, SVG Export Plug-In . SVG Version: 6.00 Build 0)  -->
<svg version="1.1" id="Layer_1" xmlns="http://www.w3.org/2000/svg" xmlns:xlink="http://www.w3.org/1999/xlink" x="0px" y="0px"
	 viewBox="0 0 283 168.5" style="enable-background:new 0 0 283 168.5;" xml:space="preserve">
<style type="text/css">
	.st0{fill:#4D2C0B;}
</style>
<g id="Layer_1_1_">
</g>
<g id="Layer_2_1_">
	<g>
		<path class="st0" d="M16.5,95.1l-1.9,4.4l8.8,20.3l-7.1,3.3l-6.1-17.6c0,0-2.9,4.2-3.7,4.5c-0.5-4.7-0.3-8.9,0.5-12.2
			C8.8,90.1,12.6,86,12.6,86L16.5,95.1L16.5,95.1z"/>
		<polygon class="st0" points="147.7,62.9 155.9,83 170.8,76.1 162.9,56.9 		"/>
		<polygon class="st0" points="205.6,40.2 184,48.6 192.2,66.1 211.6,57 		"/>
		<path class="st0" d="M21.6,78.4c0,0,3.5-1.9,5.7-2.4c0.3,0.6,14.2,36.7,14.2,36.7l-4.9,2.2L30,98.8l-3.8,1.6l6.6,16.1l-5.7,2.4
			c-8-20.2-12.3-32.7-12.8-34c0.7-1.6,3.8-4.4,3.8-4.4l6,14.6l3.9-2.4L21.6,78.4z"/>
		<path class="st0" d="M29.5,74.9c3.9-1.1,13.1-2.5,13.1-2.5l2.7,6.5l-7,1.3l2.3,8.2l7.4-2.4l2.5,6L43.2,95l3.3,7l6.6-4.1l3.6,8.8
			l-13,5.3c0,0-3.5-8.1-7.1-17.1C33.4,86.7,30.3,77.5,29.5,74.9z"/>
		<path class="st0" d="M50.8,71.8c2.6-0.2,7,0.4,7,0.4L60.9,84l3.6,8.8l5.7-3.4l4.9,9.7l-13.7,5.6c0,0-3.5-9.3-6.7-18
			C51.9,79.2,51,72.2,50.8,71.8z"/>
		<path class="st0" d="M84,96.1c-5.2,2.1-10-0.9-13.4-9.1c-4.1-10.1-2.1-13.7,3.1-15.9s9.7-0.1,13.4,9.1C90.6,88.4,89.2,94,84,96.1z
			 M81.6,90.3c2.2-0.9,0.6-5-0.4-7.6c-1.4-3.5-2.9-6.6-5-5.7c-2.1,0.9-1.4,3.3,0.4,7.6C77.6,87.1,79.6,91.2,81.6,90.3z"/>
		<path class="st0" d="M96.6,67.2c-1.4,0-2.7,0.2-4.4,0.9c-0.9,0.4-2.5,1-1.8,2.8c2.8,6.5,7.9-3,12.2,7.2c2.9,7.1,0.9,9.9-3.7,11.9
			c-2.2,0.9-4.8,1.3-7.7,1.2l0.1-6.9c2,0.5,2.2,0.4,4-0.3c1.4-0.6,2.4-1.5,1.8-2.9c-2.3-5.2-8,2.9-12.2-7.4
			c-3-7.3,0.7-10.3,4.2-11.8c1.6-0.6,2.9-1,4.7-1L96.6,67.2z"/>
		<path class="st0" d="M110.7,62.6l-3,1.2l8.6,18.3l-6.8,2.8l-7.4-18.8l-3.9,1.3L94.7,60c0,0,2.9-1.2,7.9-0.8
			C107.6,59.5,110.7,62.6,110.7,62.6z"/>
		<path class="st0" d="M42.7,155.6c-1,1.2-2.6,2.7-4.3,3.4c-3.8,1.5-8.2-1.2-10.6-3.3c-2.1-1.7-4.8-4.4-7.6-10.5
			c-6.2-14.2-2.1-19.4,3.5-21.7c1.9-0.8,3.2-0.8,5.3-0.9l3.7,9.1c-1.4-0.2-2.8-0.4-4,0.1c-2.9,1.2-6.2,2.6-2.2,10.7
			c2.9,5.7,6.3,8,9.1,6.9c1.2-0.5,2.2-1.4,3.2-2.8L42.7,155.6L42.7,155.6z"/>
		<path class="st0" d="M41.4,117.1l5.8-2.4c0,0,4.7,10.6,9.2,21.2c4.6,10.3,9,20.7,9.2,21.1c-2,1.4-6.5,3.4-6.5,3.4L51.7,143
			l-3.4,0.9c0,0,5.8,17.2,6.1,17.9c-3.6,1-7.5,1-7.5,1l-8-22.1l-7.9-19.3l6.2-2.1l6.7,15.1l4.4-1.2L41.4,117.1z"/>
		<path class="st0" d="M77.5,149c-0.3,0.3-2.4,1.8-2.7,2.1c-4.7,3.3-11.6-4.4-17.2-17.2c-3.1-7.2-4.5-12.4-4.4-16.2
			c0-4.7,2.2-7.2,5.7-8.6c6.2-2.5,12.9,3.3,18.4,16.8c3.8,9.3,5.5,17.2,2.9,20.5C79.8,146.9,79,147.6,77.5,149z M71.9,141
			c3.1-1.6,0.8-8.2-0.9-12.6c-1.5-3.7-5.6-10.8-8.2-9.7c-3.1,1.3-2.4,3.7,1.3,12.7C65.9,135.8,68.9,142.6,71.9,141z"/>
		<path class="st0" d="M69.6,105.5l10.4-4.2c4.3-1.7,8.3-1.4,11.8,6.5c2.4,5.6,1.8,9.1-0.3,11.5l0,0.1c1.7-0.1,3.1,1.1,4.6,2.7
			c1.6,2,2.8,4.5,4.1,7.2c-3.3,0.8-5,2.1-6.6,3.1c-1-2.2-2-4-2.8-5.1c-1.1-1.5-1.9-1.4-2.7-1.1l-1.5,0.6l3.6,8.7l-5.2,6.5
			c0,0-5.2-15.6-6-17.8C78.1,122.1,69.6,105.5,69.6,105.5z M83,118.7l1.8-0.7c1.4-0.6,4.5-2.6,2.3-7.1c-1.6-3.3-4-4.1-5.4-3.5
			l-3.4,1.7L83,118.7z"/>
		<path class="st0" d="M89.3,97.4l10-4c5.1-2.1,9.9-0.3,15.5,13.2c5.2,12.6,2.9,18.3-2.2,20.2c-2.9,1.2-7.5,1.1-10.5,2
			c-0.2-0.5-2.7-7.1-5.4-14.2C93.6,106.2,89.3,97.4,89.3,97.4z M105.5,119.6l2.5-0.6c2.5-1,3.1-3.7,0.4-10.1
			c-2.9-6.6-4.9-8.8-7.3-7.8l-2.7,1.3l4.7,10.2L105.5,119.6z"/>
		<path class="st0" d="M127,90.5c-1.9-0.1-4.6-0.3-6.5,0.5c-1.1,0.5-2.7,2.1-1.7,3.8c2.8,4.9,5.8-0.3,10.4,2.4
			c2.8,1.6,4.5,4.9,4.6,9.9c0,4.2-3.6,7.5-5.6,8.4c-2.6,1.1-5.2,1.6-8.2,1.3l-1.5-7.2c2.3,0.4,3.5,0.2,5.6-0.7
			c1.6-0.6,2.7-1.8,2.3-3.2c-2.4-6.3-9.5,3.5-14.1-7.7c-3.3-8,1.3-11.4,5.2-13.1c1.9-0.8,4.1-1.3,6.2-1.4L127,90.5z"/>
		<path class="st0" d="M268.9,22.5c-5.2-1.4-10.2-13.5-10.2-13.5s-35.2,18.8-41.2,21.5c-1.1,2.6-8.8,8.3-8.8,8.3l6.7,16.4l0.3-0.1
			c0,0,9.5-1.4,12.1-0.3c6.3-2.3,44.4-15.7,44.4-15.7s-5.6-11-2.9-15.8C270,22.5,269,22.5,268.9,22.5z M220.7,38.3
			c-0.7-1.5-0.4-3.2,0.8-3.9l33.4-17.2c1.3-0.6,2.8,0,3.7,1.5c0.7,1.5,0.4,3.2-0.8,3.9l-33.4,17.2C223.1,40.5,221.4,39.8,220.7,38.3
			z M264.2,37l-35.6,12.3c-1.3,0.4-2.8-0.3-3.3-1.8c-0.6-1.4,0.1-3,1.4-3.4l35.6-12.3c1.3-0.4,2.8,0.3,3.3,1.8
			C266.1,35,265.5,36.6,264.2,37z"/>
		<g>
			<path class="st0" d="M224.2,25l-0.6-1.6c0,0-3.8,1.2-4.5-0.3c-0.6-1.6-2.2-5.3,1.8-6.9s5.8,0.9,6.8,2.6c1,1.7-2.2,3.4-2.2,3.4
				l1,1.7L224.2,25L224.2,25z"/>
			<path class="st0" d="M236,53.7l0.6,1.6c0,0-3.6,1.8-2.9,3.4c0.6,1.6,2.2,5.3,6.1,3.6s3.5-4.7,3-6.6c-0.5-2-3.9-0.9-3.9-0.9
				l-0.5-2L236,53.7L236,53.7z"/>
			<path class="st0" d="M244.5,15.2l-1.1-2.1c0,0-3.8,1.2-4.5-0.3c-0.6-1.6-2.2-5.3,1.8-6.9c4-1.6,5.8,0.9,6.8,2.6
				c1,1.7-2.2,3.4-2.2,3.4l1,1.7L244.5,15.2z"/>
			<path class="st0" d="M257.2,46.8l0.6,1.6c0,0-3.6,1.8-2.9,3.4c0.6,1.6,2.2,5.3,6.1,3.6s3.5-4.7,3-6.6c-0.5-2-3.9-0.9-3.9-0.9
				l-0.5-2L257.2,46.8L257.2,46.8z"/>
			
				<rect x="229.1" y="31.4" transform="matrix(0.8955 -0.4451 0.4451 0.8955 9.2035 105.9575)" class="st0" width="2.1" height="3.9"/>
			
				<rect x="249.5" y="21" transform="matrix(0.8954 -0.4452 0.4452 0.8954 16.0073 113.9221)" class="st0" width="2.1" height="3.7"/>
			<polygon class="st0" points="232.8,42.8 235.3,42 236.5,45.4 234,46.6 			"/>
			
				<rect x="254.5" y="35.1" transform="matrix(0.9378 -0.3473 0.3473 0.9378 3.0499 91.0731)" class="st0" width="2.1" height="3.9"/>
		</g>
		<path class="st0" d="M181.5,49.6l-15.5,6.2l7.4,19.2l16.1-7.5L181.5,49.6z M178.2,63.7c-0.7,0.3-1.7-0.1-2-0.8
			c-0.3-0.7,0.1-1.7,0.8-2c0.7-0.3,1.7,0.1,2,0.8C179.3,62.5,178.9,63.4,178.2,63.7z"/>
		<g>
			<polygon class="st0" points="130.7,69.6 122.2,73 131.5,94.4 138.9,91 			"/>
			<polygon class="st0" points="141.9,89.6 153.5,84.2 144.7,64.2 133.3,68.6 			"/>
		</g>
	</g>
</g>
</svg>
