<?xml version="1.0" encoding="utf-8"?>
<!-- Generator: Adobe Illustrator 22.0.1, SVG Export Plug-In . SVG Version: 6.00 Build 0)  -->
<svg version="1.1" id="Layer_2" xmlns="http://www.w3.org/2000/svg" xmlns:xlink="http://www.w3.org/1999/xlink" x="0px" y="0px"
	 viewBox="0 0 404.6 691.9" style="enable-background:new 0 0 404.6 691.9;" xml:space="preserve">
<style type="text/css">
	.st0{fill:url(#SVGID_1_);}
	.st1{fill:url(#SVGID_2_);}
	.st2{fill:url(#SVGID_3_);}
	.st3{fill:url(#SVGID_4_);}
	.st4{fill:url(#SVGID_5_);}
	.st5{fill:url(#SVGID_6_);}
	.st6{fill:url(#SVGID_7_);}
	.st7{fill:url(#SVGID_8_);}
	.st8{fill:url(#SVGID_9_);}
	.st9{fill:url(#SVGID_10_);}
	.st10{fill:url(#SVGID_11_);}
	.st11{fill:url(#SVGID_12_);}
	.st12{fill:url(#SVGID_13_);}
	.st13{fill:url(#SVGID_14_);}
	.st14{fill:url(#SVGID_15_);}
	.st15{fill:url(#SVGID_16_);}
	.st16{fill:url(#SVGID_17_);}
	.st17{fill:url(#SVGID_18_);}
	.st18{fill:url(#SVGID_19_);}
	.st19{fill:url(#SVGID_20_);}
	.st20{fill:url(#SVGID_21_);}
	.st21{fill:url(#SVGID_22_);}
	.st22{fill:url(#SVGID_23_);}
	.st23{fill:url(#SVGID_24_);}
	.st24{fill:url(#SVGID_25_);}
	.st25{fill:url(#SVGID_26_);}
	.st26{fill:url(#SVGID_27_);}
	.st27{fill:url(#SVGID_28_);}
	.st28{fill:url(#SVGID_29_);}
	.st29{fill:url(#SVGID_30_);}
	.st30{fill:url(#SVGID_31_);}
	.st31{fill:url(#SVGID_32_);}
	.st32{fill:url(#SVGID_33_);}
	.st33{fill:url(#SVGID_34_);}
	.st34{fill:url(#SVGID_35_);}
	.st35{fill:url(#SVGID_36_);}
	.st36{fill:url(#SVGID_37_);}
	.st37{fill:url(#SVGID_38_);}
	.st38{fill:url(#SVGID_39_);}
	.st39{fill:url(#SVGID_40_);}
	.st40{fill:url(#SVGID_41_);}
	.st41{fill:url(#SVGID_42_);}
	.st42{fill:#D3BE9B;}
	.st43{fill:url(#SVGID_43_);}
	.st44{fill:#2E3192;}
	.st45{fill:url(#SVGID_44_);}
	.st46{fill:url(#SVGID_45_);}
	.st47{fill:url(#SVGID_46_);}
	.st48{fill:url(#SVGID_47_);}
	.st49{fill:url(#SVGID_48_);}
	.st50{fill:url(#SVGID_49_);}
	.st51{fill:url(#SVGID_50_);}
	.st52{fill:url(#SVGID_51_);}
	.st53{fill:url(#SVGID_52_);}
	.st54{fill:url(#SVGID_53_);}
	.st55{fill:url(#SVGID_54_);}
	.st56{fill:url(#SVGID_55_);}
	.st57{fill:url(#SVGID_56_);}
</style>
<g>
	<g>
		<linearGradient id="SVGID_1_" gradientUnits="userSpaceOnUse" x1="204.6011" y1="180.7254" x2="390.8423" y2="180.7254">
			<stop  offset="0" style="stop-color:#D3BE9B"/>
			<stop  offset="1" style="stop-color:#E9D1AC"/>
		</linearGradient>
		<polygon class="st0" points="390.8,350.4 204.6,338.9 204.6,11 390.8,101 		"/>
		<linearGradient id="SVGID_2_" gradientUnits="userSpaceOnUse" x1="352.6375" y1="302.0219" x2="403.7616" y2="249.9616">
			<stop  offset="0" style="stop-color:#91816E"/>
			<stop  offset="1" style="stop-color:#B5A386"/>
		</linearGradient>
		<polyline class="st1" points="373.2,227.7 352.5,281 378.4,329.2 378.4,224.7 373.2,227.7 		"/>
		<linearGradient id="SVGID_3_" gradientUnits="userSpaceOnUse" x1="284.4019" y1="169.3214" x2="356.9053" y2="95.4902">
			<stop  offset="0" style="stop-color:#91816E"/>
			<stop  offset="1" style="stop-color:#B5A386"/>
		</linearGradient>
		<polygon class="st2" points="372.4,118.2 311,198 311,86.5 378.5,116.2 		"/>
		<g>
			<g>
				<linearGradient id="SVGID_4_" gradientUnits="userSpaceOnUse" x1="330.2508" y1="277.1833" x2="378.3058" y2="228.2482">
					<stop  offset="0" style="stop-color:#F15A29"/>
					<stop  offset="1" style="stop-color:#F7941D"/>
				</linearGradient>
				<polygon class="st3" points="310.7,206 374.9,322.7 374.5,224.2 				"/>
				<linearGradient id="SVGID_5_" gradientUnits="userSpaceOnUse" x1="330.2508" y1="277.1833" x2="378.3058" y2="228.2482">
					<stop  offset="0" style="stop-color:#F15A29"/>
					<stop  offset="1" style="stop-color:#F7941D"/>
				</linearGradient>
				<polygon class="st4" points="310.7,206 374.9,322.7 374.5,224.2 				"/>
			</g>
			<g>
				<linearGradient id="SVGID_6_" gradientUnits="userSpaceOnUse" x1="283.1842" y1="176.3566" x2="356.3712" y2="101.8293">
					<stop  offset="0" style="stop-color:#F15A29"/>
					<stop  offset="1" style="stop-color:#F7941D"/>
				</linearGradient>
				<polygon class="st5" points="374.5,119.2 310.7,90.6 310.7,206 374.5,120.9 				"/>
				<linearGradient id="SVGID_7_" gradientUnits="userSpaceOnUse" x1="283.1842" y1="176.3566" x2="356.3712" y2="101.8293">
					<stop  offset="0" style="stop-color:#F15A29"/>
					<stop  offset="1" style="stop-color:#F7941D"/>
				</linearGradient>
				<polygon class="st6" points="374.5,119.2 310.7,90.6 310.7,206 374.5,120.9 				"/>
			</g>
		</g>
		<g>
			<g>
				<linearGradient id="SVGID_8_" gradientUnits="userSpaceOnUse" x1="221.1745" y1="175.8488" x2="285.1492" y2="110.7023">
					<stop  offset="0" style="stop-color:#F15A29"/>
					<stop  offset="1" style="stop-color:#F7941D"/>
				</linearGradient>
				<polygon class="st7" points="310.6,205.7 226.7,52.9 224.3,51.8 223.5,180.4 				"/>
				<linearGradient id="SVGID_9_" gradientUnits="userSpaceOnUse" x1="221.1745" y1="175.8488" x2="285.1492" y2="110.7023">
					<stop  offset="0" style="stop-color:#F15A29"/>
					<stop  offset="1" style="stop-color:#F7941D"/>
				</linearGradient>
				<polygon class="st8" points="310.6,205.7 226.7,52.9 224.3,51.8 223.5,180.4 				"/>
			</g>
			<g>
				<linearGradient id="SVGID_10_" gradientUnits="userSpaceOnUse" x1="247.7512" y1="325.4754" x2="338.1667" y2="233.404">
					<stop  offset="0" style="stop-color:#F15A29"/>
					<stop  offset="1" style="stop-color:#F7941D"/>
				</linearGradient>
				<polygon class="st9" points="310.6,205.8 222.7,304 222.7,304.1 309.7,318.1 310.7,206 				"/>
				<linearGradient id="SVGID_11_" gradientUnits="userSpaceOnUse" x1="247.7512" y1="325.4754" x2="338.1667" y2="233.404">
					<stop  offset="0" style="stop-color:#F15A29"/>
					<stop  offset="1" style="stop-color:#F7941D"/>
				</linearGradient>
				<polygon class="st10" points="310.6,205.8 222.7,304 222.7,304.1 309.7,318.1 310.7,206 				"/>
			</g>
		</g>
		<linearGradient id="SVGID_12_" gradientUnits="userSpaceOnUse" x1="305.851" y1="198.4958" x2="382.4225" y2="120.522">
			<stop  offset="0" style="stop-color:#B5A386"/>
			<stop  offset="1" style="stop-color:#91816E"/>
		</linearGradient>
		<polygon class="st11" points="372.1,118.5 378.2,115.9 310.7,206 310.7,200 		"/>
		<linearGradient id="SVGID_13_" gradientUnits="userSpaceOnUse" x1="332.5184" y1="228.0809" x2="356.3141" y2="203.8494">
			<stop  offset="0" style="stop-color:#B5A386"/>
			<stop  offset="1" style="stop-color:#91816E"/>
		</linearGradient>
		<polygon class="st12" points="378.5,225.5 374.4,228.2 313.8,210.5 310.7,206 		"/>
		<linearGradient id="SVGID_14_" gradientUnits="userSpaceOnUse" x1="281.057" y1="291.7894" x2="338.3292" y2="233.4683">
			<stop  offset="0" style="stop-color:#91816E"/>
			<stop  offset="1" style="stop-color:#B5A386"/>
		</linearGradient>
		<path class="st13" d="M306.8,211.2l-2.2,105.5c-0.8,0.5,5.3,1.2,5.3,1.2l0.9-112L306.8,211.2z"/>
		<linearGradient id="SVGID_15_" gradientUnits="userSpaceOnUse" x1="223.812" y1="127.1681" x2="310.7359" y2="127.1681">
			<stop  offset="0" style="stop-color:#91816E"/>
			<stop  offset="1" style="stop-color:#B5A386"/>
		</linearGradient>
		<polygon class="st14" points="305.5,203.7 223.8,57.5 224.3,48.3 310.7,206 		"/>
		<linearGradient id="SVGID_16_" gradientUnits="userSpaceOnUse" x1="234.0523" y1="47.9986" x2="234.0523" y2="47.9986">
			<stop  offset="0" style="stop-color:#91816E"/>
			<stop  offset="1" style="stop-color:#B5A386"/>
		</linearGradient>
		<path class="st15" d="M234.1,48"/>
	</g>
	<linearGradient id="SVGID_17_" gradientUnits="userSpaceOnUse" x1="36.4853" y1="359.9946" x2="222.4855" y2="21.9943">
		<stop  offset="0" style="stop-color:#91816E"/>
		<stop  offset="1" style="stop-color:#B5A386"/>
	</linearGradient>
	<polygon class="st16" points="204.6,338.5 22.6,349.9 22.6,101.3 204.6,11.1 	"/>
	<linearGradient id="SVGID_18_" gradientUnits="userSpaceOnUse" x1="33.9649" y1="188.5165" x2="184.563" y2="188.5165">
		<stop  offset="0" style="stop-color:#004A2B"/>
		<stop  offset="1" style="stop-color:#006838"/>
	</linearGradient>
	<polygon class="st17" points="184,305.5 34,328.7 34,116.8 184.6,48.4 	"/>
	<g>
		<linearGradient id="SVGID_19_" gradientUnits="userSpaceOnUse" x1="-23.3258" y1="326.8416" x2="162.4343" y2="-17.9951">
			<stop  offset="0" style="stop-color:#A79181"/>
			<stop  offset="0.9877" style="stop-color:#BCA689"/>
		</linearGradient>
		<path class="st18" d="M107.5,129c-5.5-16.8-36-9.4-43.2-5.8c-3.7,1.8-4.5,3.5-10.2,16.8c-5.5,13.1-7.7,35.1-9.2,41
			c-0.5,1.8-3.9,5.8-3.7,6.9c0.5,2.5,6,0.2,9.5-4.1c5-6.3,15.2-19.9,18-22.4c2.5-2.3,5-1.4,8.3,2.7c0.6-0.3,4-1.6,3.9-1.6
			C90.6,143.1,100.9,132.8,107.5,129z"/>
		<linearGradient id="SVGID_20_" gradientUnits="userSpaceOnUse" x1="80.4162" y1="381.0913" x2="266.5583" y2="35.5455">
			<stop  offset="0" style="stop-color:#A79181"/>
			<stop  offset="0.9877" style="stop-color:#BCA689"/>
		</linearGradient>
		<path class="st19" d="M173.6,220.8c-2.9-8.3-10.1-24.2-16.8-34.8c-1.4,0.6-2.6,1-3.9,1.7c0.1,1.9,4.6,11.1,4.6,13
			c0,10.3-2.4,23.7-11.8,37.8c2.4,5.8,3.4,7.7,0.6,17.7c-3,10.9-15.4,33.2-18.3,38c-2.9,4.7-0.3,8.9,3.8,8.3
			c6.2-0.8,33-8.7,47.1-48.3C182.6,242.2,177.2,231.1,173.6,220.8z"/>
		<linearGradient id="SVGID_21_" gradientUnits="userSpaceOnUse" x1="-4.0159" y1="340.6789" x2="190.2139" y2="-19.8807">
			<stop  offset="0" style="stop-color:#A79181"/>
			<stop  offset="0.9877" style="stop-color:#BCA689"/>
		</linearGradient>
		<path class="st20" d="M47.5,219.7c-6.2,10.3-5.5,18.1-3.4,21c1.4,1.9,8.1,13.5,9.3,13.1c1.9-0.6,2.7-0.9,3.9-1.4
			c0.7-9.4,2.8-23.5,7.9-44.6C58.5,205.8,50.8,214.1,47.5,219.7z"/>
		<linearGradient id="SVGID_22_" gradientUnits="userSpaceOnUse" x1="22.8188" y1="356.292" x2="210.3263" y2="8.2115">
			<stop  offset="0" style="stop-color:#A79181"/>
			<stop  offset="0.9877" style="stop-color:#BCA689"/>
		</linearGradient>
		<path class="st21" d="M144.9,149.2c1.4,2.5,0.5,9.5,1.7,12.3c2.2-1,3.5-1.3,3.5-1.3c2-1.1,7.5-6.6,9.7-11.6
			c17.9-38.2,13.4-63.7,9.7-67.9c-2-2.2-5.9-1.5-10.6,0.7c-9.3,4.5-21.4,15.4-25.8,23.3c-5.2,9.2-7.2,18.1-8.2,25.8
			C132.6,134.4,140.5,141.5,144.9,149.2z"/>
		<linearGradient id="SVGID_23_" gradientUnits="userSpaceOnUse" x1="35.7151" y1="356.0546" x2="226.1066" y2="2.6204">
			<stop  offset="0" style="stop-color:#A79181"/>
			<stop  offset="0.9877" style="stop-color:#BCA689"/>
		</linearGradient>
		<path class="st22" d="M66.2,272.7c-1.2,0.4-2.5,1-3.9,1.5c-1.6,13.7,2.5,36.2,1.8,32.5c0-0.1,1.4,2.8,5.2,1.2
			c3.3-1.5,21.8-11.3,23-29.7c0.1-1.5,0.2-3,0.2-4.3C81.9,275.2,72.5,274.1,66.2,272.7z"/>
		<linearGradient id="SVGID_24_" gradientUnits="userSpaceOnUse" x1="18.301" y1="347.0772" x2="203.4373" y2="3.3984">
			<stop  offset="0" style="stop-color:#A79181"/>
			<stop  offset="0.9877" style="stop-color:#BCA689"/>
		</linearGradient>
		<path class="st23" d="M139.9,148.1c0,0-6.1,11.6-32.3,50.1c-24.1,35.3-46.6,63.3-48.4,66c-1-0.1-1.7-0.2-2.2-0.5
			c4.3-17.2,24.3-64.8,38.1-83.6c13-17.6,24.6-31,31.7-35.7c2-1.3,6.2-2.7,6.9-2.4C136.7,143.2,139.9,148.1,139.9,148.1z"/>
		<linearGradient id="SVGID_25_" gradientUnits="userSpaceOnUse" x1="35.2209" y1="350.22" x2="216.2208" y2="14.2199">
			<stop  offset="0" style="stop-color:#A79181"/>
			<stop  offset="0.9877" style="stop-color:#BCA689"/>
		</linearGradient>
		<path class="st24" d="M142.6,150.8c0,0-2.4,0.9-4,1.6c-6.3,11-22,43.5-35,60.6c-15.4,20.1-36.5,46.8-41.3,53.1
			c0.7,0.1,26.1-1.4,52.6-34.1c22.1-27.3,30.4-66.6,31-70.8C146.5,156,142.6,150.8,142.6,150.8z"/>
		<linearGradient id="SVGID_26_" gradientUnits="userSpaceOnUse" x1="5.5654" y1="340.6138" x2="190.5278" y2="-2.7423">
			<stop  offset="0" style="stop-color:#A79181"/>
			<stop  offset="0.9877" style="stop-color:#BCA689"/>
		</linearGradient>
		<path class="st25" d="M131.1,138.9c0,0-19.6-11.4-28-4.4c-7.7,6.4-33.9,47.1-43.9,106.6c0.6,0.3,1.6,0.6,1.6,0.7
			c12.4-31.1,19.9-45.6,32.8-64.6C105.9,159.1,131.1,138.9,131.1,138.9z"/>
		<linearGradient id="SVGID_27_" gradientUnits="userSpaceOnUse" x1="50.8711" y1="358.6514" x2="231.8709" y2="22.6514">
			<stop  offset="0" style="stop-color:#A79181"/>
			<stop  offset="0.9877" style="stop-color:#BCA689"/>
		</linearGradient>
		<path class="st26" d="M147.8,166.2c0,0,7.1,25,7.1,35.2c0,10.2-4.3,29.5-22.3,47.6c-16.9,17.1-33.2,24.9-59.9,19.5
			c26-13.1,41.4-20.8,55.9-49c11.2-21.8,13.1-42,15.2-51.6C144.6,167.7,146,167,147.8,166.2z"/>
	</g>
	<g>
		<linearGradient id="SVGID_28_" gradientUnits="userSpaceOnUse" x1="-22.7144" y1="322.6662" x2="158.2853" y2="-13.3335">
			<stop  offset="0" style="stop-color:#91816E"/>
			<stop  offset="1" style="stop-color:#B5A386"/>
		</linearGradient>
		<path class="st27" d="M103.5,130.5c-5.5-16.8-25.4-11.2-33.1-9.1c-7.7,2-10.3,3.5-15.9,16.8c-5.5,13.1-12,38.5-13.5,44.3
			c-1.5,5.8,0.9,8.9,5.8,2.8c5-6.3,15.2-19.9,18-22.4c2.8-2.6,6.1-5.3,11.9,0.8c0.1,0.1,0.2,0.2,0.3,0.3
			C86.6,144.6,96.9,134.3,103.5,130.5z"/>
		<linearGradient id="SVGID_29_" gradientUnits="userSpaceOnUse" x1="80.3079" y1="378.0612" x2="261.3082" y2="42.0602">
			<stop  offset="0" style="stop-color:#91816E"/>
			<stop  offset="1" style="stop-color:#B5A386"/>
		</linearGradient>
		<path class="st28" d="M169.5,222.2c-2.9-8.3-10.1-24.2-16.8-34.8c0.5,4.7,0.8,9.6,0.8,14.7c0,10.3-2.4,23.7-11.8,37.8
			c2.4,5.8,3.4,7.7,0.6,17.7c-3,10.9-11,28.1-13.9,32.8c-2.9,4.7-2.9,12.7,3.2,11.8c6.2-0.9,29.2-7,43.3-46.6
			C178.6,243.6,173.2,232.5,169.5,222.2z"/>
		<linearGradient id="SVGID_30_" gradientUnits="userSpaceOnUse" x1="-2.1141" y1="333.7634" x2="178.886" y2="-2.2372">
			<stop  offset="0" style="stop-color:#91816E"/>
			<stop  offset="1" style="stop-color:#B5A386"/>
		</linearGradient>
		<path class="st29" d="M45.2,223c-6.2,10.3-7.3,16.2-5.1,19.2c1.6,2.3,6.2,7.7,13.2,11.7c0.7-9.4,2.8-23.5,7.9-44.6
			C54.5,207.3,48.6,217.5,45.2,223z"/>
		<linearGradient id="SVGID_31_" gradientUnits="userSpaceOnUse" x1="24.4692" y1="348.0837" x2="205.4694" y2="12.083">
			<stop  offset="0" style="stop-color:#91816E"/>
			<stop  offset="1" style="stop-color:#B5A386"/>
		</linearGradient>
		<path class="st30" d="M141.4,150.5c2,3.4,3.7,7.1,5.2,10.9c3.9-2.9,7.5-6.6,9.7-11.6c17.9-38.2,13.4-63.7,9.7-67.9
			c-5.8-6.5-29.8,12.2-36.4,24.1c-5.2,9.2-7.2,18.1-8.2,25.8C129.1,135.8,137,142.9,141.4,150.5z"/>
		<linearGradient id="SVGID_32_" gradientUnits="userSpaceOnUse" x1="35.4442" y1="353.9955" x2="216.4438" y2="17.9959">
			<stop  offset="0" style="stop-color:#91816E"/>
			<stop  offset="1" style="stop-color:#B5A386"/>
		</linearGradient>
		<path class="st31" d="M62.2,274.2c-2.2,14.6,0.5,27.7,1.2,31.6c0.7,3.9,2.3,3.8,5.6,2.4c3.3-1.5,18.1-10.1,19.3-28.6
			c0.1-1.5,0.2-3,0.2-4.3C77.9,276.7,68.5,275.6,62.2,274.2z"/>
		<linearGradient id="SVGID_33_" gradientUnits="userSpaceOnUse" x1="16.8664" y1="343.9881" x2="197.8669" y2="7.9869">
			<stop  offset="0" style="stop-color:#91816E"/>
			<stop  offset="1" style="stop-color:#B5A386"/>
		</linearGradient>
		<path class="st32" d="M135.9,149.6c0,0-6.1,11.6-32.3,50.1c-24.1,35.3-44.9,61.3-46.7,64c2-12.6,18.8-61.2,34.1-82.1
			c16.6-22.6,35.6-39.4,38.6-38.1C132.7,144.7,135.9,149.6,135.9,149.6z"/>
		<linearGradient id="SVGID_34_" gradientUnits="userSpaceOnUse" x1="31.2209" y1="351.72" x2="212.2208" y2="15.7199">
			<stop  offset="0" style="stop-color:#91816E"/>
			<stop  offset="1" style="stop-color:#B5A386"/>
		</linearGradient>
		<path class="st33" d="M138.6,152.3c0,0-22.8,40.9-39,62.2c-15.4,20.1-36.5,46.8-41.3,53.1c0.7,0.1,26.1-1.4,52.6-34.1
			c22.1-27.3,30.4-66.6,31-70.8C142.5,157.5,138.6,152.3,138.6,152.3z"/>
		<linearGradient id="SVGID_35_" gradientUnits="userSpaceOnUse" x1="4.6935" y1="337.4307" x2="185.6932" y2="1.4308">
			<stop  offset="0" style="stop-color:#91816E"/>
			<stop  offset="1" style="stop-color:#B5A386"/>
		</linearGradient>
		<path class="st34" d="M127.1,140.4c0,0-16.2-12.6-24.6-5.6c-8.1,6.8-34.5,39.5-43.3,106.3c12.4-31.1,17.5-43.4,30.4-62.4
			C101.9,160.6,127.1,140.4,127.1,140.4z"/>
		<linearGradient id="SVGID_36_" gradientUnits="userSpaceOnUse" x1="46.8711" y1="360.1514" x2="227.8709" y2="24.1514">
			<stop  offset="0" style="stop-color:#91816E"/>
			<stop  offset="1" style="stop-color:#B5A386"/>
		</linearGradient>
		<path class="st35" d="M143.8,167.7c0,0,7.1,25,7.1,35.2c0,10.2-4.3,29.5-22.3,47.6c-16.9,17.1-33.2,24.9-59.9,19.5
			c26-13.1,41.4-20.8,55.9-49C139.9,191.4,141.4,179.4,143.8,167.7z"/>
	</g>
	<linearGradient id="SVGID_37_" gradientUnits="userSpaceOnUse" x1="22.5669" y1="339.9987" x2="386.4556" y2="339.9987">
		<stop  offset="0" style="stop-color:#72503C"/>
		<stop  offset="1" style="stop-color:#9B8C74"/>
	</linearGradient>
	<path class="st36" d="M22.6,349.9L205,327l181.5,22L204,353C204,353,22.7,350.8,22.6,349.9z"/>
	<g>
		<g>
			<linearGradient id="SVGID_38_" gradientUnits="userSpaceOnUse" x1="18.5939" y1="632.0213" x2="66.8519" y2="329.1591">
				<stop  offset="0" style="stop-color:#856D5B"/>
				<stop  offset="1" style="stop-color:#A8947C"/>
			</linearGradient>
			<polygon class="st37" points="62.1,683 12.1,631.6 12.1,348.4 62.1,326.2 			"/>
			<linearGradient id="SVGID_39_" gradientUnits="userSpaceOnUse" x1="-29.4667" y1="420.0372" x2="127.5127" y2="573.641">
				<stop  offset="0" style="stop-color:#A79181"/>
				<stop  offset="0.9877" style="stop-color:#BCA689"/>
			</linearGradient>
			<polygon class="st38" points="57,648.6 15.5,611.1 15.5,371 57,357.6 			"/>
			<linearGradient id="SVGID_40_" gradientUnits="userSpaceOnUse" x1="-26.8479" y1="421.5019" x2="124.5231" y2="569.6179">
				<stop  offset="0" style="stop-color:#C4161C"/>
				<stop  offset="1" style="stop-color:#9E0B0F"/>
			</linearGradient>
			<polygon class="st39" points="57,641.4 18.5,608.5 18.5,372.1 57,361 			"/>
		</g>
		<g>
			<g>
				<linearGradient id="SVGID_41_" gradientUnits="userSpaceOnUse" x1="21.5133" y1="632.9131" x2="70.87" y2="328.1046">
					<stop  offset="0" style="stop-color:#A79181"/>
					<stop  offset="0.9877" style="stop-color:#BCA689"/>
				</linearGradient>
				<path class="st40" d="M57,620.4l-3.6-0.5L39,606l-3.7-37l3.7,0.1l4.4,2.7l-1.7-38.7l-8.7-4l-1.7,35.1l4.3,2.7v2.2v34.1l-3.9-0.4
					l-9.8-10.6l-3.6-33.9l3.6,0l3.7,2.3l6.1-135.3l-4.2,0.2l-3.6-0.4l3.6-34.5l18.1-5.1l4,0.4v38.7l-4.9,0.2l7.5,147.6l0.3,5.1
					l4.6,2.9V620.4z M37.4,434.1L37.4,434.1l-3.1,64.4l5.8,1.8L37.4,434.1z"/>
			</g>
			<linearGradient id="SVGID_42_" gradientUnits="userSpaceOnUse" x1="17.8656" y1="632.4647" x2="67.1991" y2="327.7996">
				<stop  offset="0" style="stop-color:#856D5B"/>
				<stop  offset="1" style="stop-color:#A8947C"/>
			</linearGradient>
			<path class="st41" d="M53.3,620.1l-18-14.4v-36.9l4.4,2.7L38,532.8l-8.7-4l-1.7,35.1l4.3,2.7V603l-13.8-11v-34l3.7,2.3l6.1-135.3
				l-4.2,0.2v-34.9l22.1-4.7v38.7l-4.9,0.2l7.8,152.7l4.6,2.9 M33.8,433.7L33.8,433.7l-3.1,64.4l5.9,1.8L33.8,433.7z"/>
		</g>
	</g>
	<polygon class="st42" points="391.8,632.4 61.7,683.2 61.7,326.8 391.8,346 	"/>
	<linearGradient id="SVGID_43_" gradientUnits="userSpaceOnUse" x1="360.2026" y1="355.5565" x2="80.8693" y2="639.8885">
		<stop  offset="0" style="stop-color:#91816E"/>
		<stop  offset="0.9939" style="stop-color:#FDCFAC"/>
	</linearGradient>
	<polygon class="st43" points="370.1,611.8 96,649.2 96,358.1 370.1,369.2 	"/>
	<polygon class="st44" points="365.4,609.8 96,646.2 96,362.5 365.4,373.2 	"/>
	<g>
		<g>
			<linearGradient id="SVGID_44_" gradientUnits="userSpaceOnUse" x1="122.5386" y1="441.8498" x2="176.4146" y2="441.8498">
				<stop  offset="0" style="stop-color:#91816E"/>
				<stop  offset="1" style="stop-color:#B5A386"/>
			</linearGradient>
			<path class="st45" d="M122.5,478.2l1.7-1.2l2.2,0.1l-0.1-69.2l-3.9,0v-15l1.8-2.3l18.9,1.4l4.4,40.2l0.9,0l3.4-38.7l1.4-2.7
				l22.7,0.7l0.4,14.4l-2.1,2.6l-3.5,0v68.2l5.2,13.5l-1.7,0.9l-19.1,0.8v-14.7l1.8-1l1.2-0.2l-0.2-69.2l0.3,2.6l-8.2,81.9l-1.7,0.9
				l-4.3,0.2l-9-85.8l-1,0v71.3l4.6-0.6l0.3,14.4l-2,1l-14.6,0.6V478.2z"/>
			<linearGradient id="SVGID_45_" gradientUnits="userSpaceOnUse" x1="177.2066" y1="441.2384" x2="218.6216" y2="441.2384">
				<stop  offset="0" style="stop-color:#91816E"/>
				<stop  offset="1" style="stop-color:#B5A386"/>
			</linearGradient>
			<path class="st46" d="M177.2,476.4l1.7-1.1l1.8,0.9l5.6-67.7l-3.4,0v-14.4l1.8-2.5l28,0.8l0.4,14l-1.7,2.5l-3.4,0l5.8,66.4
				l3.1-0.1l1.7,13l-1.7,1.1l-17.3,0.7v-14.3l1.8-1.1l1.4,1l-1.2-17.8l-8.4,0.2l-1.2,17.9l3.2-0.1l1.7,13.3l-1.7,1l-17.9,0.7V476.4z
				 M200.7,446l-2.7-39.7l-1.4,0l-2.6,39.8L200.7,446z"/>
			<linearGradient id="SVGID_46_" gradientUnits="userSpaceOnUse" x1="219.5904" y1="440.6996" x2="255.2896" y2="440.6996">
				<stop  offset="0" style="stop-color:#91816E"/>
				<stop  offset="1" style="stop-color:#B5A386"/>
			</linearGradient>
			<path class="st47" d="M219.6,475l1.6-1.1l1.5,1v-1.3V409l-3.1,0v-14.1l1.8-2.6l12.4,2.9c4.5,20,7.1,36.3,9.8,55.7l0.6,0
				c-0.2-11-0.5-14.9-0.5-23.5v-18.1l-2.8,0v-13.9l1.7-2.8l12.1,0.8l0.5,13.2l-1.7,2.8l-2.6,0v79.3L242,489
				c-4-20.4-7.9-37.4-11.9-64.3l-0.6,0c0.4,8.5,0.6,27.5,0.6,31.7v18.3l2.7-0.1l1.7,13l-1.7,0.9l-13.2,0.5V475z"/>
			<linearGradient id="SVGID_47_" gradientUnits="userSpaceOnUse" x1="255.0699" y1="448.8753" x2="292.7056" y2="448.8753">
				<stop  offset="0" style="stop-color:#91816E"/>
				<stop  offset="1" style="stop-color:#B5A386"/>
			</linearGradient>
			<path class="st48" d="M255.1,473.9l1.7-1.1l1.5,1l0.6-6.1l4.4-44l-3,0v-11.2l1.8-2.4l24.9,0.5l0.8,11.1l-1.7,2l-3.1,0l5.2,49.1
				l2.9-0.1v6.7l1.7,5.8l-1.7,0.9l-15.7,0.7v-13.6l1.7-1.1l1.2,1l-1.1-11.3l-7.6,0.2l-1.1,11.4l2.9-0.1l0.7,6.5l1,6.5l-1.7,0.7
				l-16.2,0.7V473.9z M276.3,452.7l-2.4-30.9l-1.3,0l-2.3,31L276.3,452.7z"/>
			<linearGradient id="SVGID_48_" gradientUnits="userSpaceOnUse" x1="292.8072" y1="439.9193" x2="328.8716" y2="439.9193">
				<stop  offset="0" style="stop-color:#91816E"/>
				<stop  offset="1" style="stop-color:#B5A386"/>
			</linearGradient>
			<path class="st49" d="M292.8,472.7l1.6-1l1.7,0.9v-62.7l-3.3,0v-13.4l1.6-2.6l16.6,0.9l0.3,12.6l-1.8,2.7l-2.7,0v62.3l2.1-0.1
				l1.7,12.2l-1.7,1l-16.1,0.7V472.7z M312,472.1l1.5-1l0.7,1l-6.4-33.1l7.5-28.9l-2.8,0v-13.2l1.6-2.6l11.9,1.1L327,408l-1.7,2.2
				l-2.6,0l-5.8,22.4l7.6,39.1l2.6-0.1v7.4l1.8,4.9l-1.8,0.9l-15.1,0.6V472.1z"/>
			<linearGradient id="SVGID_49_" gradientUnits="userSpaceOnUse" x1="328.3052" y1="439.6078" x2="348.7056" y2="439.6078">
				<stop  offset="0" style="stop-color:#91816E"/>
				<stop  offset="1" style="stop-color:#B5A386"/>
			</linearGradient>
			<path class="st50" d="M328.3,471.5l1.7-1.1l2.5,0.9V464v-53.7l-4.2,0v-13.1l1.7-2.5l18,0.4l0.8,13.2l-1.8,2.2l-4.3,0v53.9v6.9
				l4.3-0.1l1.7,11.9l-1.7,1l-18.6,0.8V471.5z"/>
			<linearGradient id="SVGID_50_" gradientUnits="userSpaceOnUse" x1="260.2808" y1="401.4799" x2="287.6646" y2="401.4799">
				<stop  offset="0" style="stop-color:#91816E"/>
				<stop  offset="1" style="stop-color:#B5A386"/>
			</linearGradient>
			<path class="st51" d="M263.3,409.5l-3,0v-13.7l1.4-2.5l25.3,0.6l0.7,13.2l-1.7,2.6l-3.1,0L263.3,409.5z"/>
		</g>
		<g>
			<linearGradient id="SVGID_51_" gradientUnits="userSpaceOnUse" x1="118.5201" y1="559.9098" x2="168.7066" y2="559.9098">
				<stop  offset="0" style="stop-color:#91816E"/>
				<stop  offset="1" style="stop-color:#B5A386"/>
			</linearGradient>
			<path class="st52" d="M129.3,594.7l5.7-0.6v-68.8l-5.9,0.4v21.6l-8.9,1.7l-1.7-0.9v-36.6l4.6-0.3l44-2.4l1.6,0.7l-1.6,34.8
				l-8.4,1.6l-1.6-0.9v-21.2l-5.7,0.4v68.1l5.5-0.6l1.8,1.4l-1.8,13l-25.8,4.6l-1.8-1.5V594.7z"/>
			<linearGradient id="SVGID_52_" gradientUnits="userSpaceOnUse" x1="166.4878" y1="556.6007" x2="218.1236" y2="556.6007">
				<stop  offset="0" style="stop-color:#91816E"/>
				<stop  offset="1" style="stop-color:#B5A386"/>
			</linearGradient>
			<path class="st53" d="M166.5,590.8l4.5-0.5l7.1-67.7l-2.5,1.2l-1.8-0.9v-14.3l6.6-0.4l29.2-1.6l1.6,0.5l-1.6,13.5l-4.3,0.3
				l7.2,65l3.9-0.4l1.6,1.3l-1.6,12.6l-20,3.8l-1.8-1.3v-14.1l4-0.4l-1.6-17.4l-10.6,1l-1.5,17.9l4-0.4l1.9,1.5l-1.9,12.7l-21,4
				l-1.6-1.4V590.8z M196.1,558.3l-3.4-39.1l-1.8,0.1l-3.2,39.7L196.1,558.3z"/>
			<linearGradient id="SVGID_53_" gradientUnits="userSpaceOnUse" x1="219.8228" y1="552.1896" x2="263.9566" y2="552.1896">
				<stop  offset="0" style="stop-color:#91816E"/>
				<stop  offset="1" style="stop-color:#B5A386"/>
			</linearGradient>
			<path class="st54" d="M219.8,585.1l3.9-0.4v-65l-2.5,1.2l-1.4-0.9v-13.9l6.1-0.3l11.7-0.6c0.1,0.2,1.6,0.5,1.7,0.6
				c5.4,19,7.1,34.6,10.5,53.2l0.8-0.1c-0.3-10.8-0.6-14.6-0.6-23.1v-17.8l-2.1,1.1l-1.4-0.9v-13.7l5.5-0.3l10.1-0.5l1.9,0.7
				l-1.9,12.8l-3.2,0.2v77.8l-9.2,2.7l-1.8-1.4c-5-19.6-9.8-36-14.8-62.1l-0.8,0.1c0.4,8.4,0.8,27,0.8,31.2v18l3.3-0.3l1.8,1.3
				l-1.8,12.4l-14.6,3.4l-1.9-1.5V585.1z"/>
			<linearGradient id="SVGID_54_" gradientUnits="userSpaceOnUse" x1="267.7466" y1="546.9542" x2="307.715" y2="546.9542">
				<stop  offset="0" style="stop-color:#91816E"/>
				<stop  offset="1" style="stop-color:#B5A386"/>
			</linearGradient>
			<path class="st55" d="M289,562.9v-13.3l17.1-1.5c0.8,0.3,1.7,0.7,1.7,1.1c0.3,28.7-8.7,42.1-20,43.4c-11.3,1.3-20-11.8-20-43.6
				c0-28.2,5.5-45.4,14.9-47.6c0.5-0.1,1.1-0.2,1.6-0.2c2.2-0.1,4.8,0.4,6,1.7c2.6,2.8,1,2,2.8,5.8l0.2,0v-6.6l9-0.5l1.7,0.5
				l-1.7,29.4l-7,1.5l-2-0.9c-0.2-12.7-2.9-16.5-5.7-16.3c-4.2,0.3-4.8,5.6-4.8,29.2c0,28.1,1.1,32.9,5,32.5
				c3.2-0.3,4.9-5.3,4.9-15.2l-2.2,1.2L289,562.9z"/>
			<linearGradient id="SVGID_55_" gradientUnits="userSpaceOnUse" x1="308.3296" y1="544.8751" x2="351.5396" y2="544.8751">
				<stop  offset="0" style="stop-color:#91816E"/>
				<stop  offset="1" style="stop-color:#B5A386"/>
			</linearGradient>
			<path class="st56" d="M308.3,575.8l3.7-0.4l5.9-61.6l-1.8,0.9l-1.7-0.7v-13l30.2-1.5l1.2,0.3l-0.5,11.7l-4.7,0.9l6,59.4l3.3-0.3
				l1.7,1.3l-1.7,11.4l-16.5,3.5l-1.6-1.4v-12.9l3.4-0.4l-1.3-15.9l-8.8,0.8l-1.2,16.3l3.3-0.4l2,1.5l-2,11.5l-17.1,3.5l-1.7-1.4
				V575.8z M332.9,546.5l-2.8-35.6l-1.5,0.1l-2.7,36.1L332.9,546.5z"/>
		</g>
	</g>
	<g>
		<g>
			<path class="st42" d="M124.2,477.1l3.9-0.1v-71.4l-3.9,0v-15.3l21.7,0.5l3.4,39.6l0.9,0l3.4-39.4l22.4,0.5v14.8l-3.5,0v69.4
				l3.5-0.1v14.8l-19.1,0.8v-15l2.9-0.1v-71.5l-0.8,0l-8.7,86.9l-4.3,0.2l-9-87.3l-1,0v72.6l2.9-0.1v15.1l-14.6,0.6V477.1z"/>
			<path class="st42" d="M178.9,475.3l3.5-0.1l5.6-68.9l-3.4,0v-14.7l28.4,0.6v14.4l-3.4,0l5.8,67.6l3.1-0.1v14.4l-17.3,0.7v-14.5
				l3.2-0.1l-1.2-18.1l-8.4,0.2l-1.2,18.3l3.2-0.1v14.6l-17.9,0.8V475.3z M202.4,444.3l-2.7-40.4l-1.4,0l-2.6,40.6L202.4,444.3z"/>
			<path class="st42" d="M221.3,473.9l3.1-0.1v-67.1l-3.1,0v-14.3l14.2,0.3c4.5,20.3,7.1,36.9,9.8,56.7l0.6,0
				c-0.2-11.2-0.5-15.2-0.5-23.9v-18.4l-2.8,0v-14.1l12.6,0.3v14l-2.6,0v80.7l-8.9,0.4c-4-20.8-7.9-38.1-11.9-65.5l-0.6,0
				c0.4,8.7,0.6,28,0.6,32.3v18.6l2.7-0.1v14.2l-13.2,0.6V473.9z"/>
			<path class="st42" d="M256.7,472.7l3.2-0.1l5.1-51l-3,0v-11.4l25.7,0.2v11.2l-3.1,0l5.2,50l2.9-0.1v13.7l-15.7,0.7v-13.8l2.9-0.1
				l-1.1-11.5l-7.6,0.2l-1.1,11.7l2.9-0.1v13.9l-16.2,0.7V472.7z M278,451.1l-2.4-31.4l-1.3,0l-2.3,31.5L278,451.1z"/>
			<path class="st42" d="M294.5,471.5l3.3-0.1v-63.9l-3.3,0v-13.7l16.6,0.3v13.5l-2.7,0V471l2.1-0.1v13.5l-16.1,0.7V471.5z
				 M313.6,470.9l2.2-0.1l-6.4-33.7l7.5-29.4l-2.8,0v-13.5l12.8,0.3v13.4l-2.6,0l-5.8,22.8l7.6,39.8l2.6-0.1v13.3l-15.1,0.6V470.9z"
				/>
			<path class="st42" d="M330,470.3l4.2-0.1v-62.3l-4.2,0v-13.3l18.6,0.4v13.1l-4.3,0v61.8l4.3-0.1v13.1l-18.6,0.8V470.3z"/>
			<path class="st42" d="M265,407.1l-3,0v-14l25.7,0.5v13.7l-3.1,0L265,407.1z"/>
		</g>
		<g>
			<path class="st42" d="M131,596.1l5.7-0.6v-69.4l-5.9,0.4v21.8l-10.6,0.8v-36.9l48.6-2.6v35.8l-10.1,0.8v-21.4L153,525v68.7
				l5.5-0.6v14.6L131,611V596.1z"/>
			<path class="st42" d="M168.2,592.1l4.5-0.5l7.1-68.3l-4.2,0.3v-14.5l35.8-1.9v14.1l-4.3,0.3l7.2,65.6l3.9-0.4v14.1l-21.8,2.5
				v-14.3l4-0.4l-1.6-17.6l-10.6,1l-1.5,18l4-0.4V604l-22.7,2.6V592.1z M197.8,559.4l-3.4-39.4l-1.8,0.1l-3.2,40L197.8,559.4z"/>
			<path class="st42" d="M221.5,586.4l3.9-0.4v-65.6l-3.9,0.2v-14l17.8-1c5.5,19.4,8.8,35.4,12.2,54.4l0.8-0.1
				c-0.3-10.8-0.6-14.7-0.6-23.3v-17.9l-3.5,0.2v-13.8l15.6-0.8V518l-3.2,0.2v78.5l-11.1,1.3c-5-19.8-9.8-36.4-14.8-62.7l-0.8,0.1
				c0.4,8.4,0.8,27.2,0.8,31.5V585l3.3-0.4v13.9l-16.5,1.9V586.4z"/>
			<path class="st42" d="M290.6,564v-13.4l17.1-1.5c0.6,29.8-6.8,43.5-18.3,44.9c-11.3,1.3-20-11.9-20-44c0-30,6.2-47.7,16.6-48.3
				c3.6-0.2,6.3,2.1,8.8,7.5l0.2,0v-6.6l9-0.5v30.2l-9,0.7c-0.2-12.8-2.9-16.6-5.7-16.4c-4.2,0.3-4.8,5.7-4.8,29.5
				c0,28.3,1.1,33.2,5,32.8c3.2-0.3,4.9-5.4,4.9-15.3L290.6,564z"/>
			<path class="st42" d="M310,577l3.7-0.4l5.9-62.1l-3.5,0.2v-13.2l29.7-1.6v12.9l-3.5,0.2l6,59.9l3.3-0.4v12.8l-18.1,2.1v-13
				l3.4-0.4l-1.3-16.1l-8.8,0.8l-1.2,16.4l3.3-0.4v13l-18.8,2.2V577z M334.6,547.4l-2.8-35.9l-1.5,0.1l-2.7,36.5L334.6,547.4z"/>
		</g>
	</g>
	<linearGradient id="SVGID_56_" gradientUnits="userSpaceOnUse" x1="61.6265" y1="334.6295" x2="336.4556" y2="334.6295">
		<stop  offset="0" style="stop-color:#B89F87"/>
		<stop  offset="1" style="stop-color:#B5A386"/>
	</linearGradient>
	<polygon class="st57" points="61.6,326.3 61.6,342.3 336.5,343 	"/>
</g>
</svg>
