<?xml version="1.0" encoding="utf-8"?>
<!-- Generator: Adobe Illustrator 22.0.1, SVG Export Plug-In . SVG Version: 6.00 Build 0)  -->
<svg version="1.1" id="Layer_1" xmlns="http://www.w3.org/2000/svg" xmlns:xlink="http://www.w3.org/1999/xlink" x="0px" y="0px"
	 viewBox="0 0 111.4 130.6" style="enable-background:new 0 0 111.4 130.6;" xml:space="preserve">
<style type="text/css">
	.st0{fill:none;}
	.st1{fill:#FFFFFF;}
</style>
<path d="M105.7,118.3c0,4.6-3.7,8.3-8.3,8.3H14c-4.6,0-8.3-3.7-8.3-8.3V34.9c0-4.6,3.7-8.3,8.3-8.3h83.4c4.6,0,8.3,3.7,8.3,8.3
	V118.3z"/>
<g>
	<path d="M77.7,18.9c0,0,1,0,1.5-0.6c0.6-0.6,1.6-2.9,4.4-3c2.8-0.1,5.6,0.4,6.8,3.3c1.3,2.9,1.5,5.5,0.5,7.7
		c-1,2.3-1.4,3.8-4.9,6.3c-0.5,0.4-1.8,2.5-1.8,2.5s0.5,1.3,0.3,1.9c0,0.1-1,0.5-1.3,1c-0.3,0.5,0.1,1.2-0.1,1.9
		c-0.1,0.4-0.4,1.1-0.7,1.1c-0.2,0,1,0.9,0.8,1.4c-0.1,0.4-1.1,0.8-1.3,1.1c-0.3,0.5,0.1,0.9,0,1.4c-0.1,0.5-1.4,1.4-1.4,1.4
		s0.2,0.9,0.2,1.3c-0.1,0.7,0.6,1.3,0.5,2c-0.1,0.5-0.9,1-0.9,1.4c-0.1,0.8,0.6,1.5,0.4,1.9c0.8,1.2,0.2,1.5,0.2,1.5
		s0.6,1.4,0.5,3.1c-0.2,1.7,0.2,4.5,0.3,5.6c0.2,1.1,1.7,10.7-7.9,15.6c-9.1,4.7-20.7,2.3-32.1-11.9c-0.6-0.5-2.1-1.1-3.7-3.1
		c-1.6-2-7.9-6.7-10-8.6c-0.7-0.6-3.1-2.6-4.3-5.9c-0.8-2.2-5.9-0.3-9.7-7.6c-1.6-3.2-2.2-8,1.7-9.6c3.3-1.3,4,1.5,6.6,1.1
		c-1.6-1.1-4-2.4-4.7-2.6c2.1,0.2,3.3,0.1,4.7-0.8c1.5-0.9,2.1-3,1.3-2.7c-0.8,0.3-2.7,2.3-2.7,2.3l2.3-3.6c0,0-2.1,0.9-2.5,1.3
		c2-1.9,3.2-2.7,3.2-2.7s-2,0.1-2.8,0.6c1.6-1,2.7-1.3,3.4-1.7c0.7-0.4,1.5-0.7,1.5-0.7s-2.4,0-3.3,0.4c2-1.4,3.4-1.8,4.1-2.1
		c0.7-0.2,1.4-0.6,1.4-0.6s-3.3,0-4.6,0.2c2.1-0.9,4.3-1.9,4.3-1.9c-3,0-4.1,0.1-4.1,0.1s3.4-1.8,4.3-2c-2.4,0.1-3.2-0.4-3.2-0.4
		s2.3-0.3,3.6-0.4C29.8,15.8,31,15,31,15l-3.3-1.5c0,0,1.5-0.5,2.6-0.4c1.1,0,3,1,4.2,0.6c-1.2-0.7-3-1.8-3-1.8s1.3-0.4,2.4-0.1
		c1.1,0.2,1.6,1.3,2.7,1c-0.7-0.8-2.6-2.6-2.6-2.6s1.6,0,2.6,0.2c1,0.3,3.9,0.9,3.9,0.9s-2.1-2.5-2.2-2.9c-0.2-0.3,2,0.5,2.7,0.7
		c0.7,0.2,3,1.4,3,1.4s0.4-1.7,0.4-3c0-1.2-0.2-3.2-0.2-3.2s2.7,3.6,3.1,5.7c0-1.4,1-4.2,1-4.2l0,3.4c0,0,1.7-2.9,2.2-3.4
		C49.9,7.4,49.7,9,49.7,9s2.5-1.8,3.4-2.3c0,0.2-0.1,1.1-0.1,1.1s3.2-2.4,3.5-2.5c-0.6,1.1-2.4,2.3-2.4,3.4c1.9-1.1,5-1.9,5-1.9
		l-0.6,1.6c0,0,1,0.3,1.7,0.1c0.7-0.2,3.6-0.6,4-0.5c-0.4,0.5-1.1,1.7-1.1,1.7s4.1-0.7,5.3-0.6c1.2,0.1,4.2,1.3,5.3,1.3
		c1.1,0-2.6,2.3-2.6,2.3s2.6-0.1,3.6-0.1c1,0,0.8,0.3,0.8,0.3l-3.8,2.2c0,0,3.1-0.4,4.2-0.3c-3.4,1.6-1.2,1.5-1.2,1.5s1.4,0,2.5-0.2
		c-1.2,0.8-0.8,1.4-0.8,1.4l1.7-0.3L77.7,18.9z"/>
	<path class="st0" d="M41.7,36c0,0,1.1-1.4,1.6-2c0.4-0.7,1.1-1.3,2.1-1.2c0.9,0.1,2.8,1.1,3.4,1.4c0.6,0.3,1.2,1.2,1.7,1.2
		c0.4,0,1.1,0.6,0.9,0.7c-0.3,0.1-0.7-0.2-1.2-0.1c-0.5,0.1-0.9-0.1-1.1,0.1c-0.3,0.2-2.5,0.9-3.6,1.1c-1.1,0.2-2.6,0-2.9,0
		c-0.4,0-1.8,0.2-1.8,0.2L41.7,36z"/>
	<path class="st1" d="M79,50.6c-0.7-1.1-3.9-4.3-4.8-5c-0.7-0.5-1.7-2.1-2.3-3c-0.3-0.4-0.4-0.7-0.4-0.7s0.7,1.5,0.6,2.2
		c0,0.6-0.3,1.6-1.2,1.8c-0.9,0.2-1.7-0.1-1.7-0.1s1.1-0.6,2.1-1c1-0.3,0.2-3.2-0.7-4c-0.9-0.8-3.8-2.4-5.5-3.4
		c-1.7-1-4.4-1.2-5.5-0.7c-1,0.4,0.3,2.2,0.6,3.1c0.2,0.8,1.3,3.3,1.3,3.3c-0.8-0.5-1.8-2.5-2.5-3.5c-0.8-1.1-2.9-2.1-3.5-2
		c-0.6,0.1-1.5-0.2-2.1,0.6c-0.6,0.8-1.3,1.4-1.5,2c-0.1,0.6-0.1,1.8-0.1,1.8s-0.8,1.1-1.1,1.5c-0.3,0.4-0.6,1.2-0.6,1.8
		c0,0.6-0.3,1.7-0.1,2c0.1,0.3,1,1.3,1.5,1.9c0.5,0.6,0.7,0.7,1.3,0.7c0.6,0,2-0.3,2.9-0.5c-0.5,0.7-1.3,1.1-2,1.2
		c-0.7,0.1-1.4,0.4-1.9,0c-0.5-0.4-1.1-1.1-1.5-1.4c-0.5-0.3-1.4-0.7-1.8-0.7c-0.4,0.1-1.2,1-1.6,1.7c-0.4,0.8-0.5,3.1-0.5,3.4
		c0,0.3-0.6,0.8-0.8,1.4c-0.3,0.6-0.8,1.7-0.7,1.9c0.1,0.2,0.6,1.3,0.6,1.3s-1.3,1.5-1.5,1.8c-0.2,0.3-0.6,1.1-0.2,1.2
		c0.3,0.1,1.1,0.3,1.1,0.6c0,0.3,0,1.7,0,1.7s1.6-1.1,1.5-0.4c-0.1,0.7-0.6,1.6-0.6,1.6s0.5,0.3,1.1-0.4c0.6-0.7,0.7-1.9,1.4-1.8
		c0.7,0.1,2.9-0.2,4.3,0.2c1.4,0.3,2.9,0.7,4.4,1.1c1.5,0.4,4.7-0.2,5.5-0.3c0.8-0.1,3.8-1.6,4.6-2c0.8-0.4,2.1-1.1,3.9-1.5
		c1.7-0.4,3-0.6,4.7-1.3c1.7-0.7,5-3.6,5.2-3.8c0,0,0.5-0.5,0.6-1C81.4,53.3,80.7,53.2,79,50.6z M60.8,46.6c-0.3,0.3-0.9,0.5-2,0.4
		c-1.2-0.2-2,0.6-2.7-0.2c-0.7-0.9-0.4-0.9-0.4-1.7c0-0.8-0.2-0.8,0.8-1c1-0.2,2.1-1,2.8-0.2C60,44.6,60.8,46.6,60.8,46.6z M65.3,44
		c-0.2,0.7-1.6,2.1-2.6,1.9c-0.5-0.1-0.7-0.7-0.2-1.5c0.6-0.8,1.2-3.5,2.2-2.8C65.6,42.4,65.5,43.3,65.3,44z"/>
	<path class="st1" d="M54.1,64.7c-1.2-0.2-4.1-0.3-4.5-0.4c-0.4-0.1-1.7,0.9-2.2,1c-0.4,0.1-0.6,0.7-0.3,1.1
		c0.4,0.4,0.7,1.2,0.7,1.6c0,0.3,0.1,1.2,0.5,1.3c0.4,0.1,1.4,0.4,1.4,0.6c0,0.3-0.1,1.1,0.2,0.9c0.4-0.2,1.4-1.2,1.2-0.4
		c-0.3,0.8-0.3,2.3-0.2,2.5c0.1,0.2,0.2,0.4,0.6,0c0.4-0.4,0.2,0.4,0.1,0.6c-0.1,0.2,0.1,0.4,0.8-0.1c0.7-0.5,1-0.4,1.1,0.1
		c0.1,0.5,0.5,1.3,0.7,1.8c0.2,0.4,0.4,0.8,0.6,1.1c0.1,0.3-0.2,1.3,0.8,0.9c1-0.4,1.4-0.6,1.7-0.3c0.3,0.3,0.4,1.5,1,2
		c0.6,0.5,2.1,0.6,2.5,0.8c0.4,0.2,7.9,1.6,14-2.1C81,74,82,69.6,81.6,64.1c-0.3-2.9-0.5-4.4-0.4-5.2c0.1-0.8,0.8-3.2-0.2-4.4
		c-0.2,0.5-0.7,0.9-0.7,0.9s-0.3,1-1.4,2.2c-1.1,1.2-4.7,3.2-6.7,4.3c-2.1,1.1-5.3,2.8-10.5,2.9C56.4,65,54.1,64.7,54.1,64.7z"/>
	<path class="st1" d="M46.1,31.6c-0.5,0-1-0.4-2.1,0c-1.1,0.5-1.5,1-2,1.5c-0.5,0.4-1.6,1.4-1.7,1.5c-0.1,0.1-1.1,0-0.5-0.7
		c0.6-0.6,0.6-1,1.4-1.5c0.7-0.5,2.6-1.7,3.3-1.9c0.7-0.2,1.7,0.5,1.8,0.7C46.3,31.5,46.4,31.6,46.1,31.6z"/>
	<path class="st1" d="M46.5,37.5c-0.5,0.3-0.9,0.2-1.5,0.3c-0.6,0.1-1.2,0.3-1.6,0.3c-0.5,0-1-0.3-0.5-0.5c0.6-0.2,0.9-0.1,1.7-0.2
		c0.8-0.1,1.1-0.4,1.6-0.3C46.9,37.2,46.9,37.3,46.5,37.5z"/>
	<path class="st1" d="M50,36.9c-0.9,0.5-2.6,1.7-2.9,1.8c-0.4,0.1-1.2,0.5-2.1,0.5c-1,0-1.7-0.7-2.1-0.9c-0.5-0.3-1-0.6-1.4-0.5
		c-0.4,0.1-1.1,0.5-0.5,1.3c0.6,0.8,1.3,1.7,1.8,1.9c0.5,0.2,0.5,0.3,0.1,0.3c-0.3,0,0,0.3-0.8-0.1c-0.7-0.4-1.4-0.1-0.8,0.2
		c0.6,0.3,1.8,1.1,4.1,0.3c2.3-0.8,3.2-1.6,3.7-2.5c0.6-0.9,1.1-1.7,1.2-1.8c0.1-0.1-1.2,2.1-1.4,2.4c-0.2,0.3-1.5,1.2-1.8,1.5
		c-0.3,0.3-0.8,0.8-0.8,0.8s-0.2,0.6,0.8,0.1c1-0.6,1.5-0.7,2.2-1.4c0.7-0.7,0.9-1.2,1.2-1.9c0.2-0.7,0.5-0.9,0.5-1.3
		C50.8,37.1,50.4,36.7,50,36.9z"/>
	<path class="st1" d="M51.1,38.1c0.1-0.6-0.4,1.9-0.8,2.7c-0.4,0.8-1.2,1.7-1.6,2c-0.4,0.3-0.9,0.5-1.1,0.6
		c-0.2,0.1-0.1-0.3,0.7-1.1C49.1,41.5,51,38.5,51.1,38.1z"/>
	<path class="st1" d="M47.7,42.6c-0.6,0.6-1.9,1-2.4,1.1c-0.5,0.1-0.9-0.1-0.2-0.4c0.7-0.3,1.5-0.5,2.2-0.9
		C47.9,42,48.2,42.1,47.7,42.6z"/>
	<path class="st1" d="M81.5,18.6c1.1,0,1.4-0.2,2-0.6c0.6-0.4,1.7-1.1,2.5-1.3c0.8-0.2,1.3-0.5,2-0.3c0.7,0.2,0.7,0.2,0.7,0.2
		s-2.4-0.9-3-1.1c-0.6-0.2-1.2,0.2-1.9,0.2c-0.7,0-1.7,0.3-2.3,0.5c-0.5,0.3-1.6,1.3-1.8,1.6C79.5,18.1,80.7,18.6,81.5,18.6z"/>
	<path class="st1" d="M81.7,20.4c0.3-0.6,1.5-1.6,2-2c0.5-0.4,1.3-1,2-1.2c0.7-0.2,2-0.5,2.5-0.5c0.5,0,1,0.5,1.5,1.1
		c0.5,0.6,1.3,2.2,1.5,3.7c0.1,1.5-0.1,3.8-0.4,4.6c-0.3,0.8-1.2,2.2-1.5,2.5c-0.3,0.2-0.6-0.7-0.7-1c-0.1-0.3-0.6-0.6-0.1-1.1
		c0.5-0.5,1-0.4,1-0.4s-0.4-0.3-0.2-0.6c0.2-0.3,0.6-1,0.6-1s-0.4-0.2-0.6-0.7c-0.1-0.4-0.3-0.9-0.3-0.9l-0.5-0.9
		c0,0,1.3,0.9,1.2,0.7c-0.1-0.3-0.1-1-0.3-1.5c-0.2-0.5-0.9-0.8-1.1-1.2c-0.2-0.4-0.2-1-0.3-1.3c-0.1-0.3-0.7-1-1.1-1
		c-0.4,0-0.5,0.3-0.8,0.4c-0.3,0.1-0.8,0-0.8,0s-0.9,0-0.4,0.4c0.5,0.5,0.7,1.4,0.8,1.6c0.1,0.2,0.6-0.1,0.8,0.9
		c0.2,1,0.6,2.7,0.4,3.2c-0.2,0.5,0.1,2-0.2,1.8c-0.4-0.2-0.9-0.3-0.8,0.2c0.1,0.5-0.3,1.5-0.6,1c-0.3-0.6-1.3-0.7-1.3-1.4
		c-0.1-0.6,0-1.5,0-1.5S82.9,23.4,83,23c0.1-0.5-0.5-1,0.1-1.2c0.6-0.2,1.5,0,1.4-0.2c-0.1-0.2-0.3-1.7-0.4-2c0-0.3-0.1-0.8-0.1-0.8
		s-0.3,0.3-0.7,1.2c-0.3,0.9-0.9,2.3-0.9,2.3l-0.4-1c0,0-0.7,0.4-1,0.5c-0.3,0.1-0.4,0.1-0.7,0.5c-0.3,0.4-0.7,0.6-0.7,0.6
		s-0.6-0.6-0.2-1.2c0.5-0.5,0.4-1.1,0.9-1C81.1,21.1,81.5,20.7,81.7,20.4z"/>
	<path class="st1" d="M42.9,33.4c-0.4,0-0.3-0.1-0.1-0.4s0.6-0.6,1.3-0.8c0.7-0.2,1.4-0.5,2.6-0.2c1.2,0.3,2.1,1,2.3,1.2
		c0.2,0.2,0.9,1,0.9,1s1,0.7,1.2,0.8c0.2,0.1,0.4,0.5-0.1,0.5c-0.4,0-1.4-0.4-1.5-0.7c-0.1-0.3-1.5-1.6-2.6-1.9
		c-1-0.2-1.3-0.6-2.2-0.3C43.9,33,43.5,33.4,42.9,33.4z"/>
	<path class="st1" d="M50.7,36c-0.2,0-1.3-0.2-1.8,0.2c-0.6,0.4-1.3,0.6-1.6,0.7c-0.3,0.1-0.7,0.8-1.1,0.9c-0.4,0.1-0.8,0-1.1,0.1
		c-0.3,0.1-0.8,0.4-0.8,0.4s0.5,0.1,0.9,0.2c0.4,0.1,1.4,0.1,1.7-0.2c0.3-0.3,0.7-0.7,1.1-0.9c0.4-0.2,0.7-0.6,1-0.6
		c0.3-0.1,1.1-0.1,1.3-0.1C50.6,36.7,51.4,36.1,50.7,36z"/>
	<path class="st1" d="M62.4,30c0,0-0.2,1,0.4,1.5c0.6,0.5,1.7,0.8,2.5,0.2c0.8-0.6,1.3-2-0.1-3.1c0.3,0.4,0.5,0.7,0.3,0.7
		c-0.2,0,0.3,0.4,0.1,0.5c-0.2,0.1-0.5,0.4-0.4,0.6c0.1,0.2-0.1,0.1-0.3,0.1c-0.2,0-0.4,0.2-0.4,0.2L63.8,31c0,0,0,0.2,0.3,0.3
		c0.3,0.1,0.3,0.2,0.4,0.3c-0.5,0.2-1,0.3-1.5-0.2C62.6,30.9,62.4,30.4,62.4,30z"/>
	<g>
		<path class="st1" d="M53.7,28.7c-0.1,0.1-0.3,0.1-0.4,0.1c-0.2,0.3-0.5,0.8-0.6,1c-0.1,0.3,0.7,0.8,1.1,1c0,0,0,0,0.1,0
			c0-0.1,0.1-0.1,0.1-0.2c0,0,0-0.1,0-0.2c0.2-0.7,0.5-0.7,0.3-1C54.3,29,54,28.5,53.7,28.7z"/>
		<path class="st1" d="M51.4,21.4c-0.9,0.2-3.3-0.2-4.3,0c-1,0.2-3.3,1.5-4.5,1.8c-1.2,0.3-3.5,1.5-5.7,2.6c-2.2,1.1-2.4,2.5-3.2,4
			c-0.8,1.5-0.8,4.4-0.5,5c0.3,0.6,1.4,0.5,2.1,0.1c0.5-0.4,1-0.8,1.4-1.4c0.1-0.9,0.1-1.7,0.1-2c0.1-0.4,0.4-1.1,0.4-1.1
			s0.4,0.3,0.7,0.3c0.3,0,0.7-0.5,0.9-0.8c0.2-0.3,0.4-0.8,0.4-0.8s0.6-0.1,0.7,0.1c0.1,0.2,0.7,0.4,0.9,0.3
			c0.3-0.1,0.2-0.5,0.2-0.5s0.6,0.1,1,0.1c0.4,0,0.7-1,0.6-1.4c-0.1-0.4,0.1-0.6,0.3-0.5c0.2,0.1,0.6,0.3,1,0.3
			c0.4,0,0.6-0.3,0.6-0.3s1,0.6,1.3,0.7c0.3,0.1,0.3-0.6,0.3-1.2c0-0.3-0.2-0.7-0.3-1.1c-0.1-0.1-0.1-0.1-0.1-0.2
			c-0.1-0.2-0.3-0.6-0.3-0.6s0.2,0.4,0.4,0.8c0.2,0.2,0.4,0.4,0.5,0.7c0.2,0.4,0.3,0.7,0.7,0.7c0.4,0.1,0.9-0.2,1-0.5
			c0.1-0.3,0.2-0.5,0.6-0.9c0.3-0.4,0.5-1.5,0.3-2c-0.2-0.5-0.2-0.9,0.1-1c0.3-0.2,0.4,0.7,0.4,0.9c0,0.2,0.2,0.8,0.2,1
			c0,0.2-0.3,0.5-0.5,0.9c-0.2,0.4,0.2,0.9,0.4,1.3c0.2,0.3,0.7,0.7,1.2,0.6c0.5,0,1-1.2,1.2-1.5c0,0,0,0.6,0,0.9
			c-0.1,0.4-0.2,0.5-0.1,1.1c0.1,0.6,0.4,0.9,0.7,1.1c0.2,0.2,0.5-0.1,0.6-0.3c-0.1,0-0.2-0.2,0-0.4c0.3-0.4,0.7-0.7,0.5-1.5
			c-0.2-0.8-0.5-1.5-0.8-2.2c-0.4-0.7-0.4-1.4-0.7-1.9C52.1,22.4,51.8,21.8,51.4,21.4z"/>
	</g>
	<path class="st1" d="M44,34.6c0,0-0.5,1.3,0.4,2.1c1,0.8,2.1,0.4,2.6,0.1c0.5-0.3,1.1-1.4,0.8-2c-0.3-0.5-1.2-1.2-1.2-1.2
		s0.4,0.9,0.5,1.1c0,0.2-0.2,0.3-0.2,0.5c0.1,0.2,0.1,0.4,0.1,0.4s0,0.5-0.3,0.7c-0.4,0.2-1,0.7-1.8,0.2C44.1,36,43.9,35.2,44,34.6z
		"/>
	<path class="st1" d="M46.6,35.8c-0.2,0-0.4,0.1-0.5,0.3c-0.2,0.2-0.3,0.3-0.3,0.3s-0.5-0.2,0-0.5c0.5-0.3,0.6-0.4,0.8-0.3
		C46.8,35.5,46.8,35.7,46.6,35.8z"/>
	<path class="st1" d="M17.6,32.1c-1-0.1-1.8,0-2.4,0.8c-0.6,0.8-1.6,2.3,0.2,2.2c1.8,0,1.9-1.4,2.7-1.3
		C18.9,33.9,18.5,32.2,17.6,32.1z"/>
	<path class="st1" d="M63.5,27.4c-2,1.1-2.7,3-2.9,3.5c-0.2,0.6-0.7,2.1-0.9,2.2c-0.1,0,0.5-0.3,0.5-0.2c0.1,0.2-0.5,0.2-0.5,0.4
		c0,0.3,1.1,0.4,1.9,0.2c0.7-0.2,1.3-0.1,2.3,0c1,0,1.5-0.1,2.1-0.2c0.6-0.1,1.5-0.4,1.4-0.6c-0.1-0.2,0.2-0.3,0.2-0.3
		s0.2,0,0.4-0.1c0,0,0.1-0.1,0.2-0.1c0.1-0.1,0.4-0.5,0.6-0.8c-0.1,0-0.2,0-0.3-0.1c-0.4,0-0.7-0.1-1-0.3c-0.8,0.4-3.7,1.5-4.6,1.6
		c-0.9,0.1-2.4,0.6-2.4,0.6c0.8-0.4,1-1.4,1.3-3c0.3-1.6,2.4-1.9,3.7-1.9c1.3,0,3,2.1,3,2.1s-0.2,0.1-0.5,0.3c0.1,0,0.1,0,0.1,0
		s0.6,0.2,0.8,0.4c0.2-0.4,0.4-0.4,1-0.6c0.3-0.1,0.2-0.4-0.3-0.6c-0.6-0.2-0.9-1.1-1.2-1.7C67.7,27.7,65.6,26.3,63.5,27.4z"/>
	<path class="st1" d="M72.4,29c-0.2-0.2-2-1.7-2.9-2.1c-0.9-0.4-3.1-1.7-4.8-1.3c-1.7,0.4-2.7,0.8-3.2,1.2c-0.5,0.4-1.7,1.4-1.8,2.5
		c-0.1,1.1-0.2,1.9-0.2,1.9s0.4-1.1,0.8-1.9c0.4-0.8,0.7-2.4,3.8-2.6c1.7-0.1,2.6,0.1,3.3,0.4c0.2,0,0.5,0.1,0.7,0.3
		c0.5,0.3,0.8,0.8,1,1c0.1,0.2,0.6,0.7,0.8,1c0.2,0.3,1.6-0.7,1.4,0c-0.1,0.3,0.1,1,0.3,1.4c0.2,0.4-0.3,0.3-0.3,0.3s0,0-0.2-0.2
		c-0.2-0.2-0.3-0.5-0.3-0.6c-0.1,0.2-0.2,0.4-0.3,0.6c-0.1,0.5,0.5,0.8,0.6,1.1c0.1,0.3,0.2,0.5-0.1,0.8c-0.3,0.3-0.3-0.1-0.4-0.4
		c-0.1-0.2-0.2-1-0.2-1s-0.2,0.3-0.8,0.8c-0.5,0.5-0.8,0.4-1.2,0.5c-0.2,0.1-0.3,0.2-0.5,0.4c-0.1,0.1-0.4,0.2-0.7,0.3
		c-0.6,0.2-1.4,0.3-1.7,0.4c-0.6,0.2-1.1,0-1.7,0c-0.2,0-0.8-0.1-1.3,0.1c0.6,0.4,1.4,0.8,1.6,0.9c0.3,0.1,1.3,0.4,1.6,0.4
		c0.3,0.1,0.4,0,0.7,0c0.2,0,0.6-0.3,0.4-0.1c0,0,0,0,0,0c0.4-0.2,0.8-0.3,1.1-0.5c0.3-0.2,0.6-0.9,0.7-1.1c0-0.2,0.4-0.5,0.4-0.5
		c-0.1,0.4-0.3,1-0.7,1.6c-0.4,0.6-0.5,0.5-1,0.6c-0.5,0-0.8,0.4-1.3,0.5c-0.2,0.1-0.4-0.1-0.7-0.1c-0.1,0-0.1,0-0.1-0.1
		c-0.3-0.2-0.8-0.2-1.1-0.3c-0.3-0.1-0.4-0.2-0.8-0.5c-0.4-0.2-0.4-0.3-0.8-0.5c-0.2-0.1-0.4-0.2-0.6-0.3c-0.2,0-0.4,0-0.6,0
		c-0.7,0.1-1.4-0.4-1.8-0.2c-0.4,0.2-0.6-0.2-0.9-0.6c-0.4,0.1-0.7,0.1-0.8,0.3c-0.2,0.3,0.2,1.8,0.9,1.9c0.6,0.1,0.6,0.3,0.6,0.3
		s0.7,0.2,1.5,0c0.8-0.2,0.2-0.7,0.2-0.7s1.1,0.7,2.3,1.1c1.2,0.4,2.7,0.7,3.6,1.2c0.9,0.4,1.9,0.8,2.7,0.2c0.8-0.6,0.9-1.2,0.9-1.2
		s-0.3,0.6-1.8,0.7c-1.5,0.1-3.8-1.1-3.8-1.1s1.4,0.3,2.4,0.3c1,0.1,2.1-0.1,2.7-0.6c0.6-0.5,1.1-1.6,1.4-2.6
		c0.3-0.9,0.3-1.4,0.6-2.1C72.4,30.3,72.6,29.2,72.4,29z"/>
	<path class="st1" d="M69.8,20.3c-0.8-0.4-3.5-2.7-5.2-2.8c-1.7-0.1-3.9,1-5,1.6c-1.2,0.6-1.9-0.5-3.9,0.2c-1.8,0.6-3,1.5-3.8,2
		c0.2,0.5,0.3,1.2,0.7,1.5c0.4,0.5,1.7,2.9,2.2,3.2c0.5,0.3,0.5,0.5,0.5,0.5s-1.3-0.5-1.1-0.1c0.2,0.4,0.3,1.3,0.6,1.5
		c0.3,0.2-0.4,0.1-0.4,0.1s-0.4,0.1-0.5,0.3c-0.1,0.2,0.3,0.1,0.5,0.3c0.2,0.3,0.6,0.8,0.5,1.2c0,0.2,0,0.4,0,0.6
		c0.2,0.1,0.4,0.3,0.7,0.4c0.6,0.3,1.5-0.6,1.8-1.5c0-0.1,0.1-0.2,0.1-0.3c-0.1-0.3-0.3-0.7-0.4-1.1c-0.1-0.2-0.1-0.3-0.2-0.4
		c0,0,0,0,0,0c-0.1,0-0.1-0.1,0,0c0.2,0,0.7,0.1,0.9,0.1c0.2,0,0-0.8-0.2-1c-0.1-0.3,0.2-0.5,0.2-0.6c0-0.1,0-0.7-0.4-1
		c-0.4-0.3-0.6-0.9-1.1-1.4c-0.5-0.5-0.7-1.3-1.1-1.9c-0.4-0.6,0-0.6,0.2-0.3c0.2,0.2,0.6,0.8,0.7,1.1c0.1,0.3,0.5,0.5,0.9,1
		c0.5,0.5,0.7,1.1,0.7,1.1s0,0,0.2,0.3c0.2,0.3,0.7,0.4,0.7,0.4s0.4,0.4,0.6,0.6c0.1,0.2,0.8-0.1,1-0.6c0.1-0.4,0.1-0.5-0.1-0.9
		c-0.2-0.4-0.2-0.5-0.1-0.8c0.1-0.3-0.1-0.8-0.4-1.4c-0.2-0.6-0.5-1.1-0.8-1.1c-0.3,0-0.4-0.4-0.8-0.6c-0.4-0.2,0-0.4,0.2-0.4
		c0.3-0.1,0.5,0.4,0.6,0.6c0.1,0.2,0.4,0.2,0.3,0.4c-0.1,0.2,0.5,0.4,0.6,0.7c0.1,0.3,0.6,1,0.6,1.5c0,0.5,0.1,0.8,0.2,1
		c0,0.1,0.2,0.1,0.5,0.2c0.2-0.2,0.4-0.4,0.5-0.3c0.3,0.1,0.9,0.4,1.2,0.3c0.3-0.1,4.6-0.6,3.4-1.1c-0.3-0.1-0.1-0.4,0.2-0.2
		c0.2,0.2,0.8,0.2,0.8,0.2l0.6,0.6c0.3,0.2,0.6,0.4,0.9,0.7c0.5,0.4,1.2,0.8,1.5,1c0.5,0.8,1.7,2.4,2.3,2.6c0.1,0,0.1,0,0.2,0.1
		c0.3-0.6,0.9-1.9,0.5-3.3C72.7,23.1,70.6,20.7,69.8,20.3z"/>
</g>
<g>
	<path class="st1" d="M27.7,108.7v-7c0-0.8-0.1-1.1-0.3-1.4c-0.3-0.5-0.9-0.9-1.5-0.9c-0.6,0-1.2,0.3-1.5,0.8
		c-0.3,0.5-0.3,0.5-0.3,1.6v6.9h-3.4v-7c0-1,0-1.1-0.3-1.5c-0.3-0.5-0.9-0.8-1.4-0.8c-0.6,0-1.2,0.3-1.5,0.8
		c-0.2,0.4-0.3,0.5-0.3,1.5v6.9h-3.5v-6.4c0-2.1,0.2-2.9,0.8-3.9c0.9-1.4,2.5-2.2,4.1-2.2c1.4,0,2.5,0.5,3.6,1.6
		c1.3-1.1,2.3-1.5,3.6-1.5c1.7,0,3.2,0.8,4.2,2.2c0.7,1.1,1,2,1,3.9v6.4H27.7z"/>
	<path class="st1" d="M45.9,102.8c0,3.4-2.9,6.3-6.4,6.3c-3.6,0-6.4-2.9-6.4-6.4c0-3.6,2.9-6.4,6.5-6.4
		C43.1,96.2,45.9,99.2,45.9,102.8z M36.6,102.7c0,1.7,1.3,3.1,3,3.1c1.6,0,2.9-1.4,2.9-3c0-1.7-1.3-3.1-2.9-3.1
		C37.9,99.6,36.6,101,36.6,102.7z"/>
	<path class="st1" d="M55.2,108.7v-6.4c0-1.1-0.1-1.4-0.3-1.8c-0.3-0.6-1-1-1.7-1c-0.7,0-1.4,0.4-1.7,1c-0.3,0.4-0.3,0.7-0.3,1.8
		v6.4h-3.5v-6.3c0-1.9,0.3-2.9,1.1-4c1-1.4,2.7-2.2,4.4-2.2c1.8,0,3.4,0.8,4.4,2.3c0.7,1,1,2.1,1,3.8v6.4H55.2z"/>
	<path class="st1" d="M64.7,108.7h-3.4V89.9h3.4V108.7z M68.1,102.5l4.5,6.2h-4.3l-2.5-3.7c-1.1-1.6-1.1-1.7-1.1-2.4
		c0-0.7,0.3-1.4,1.1-2.7l2.1-3.3h4L68.1,102.5z"/>
	<path class="st1" d="M84.7,104.8c-1,2.5-3.1,4.1-5.8,4.1c-3.4,0-6.2-2.7-6.2-6.2c0-3.4,2.7-6.2,6.1-6.2c3.2,0,6,2.6,6,5.4
		c0,1.3-1.1,2.1-2.7,2.1h-5.9c0.5,1.1,1.3,1.7,2.5,1.7c0.8,0,1.3-0.3,2-0.9H84.7z M81.3,101.5c-0.5-1.2-1.3-1.8-2.5-1.8
		c-1.2,0-2.2,0.7-2.5,1.8H81.3z"/>
	<path class="st1" d="M97.5,108.6c0,2.7-0.2,3.4-1,4.6c-1,1.4-2.7,2.3-4.5,2.3c-1.8,0-3.5-0.9-4.6-2.5c-0.7-1-0.9-1.8-1-3.2h3.4
		c0.1,1.6,0.9,2.4,2.1,2.4c0.7,0,1.5-0.5,1.8-1.1c0.2-0.4,0.3-0.9,0.3-1.9v-1.1c-0.8,0.5-1.6,0.7-2.5,0.7c-1.8,0-3.5-1-4.2-2.6
		c-0.5-1-0.5-1.6-0.5-3.9v-5.7h3.4v5.6c0,1.4,0,1.6,0.1,2c0.2,0.8,1,1.4,1.8,1.4c0.8,0,1.6-0.6,1.8-1.3c0.1-0.4,0.1-0.4,0.1-2v-5.7
		h3.5V108.6z"/>
	<path class="st1" d="M26.3,114.3L26.3,114.3c0-1.3,1-2.4,2.3-2.4c0.8,0,1.3,0.3,1.8,0.7l-0.5,0.6c-0.4-0.3-0.8-0.6-1.3-0.6
		c-0.9,0-1.5,0.7-1.5,1.6v0c0,0.9,0.6,1.6,1.5,1.6c0.6,0,0.9-0.2,1.3-0.6l0.5,0.5c-0.5,0.5-1,0.8-1.8,0.8
		C27.3,116.6,26.3,115.6,26.3,114.3z"/>
	<path class="st1" d="M33.9,112h2c0.6,0,1,0.2,1.3,0.5c0.2,0.2,0.4,0.6,0.4,1v0c0,0.7-0.4,1.2-1.1,1.4l1.2,1.7h-0.9l-1.1-1.6h-1v1.6
		h-0.8V112z M35.9,114.2c0.6,0,0.9-0.3,0.9-0.8v0c0-0.5-0.3-0.8-0.9-0.8h-1.2v1.5H35.9z"/>
	<path class="st1" d="M41.2,112h3.4v0.7H42v1.2h2.3v0.7H42v1.2h2.6v0.7h-3.4V112z"/>
	<path class="st1" d="M49.7,111.9h0.7l2,4.6h-0.8l-0.5-1.1H49l-0.5,1.1h-0.8L49.7,111.9z M50.9,114.7l-0.8-1.8l-0.8,1.8H50.9z"/>
	<path class="st1" d="M56.3,112.7h-1.4V112h3.7v0.7h-1.4v3.8h-0.8V112.7z"/>
	<path class="st1" d="M62.1,112h0.8v4.5h-0.8V112z"/>
	<path class="st1" d="M66.3,112h0.9l1.4,3.5l1.4-3.5h0.9l-1.9,4.6h-0.7L66.3,112z"/>
	<path class="st1" d="M74.1,112h3.4v0.7h-2.6v1.2h2.3v0.7h-2.3v1.2h2.6v0.7h-3.4V112z"/>
</g>
</svg>
