<?xml version="1.0" encoding="utf-8"?>
<!-- Generator: Adobe Illustrator 22.0.1, SVG Export Plug-In . SVG Version: 6.00 Build 0)  -->
<svg version="1.1" xmlns="http://www.w3.org/2000/svg" xmlns:xlink="http://www.w3.org/1999/xlink" x="0px" y="0px"
	 viewBox="0 0 274.3 90.5" style="enable-background:new 0 0 274.3 90.5;" xml:space="preserve">
<style type="text/css">
	.st0{fill:#00B2FF;}
	.st1{fill:#00B200;}
</style>
<g id="Layer_2">
</g>
<g id="Layer_1">
	<g>
		<g>
			<g>
				<g>
					<path class="st0" d="M229.5,61c-1.6,0-4.9-2.5-7.7-2.5c-1.6,0-2.9,0.7-2.9,2.4c0,4,15,3.4,15,13.3c0,5.8-4.9,10.1-12.3,10.1
						c-4.9,0-12.1-2.8-12.1-6.7c0-1.3,1.3-3.8,3.7-3.8c3.4,0,4.9,2.9,8.9,2.9c2.6,0,3.4-0.8,3.4-2.5c0-4-15-3.4-15-13.3
						c0-6,4.9-10.1,11.7-10.1c4.3,0,10.8,2,10.8,6.2C233,59.2,231.5,61,229.5,61z"/>
				</g>
				<g>
					<path class="st0" d="M229.7,40.9H163c-3,0-4.7,2.2-4.7,4.7v33.7c0,3,1.9,4.7,4.5,4.7c2.6,0,4.5-1.7,4.5-4.7V66.2h9.3
						c2.9,0,4.3-2.1,4.3-4.2c0-2-1.4-4.1-4.3-4.1h-9.3v-8.8h24.8v30.1c0,3,1.9,4.7,4.5,4.7c2.6,0,4.5-1.7,4.5-4.7V49.2h28.6
						c2.9,0,4.1-2.1,4.1-4.1C233.8,42.9,232.3,40.9,229.7,40.9z"/>
				</g>
				<path class="st0" d="M143.9,57.1c0-3,1.9-4.7,4.5-4.7c2.6,0,4.5,1.7,4.5,4.7v22.2c0,3-1.9,4.7-4.5,4.7c-2.6,0-4.5-1.7-4.5-4.7
					V57.1z"/>
			</g>
			<path class="st0" d="M143.9,45.2c0-3,1.9-4.7,4.5-4.7c2.6,0,4.5,1.7,4.5,4.7v0.2c0,3-1.9,4.7-4.5,4.7c-2.6,0-4.5-1.7-4.5-4.7
				V45.2z"/>
		</g>
		<g>
			<g>
				<path class="st1" d="M4.4,62.2c0-12.5,8.4-22.1,20.6-22.1c12.1,0,20.6,9.9,20.6,22.1c0,12.4-8.3,22.1-20.6,22.1
					C12.9,84.3,4.4,74.7,4.4,62.2z M36.4,62.2c0-7.3-3.8-13.8-11.3-13.8c-7.5,0-11.3,6.5-11.3,13.8c0,7.3,3.7,13.8,11.3,13.8
					C32.7,76,36.4,69.6,36.4,62.2z"/>
				<path class="st1" d="M53.8,45.1c0.4-2.2,2.7-4.6,5.9-4.6c3,0,5.3,2.2,6,4.3l7.1,23.8h0.1L80,44.8c0.7-2.2,3-4.3,6-4.3
					c3.2,0,5.5,2.5,5.9,4.6l5.6,33.5c0.1,0.4,0.1,0.7,0.1,1c0,2.6-1.9,4.3-4.3,4.3c-3.1,0-4.3-1.4-4.7-4.2L85,55.3h-0.1l-7.2,25.1
					c-0.4,1.4-1.6,3.5-4.8,3.5c-3.2,0-4.4-2-4.8-3.5l-7.2-25.1h-0.1l-3.5,24.4c-0.4,2.8-1.6,4.2-4.7,4.2c-2.4,0-4.3-1.7-4.3-4.3
					c0-0.3,0-0.7,0.1-1L53.8,45.1z"/>
				<path class="st1" d="M134.9,58.3c3.8,0,5.3,1.9,5.3,5.8c0,11.6-7.6,20.3-19.6,20.3c-12.2,0-20.6-9.7-20.6-22.1
					c0-12.5,8.4-22.1,20.6-22.1c9.1,0,16.5,4.3,16.5,8.5c0,2.6-1.6,4.2-3.7,4.2c-4.1,0-4.9-4.4-12.8-4.4c-7.5,0-11.3,6.5-11.3,13.8
					c0,7.3,3.7,13.8,11.3,13.8c4.7,0,10.2-2.6,10.2-9.5h-6.1c-2.5,0-4.2-1.7-4.2-4.2c0-2.5,1.9-4.1,4.2-4.1H134.9z"/>
			</g>
			<path class="st1" d="M260.7,26.9c-1.7-0.6-3.7-0.8-5.9-0.8c-1.4,0-2.8,0.1-4.1,0.3c0.7-3.2,1.2-6.8,0.5-10
				c-1.9-8.9-7.2-10.3-10.1-10.3c-0.7,0-1.5,0.1-2.2,0.2c-2.9,0.6-5.2,2.3-6.5,4.7c-1.3,2.5-1.5,5.6-0.7,9.5c0.5,2.5,1.8,5,3.3,7.2
				h-35.2l-6,8h44.8v47l8-6V40.9c2.3,2.1,5,4,7.9,5c2,0.7,3.9,1,5.6,1c4.5,0,7.9-2.4,9.3-6.6C270.1,38,271.6,30.5,260.7,26.9z
				 M239.5,14.8c0.1-0.1,0.2-0.4,1.1-0.6c0.2,0,0.4-0.1,0.6-0.1c1.3,0,2,2.7,2.3,3.9c0.4,1.8,0,4.4-0.6,6.9c-1.6-2-2.9-4.2-3.3-6.1
				C239,16.2,239.4,15.1,239.5,14.8z M261.8,37.8c-0.3,0.8-0.5,1.1-1.7,1.1c-0.8,0-1.9-0.2-3.1-0.6c-1.8-0.6-3.8-2.2-5.7-4
				c1.1-0.2,2.4-0.3,3.5-0.3c1.4,0,2.5,0.1,3.4,0.4C262.4,35.9,262,37.2,261.8,37.8z"/>
		</g>
	</g>
</g>
</svg>
