<?xml version="1.0" encoding="utf-8"?>
<!-- Generator: Adobe Illustrator 22.0.1, SVG Export Plug-In . SVG Version: 6.00 Build 0)  -->
<svg version="1.1" id="Layer_1" xmlns="http://www.w3.org/2000/svg" xmlns:xlink="http://www.w3.org/1999/xlink" x="0px" y="0px"
	 viewBox="0 0 123.9 143.3" style="enable-background:new 0 0 123.9 143.3;" xml:space="preserve">
<style type="text/css">
	.st0{fill:#1A2F00;}
	.st1{fill:url(#SVGID_1_);}
	.st2{opacity:0.29;}
	.st3{fill:#0B5129;}
</style>
<g id="Layer_2_1_">
</g>
<g id="Layer_1_1_">
	<g>
		<path class="st0" d="M13.4,117.4c0,0.5,0.1,1.1,0.6,1.2c0.2,0.1,0.6,0.1,1.1,0.1v0.7c-0.9-0.1-1.7-0.1-2.6-0.1s-1.7,0.1-2.7,0.1
			v-0.7c1,0.1,1.6,0.1,1.6-1.3v-9c0-1.3-0.5-1.4-1.6-1.3v-0.7c0.7,0,2.1,0.1,2.7,0.1c1,0,1.6-0.1,2.2-0.1c0.5,0,1.1,0,1.6,0
			c2.8,0.1,3.8,1.6,3.8,3.2c0,0.9-0.3,1.8-1.2,2.5c-0.8,0.7-1.7,0.8-2.1,0.9c0.4,0.1,0.8,0.3,1.5,1c0.5,0.6,0.8,1.4,1.7,3.2
			c0.7,1.4,1.1,1.4,1.7,1.4v0.7h-1.5c-1,0-1.3-0.1-1.6-0.5c-0.8-0.9-1.2-2.9-2.1-4.5c-0.5-0.9-1-1-1.8-1h-1.4L13.4,117.4L13.4,117.4
			z M13.4,112.7c1,0.1,2.4-0.1,2.9-0.2c1.3-0.3,1.9-1.3,1.9-2.6c0-1-0.4-1.8-0.8-2.2c-0.7-0.6-1.7-0.6-2.6-0.6
			c-1.3,0-1.4,0.2-1.4,0.8V112.7z"/>
		<path class="st0" d="M31.5,117.5c0,1.2,0,1.3,1.2,1.3v0.6c-0.2,0-0.4,0-0.5,0c-0.2,0-0.4,0-0.6,0c-0.6,0-1.2,0.1-1.7,0.2v-2.1
			c-0.3,0.5-0.6,1.1-1.3,1.5c-0.7,0.5-1.4,0.6-1.8,0.6c-0.7,0-1.4-0.3-1.8-0.7c-0.6-0.6-0.6-1.4-0.6-2.6v-3.5c0-1.4-0.1-1.4-1.3-1.4
			v-0.6c0.5,0,0.9-0.1,1.8-0.4c0.1,0,0.6-0.2,0.8-0.3h0.4v6.5c0,1,0.4,1.7,1.4,1.7c0.4,0,0.9-0.1,1.4-0.5s0.8-0.8,1-1.1v-4
			c0-1.3-0.1-1.4-1.3-1.4v-0.6c0.5,0,0.9-0.1,1.8-0.4c0.3-0.1,0.6-0.2,0.8-0.3h0.4L31.5,117.5L31.5,117.5z"/>
		<path class="st0" d="M41.8,113.9c0-1.2,0-2.5-1.5-2.5c-1.3,0-2.3,1-2.6,1.3v4.8c0,1.1,0,1.3,1.1,1.3v0.6c-0.8-0.1-1.4-0.1-2.1-0.1
			c-0.6,0-1.3,0.1-1.9,0.1v-0.6c1.3,0,1.3-0.1,1.3-1.3v-4.7c0-1.3-0.1-1.5-1.3-1.5v-0.6c1-0.1,1.5-0.2,2.4-0.6h0.3
			c0.1,0.4,0.1,1,0.1,1.9c0.5-0.5,1.6-1.7,3.4-1.7c0.7,0,1.4,0.2,1.9,0.8c0.5,0.6,0.5,1.4,0.5,2v4.5c0,1.2,0,1.3,1.2,1.3v0.6
			c-0.7-0.1-1.3-0.1-2-0.1s-1.3,0.1-1.9,0.1v-0.6c1.1,0,1.1-0.2,1.1-1.3V113.9z"/>
		<path class="st0" d="M53.9,117.2c0,0.7,0,1.1,0.5,1.1c0.3,0,0.4-0.1,0.7-0.5l0.4,0.4c-0.4,0.7-1,1.2-1.9,1.3c-1,0-1.3-0.7-1.4-1.4
			c-0.5,0.6-1.4,1.5-2.6,1.5c-1.6,0-2.5-1.3-2.5-2.6c0-0.2,0-0.4,0.1-0.7c0.3-1.4,1.8-2.2,5.1-2.5v-1.2c0-0.9-0.2-1.8-1.5-1.8
			c-0.6,0-1.2,0.4-1.3,0.8c-0.1,0.1-0.1,0.2-0.1,0.6c0,0.8-0.8,0.9-1,0.9c-0.5,0-0.9-0.4-0.9-0.9c0-0.8,0.8-2,3.2-2
			c0.8,0,1.9,0.1,2.5,0.7c0.8,0.7,0.8,1.5,0.8,2.3v4H53.9z M52.3,114.4c-0.6,0.1-1.1,0.2-1.7,0.3c-0.9,0.3-1.8,0.6-1.8,1.9
			c0,1,0.6,1.6,1.5,1.6c0.5,0,0.9-0.1,1.2-0.4c0.4-0.3,0.6-0.6,0.8-0.8V114.4z"/>
		<path class="st0" d="M65.3,116.8c-0.2,0.3-0.6,1.2-1.4,1.9c-0.2,0.2-1,0.9-2.4,0.9c-2.4,0-3.8-2-3.8-4.7c0-2.8,1.6-4.8,4.2-4.8
			c1.9,0,2.9,0.9,2.9,2c0,0.5-0.4,1-1,1s-0.9-0.4-0.9-1c0-0.1,0-0.5,0-0.5c0-0.5-0.6-0.8-1.3-0.8c-1.5,0-2.4,1.5-2.4,3.6
			c0,2.4,1.3,3.8,2.9,3.8c1.3,0,2.1-1,2.5-1.7L65.3,116.8z"/>
		<path class="st0" d="M70.4,112.6c0.5-1.3,1.8-2.4,2.6-2.4c0.6,0,1,0.4,1,1.2c0,1.3-0.9,1.3-1,1.3c-0.4,0-0.6-0.3-0.7-0.6
			c-0.1-0.5-0.1-0.5-0.3-0.5c-0.4,0-1.1,0.8-1.6,1.9v4c0,1.3,0.1,1.3,1.6,1.3v0.6c-1.1-0.1-1.7-0.1-2.5-0.1c-0.7,0-1.5,0.1-2.1,0.1
			v-0.6c1.3,0,1.4,0,1.4-1.3v-4.6c0-1.5,0-1.5-1.3-1.6v-0.6c0.9-0.1,1.4-0.2,2.5-0.6h0.3v2.5H70.4z"/>
		<path class="st0" d="M83.6,116.8c-0.4,0.9-1.6,2.8-3.7,2.8c-2.3,0-3.8-1.8-3.8-4.8c0-0.8,0.1-2.1,0.9-3.1c1-1.4,2.3-1.5,3.1-1.5
			c1,0,1.9,0.3,2.6,1c1,1.1,0.9,2.5,0.9,3h-5.8c0,3.2,1.7,4.1,2.8,4.1c1.5,0,2.2-0.8,2.6-1.7L83.6,116.8z M81.8,113.5
			c0.1-1.3-0.4-2.7-1.8-2.7c-0.6,0-1.2,0.3-1.6,0.8c-0.6,0.7-0.6,1.6-0.6,1.9L81.8,113.5L81.8,113.5z"/>
		<path class="st0" d="M88.4,115.3c-1.3-0.6-2.2-1.2-2.2-2.6c0-1.3,1.1-2.6,3.1-2.6c0.2,0,1.3,0,2.5,0.6c-0.1,0.9-0.1,1.2-0.1,2.1
			h-0.8c-0.1-0.7-0.2-1.9-1.7-1.9c-0.9,0-1.6,0.5-1.6,1.2s0.4,0.9,2.5,1.9c1.4,0.7,2.3,1.2,2.3,2.6s-1,3-3.3,3c-0.3,0-1.8,0-3-0.9
			c0.1-0.9,0.1-1.2,0.2-2.3H87c0,0.3,0.1,0.7,0.2,1c0.1,0.4,0.7,1.3,2,1.3c0.7,0,1.6-0.3,1.6-1.4c0-1-0.7-1.3-1.5-1.7L88.4,115.3z"
			/>
		<path class="st0" d="M115.7,119.8c-1.4-0.3-1.8-0.3-3.2-0.5c-0.9-0.8-1-0.8-1.5-1.3c-0.7,0.8-2.4,1.6-4.7,1.6
			c-2.8,0-4.8-1.5-4.8-3.7c0-1.3,0.6-2.2,1.3-2.8c0.8-0.7,1.7-1,2.5-1.2c-0.6-0.8-1.3-1.9-1.3-3.1c0-0.7,0.3-1.6,0.9-2.1
			c0.6-0.6,1.6-0.9,2.4-0.9c2,0,3.1,1.4,3.1,2.6c0,0.9-0.6,1.7-1.3,2.3c-0.6,0.5-1.2,0.8-1.7,1c1.6,2,2.3,2.7,4.2,4.6
			c0.2-0.3,0.5-0.9,0.7-1.6c0.2-1,0.2-1.8,0.1-2.1h-1.5c-0.4,0-0.6,0.1-0.6,0.3c0,0.1,0,0.1,0,0.2l-0.6-0.2c0.2-0.6,0.7-1,0.9-1.2
			c0.4-0.3,0.7-0.3,1.5-0.3h2.2c0.6,0,0.9,0,0.9-0.2c0-0.1-0.2-0.3-0.3-0.3l0.6-0.3c0,0.2,0.1,0.3,0.1,0.6c0,0.7-0.6,1.3-1.9,1.2
			c0,0.8-0.1,1.3-0.4,2.2c-0.4,1-0.9,1.6-1.2,2c0.6,0.6,1.3,1.2,1.5,1.3c0.8,0.7,1.2,1,1.9,0.8v1.1H115.7z M107.3,118.6
			c0.6,0,1.2-0.1,1.7-0.3c0.8-0.3,1.2-0.6,1.4-0.8c-0.7-0.6-1-1-2.2-2.3c-1.3-1.4-1.7-2-2.3-2.7c-1.4,0.5-2.4,1.7-2.4,3
			C103.6,117.3,105.4,118.6,107.3,118.6z M105.6,108.1c0,0.8,0.4,1.5,0.7,2c0.2,0.4,0.6,0.8,0.8,1c0.2-0.1,0.5-0.2,0.8-0.5
			c0.3-0.2,1.1-0.8,1.1-2c0-1.3-0.8-2.1-1.8-2.1C106,106.5,105.6,107.4,105.6,108.1z"/>
		<path class="st0" d="M15.5,132.3H12l-1,2.5c-0.1,0.2-0.1,0.3-0.1,0.4c0,0.4,0.7,0.4,1.3,0.4v0.5c-0.7-0.1-1.1-0.1-1.7-0.1
			c-0.5,0-1.1,0-1.6,0.1v-0.5c0.7,0,1,0,1.4-1l3.8-8.8h0.6l3.7,9.2c0.2,0.5,0.3,0.7,1.1,0.6v0.5c-0.6,0-1.3-0.1-1.9-0.1
			c-0.7,0-1.1,0-2.1,0.1v-0.5c1.1,0,1.5,0,1.1-1L15.5,132.3z M15.3,131.7l-1.5-3.8l-1.5,3.8H15.3z"/>
		<path class="st0" d="M22.9,133c-1-0.4-1.7-1-1.7-2s0.9-2,2.4-2c0.2,0,1,0,2,0.5c0,0.7-0.1,0.9-0.1,1.6h-0.6
			c-0.1-0.5-0.2-1.5-1.3-1.5c-0.7,0-1.2,0.4-1.2,1s0.3,0.7,1.9,1.5c1.1,0.5,1.8,0.9,1.8,2s-0.8,2.3-2.5,2.3c-0.3,0-1.4,0-2.3-0.7
			c0.1-0.7,0.1-0.9,0.1-1.8H22c0,0.2,0,0.5,0.2,0.8c0.1,0.3,0.5,1,1.6,1c0.6,0,1.2-0.2,1.2-1.1c0-0.8-0.6-1-1.1-1.3L22.9,133z"/>
		<path class="st0" d="M29.9,133c-1-0.4-1.7-1-1.7-2s0.9-2,2.4-2c0.2,0,1,0,2,0.5c0,0.7-0.1,0.9-0.1,1.6h-0.6
			c-0.1-0.5-0.2-1.5-1.3-1.5c-0.7,0-1.2,0.4-1.2,1s0.3,0.7,1.9,1.5c1.1,0.5,1.8,0.9,1.8,2s-0.8,2.3-2.5,2.3c-0.3,0-1.4,0-2.3-0.7
			c0.1-0.7,0.1-0.9,0.1-1.8H29c0,0.2,0,0.5,0.2,0.8c0.1,0.3,0.5,1,1.6,1c0.6,0,1.2-0.2,1.2-1.1c0-0.8-0.6-1-1.1-1.3L29.9,133z"/>
		<path class="st0" d="M42.1,132.6c0,2.4-1.5,3.8-3.5,3.8c-1.8,0-3.4-1.1-3.4-3.6c0-1.2,0.4-2.3,1.1-2.9c0.5-0.5,1.4-0.9,2.4-0.9
			C40.8,129,42.1,130.4,42.1,132.6z M37.1,130.6c-0.3,0.6-0.4,1.2-0.4,1.9c0,0.5,0,0.8,0.1,1.1c0.1,0.9,0.5,1.4,0.8,1.7
			c0.3,0.3,0.7,0.4,1.1,0.4c1.2,0,2-1.2,2-3.1c0-0.4-0.1-1.3-0.4-2c-0.2-0.5-0.7-1.1-1.6-1.1C37.9,129.5,37.4,129.9,37.1,130.6z"/>
		<path class="st0" d="M50.5,134.2c-0.1,0.3-0.4,0.9-1.1,1.5c-0.2,0.2-0.8,0.7-1.8,0.7c-1.8,0-2.9-1.6-2.9-3.6
			c0-2.2,1.2-3.7,3.3-3.7c1.5,0,2.3,0.7,2.3,1.5c0,0.4-0.3,0.8-0.8,0.8c-0.4,0-0.7-0.3-0.7-0.7c0-0.1,0-0.4,0-0.4
			c0-0.4-0.5-0.7-1-0.7c-1.2,0-1.9,1.2-1.9,2.8c0,1.8,1,2.9,2.3,2.9c1,0,1.6-0.7,2-1.3L50.5,134.2z"/>
		<path class="st0" d="M55.8,136.2c-0.6,0-1.1-0.1-1.6-0.1s-1,0-1.6,0.1v-0.5c1,0,1-0.1,1-1v-3.6c0-1.2-0.1-1.2-1-1.2v-0.4
			c0.7,0,0.8-0.1,2-0.5h0.3v5.7c0,0.6,0,0.7,0.1,0.8c0.2,0.2,0.5,0.2,0.8,0.2L55.8,136.2L55.8,136.2z M55,126.3c0,0.6-0.4,1-0.8,1
			c-0.5,0-0.8-0.4-0.8-1c0-0.5,0.4-0.9,0.9-0.9C54.6,125.4,55,125.8,55,126.3z"/>
		<path class="st0" d="M63.3,134.4c0,0.5,0,0.9,0.4,0.9c0.2,0,0.3-0.1,0.5-0.4l0.4,0.3c-0.3,0.5-0.8,1-1.5,1c-0.8,0-1-0.5-1.1-1.1
			c-0.4,0.5-1.1,1.2-2.1,1.2c-1.2,0-2-1-2-2c0-0.2,0-0.3,0.1-0.6c0.3-1.1,1.4-1.7,4-1.9v-0.9c0-0.7-0.1-1.4-1.2-1.4
			c-0.5,0-0.9,0.3-1,0.6c0,0.1,0,0.2,0,0.5c0,0.6-0.6,0.7-0.8,0.7c-0.4,0-0.7-0.3-0.7-0.7c0-0.6,0.6-1.6,2.5-1.6
			c0.6,0,1.4,0.1,1.9,0.5c0.6,0.5,0.6,1.1,0.6,1.8L63.3,134.4L63.3,134.4z M62,132.3c-0.4,0.1-0.9,0.1-1.3,0.3
			c-0.7,0.2-1.4,0.5-1.4,1.5c0,0.8,0.5,1.3,1.2,1.3c0.4,0,0.7-0.1,1-0.3c0.3-0.2,0.5-0.4,0.6-0.6v-2.2H62z"/>
		<path class="st0" d="M68.5,129.8v4.5c0,1.1,0.6,1.1,0.9,1.1c0.4,0,0.6-0.3,0.8-0.6c0.1,0,0.3,0.1,0.4,0.2
			c-0.1,0.3-0.5,1.4-1.8,1.4c-0.5,0-1.5-0.1-1.5-1.9v-4.6h-1.1v-0.5c1.6-0.2,1.8-1.8,1.9-2.6h0.6l-0.1,2.5h1.6v0.6h-1.7V129.8z"/>
		<path class="st0" d="M78.3,134.2c-0.3,0.7-1.2,2.1-2.9,2.1c-1.8,0-3-1.4-3-3.7c0-0.7,0.1-1.6,0.7-2.4c0.8-1.1,1.8-1.2,2.4-1.2
			c0.7,0,1.5,0.2,2,0.8c0.8,0.8,0.7,1.9,0.7,2.4h-4.5c0,2.5,1.3,3.2,2.1,3.2c1.2,0,1.7-0.6,2-1.3L78.3,134.2z M76.8,131.6
			c0-1-0.3-2.1-1.4-2.1c-0.5,0-0.9,0.2-1.2,0.6c-0.4,0.6-0.5,1.2-0.5,1.5H76.8z"/>
		<path class="st0" d="M82.3,133c-1-0.4-1.7-1-1.7-2s0.9-2,2.4-2c0.2,0,1,0,2,0.5c0,0.7-0.1,0.9-0.1,1.6h-0.6
			c-0.1-0.5-0.2-1.5-1.3-1.5c-0.7,0-1.2,0.4-1.2,1s0.3,0.7,1.9,1.5c1.1,0.5,1.8,0.9,1.8,2s-0.8,2.3-2.5,2.3c-0.3,0-1.4,0-2.3-0.7
			c0.1-0.7,0.1-0.9,0.1-1.8h0.6c0,0.2,0,0.5,0.2,0.8c0.1,0.3,0.5,1,1.6,1c0.6,0,1.2-0.2,1.2-1.1c0-0.8-0.6-1-1.1-1.3L82.3,133z"/>
		<path class="st0" d="M101.3,133.1c-0.3,1.3-0.3,1.7-0.5,3.1c-1.1-0.1-2.2-0.1-3.6-0.1c-1.9,0-3.7,0-4.3,0.1v-0.5
			c0.9,0,1.3,0,1.3-1.1v-6.8c0-1-0.3-1.2-1.2-1.1v-0.5c0.7,0,1.3,0.1,2,0.1s1.3,0,2-0.1v0.5c-0.9,0-1.3,0-1.3,1.1v6.6
			c0,1,0,1.1,1.3,1.1c2.8,0,3.1-0.6,3.5-2.3h0.8V133.1z"/>
		<path class="st0" d="M105.4,129.8v4.5c0,1.1,0.6,1.1,0.9,1.1c0.4,0,0.6-0.3,0.8-0.6c0.1,0,0.3,0.1,0.4,0.2
			c-0.1,0.3-0.5,1.4-1.8,1.4c-0.5,0-1.5-0.1-1.5-1.9v-4.6H103v-0.5c1.6-0.2,1.8-1.8,1.9-2.6h0.6l-0.1,2.5h1.6v0.6h-1.6V129.8z"/>
		<path class="st0" d="M114.2,135c-0.2,0.3-0.4,0.5-0.7,0.8c-0.3,0.2-0.9,0.5-1.6,0.5c-1.7,0-2.6-1.6-2.6-3.5c0-0.8,0.1-1.6,0.5-2.3
			c0.5-1,1.5-1.6,2.6-1.6s1.6,0.6,1.8,0.8V127c0-0.6-0.1-0.7-0.7-0.7h-0.6v-0.5c0.6,0,1.5-0.1,2.1-0.4h0.4v9.2c0,0.4,0,0.7,0.1,0.9
			c0.1,0.2,0.3,0.3,0.8,0.2v0.5c-0.3,0-0.4,0-0.6,0c-0.3,0-0.8,0-1.4,0.2h-0.2L114.2,135z M114.2,130.8c-0.1-0.2-0.1-0.4-0.3-0.6
			c-0.3-0.4-0.8-0.5-1.2-0.5c-1.3,0-2,1.2-2,2.9c0,1.6,0.7,2.7,2,2.7c0.3,0,0.7-0.1,0.9-0.3c0.4-0.3,0.6-0.6,0.7-0.8v-3.4H114.2z"/>
	</g>
	<g>
		<g>
			
				<linearGradient id="SVGID_1_" gradientUnits="userSpaceOnUse" x1="67.0004" y1="93.3187" x2="57.9096" y2="-0.9989" gradientTransform="matrix(1 0 0 -1 0 100)">
				<stop  offset="0" style="stop-color:#A6CE39"/>
				<stop  offset="0.4969" style="stop-color:#0DB14B"/>
				<stop  offset="1" style="stop-color:#006F45"/>
			</linearGradient>
			<path class="st1" d="M110.7,92.8c-6.5-1.6-11.8-6.6-16-10.2S76.9,63.1,72.4,58c-0.1-0.2-0.3-0.4-0.5-0.6
				c-0.3-0.3,0.1-0.7,0.2-0.8c9.8-7.1,13.4-15.5,13.5-23.8C85.8,18.4,72.8,7.4,49.9,7.3C27,7.2,11.4,17.4,9.1,18.7s-2.6,2.4-2.1,3
				c0.8,1,3.3,1.1,5.6,3.7c2.3,2.5,2.1,4.5,2.4,6.9s2.4,29.4,2.5,42.3s-1.7,17-4.8,18.9c-4.7,3-0.8,6.3,1.6,5.9s7.4-0.5,10.7-0.8
				c3.4-0.3,7.5,0.2,10.5,0.7c1.7,0.3,3-1.2,2.5-3.2c-0.4-1.8-1.5-2.2-3.9-3c-2.1-0.7-2.4-4.8-3-10.7c-0.2-2.4-0.6-6.1-0.6-10.4
				c0-0.3,0.2-0.5,0.4-0.5c13.7-0.9,22.3-3.3,33.3-10.1c0.4-0.2,0.6,0.1,0.7,0.2c9.1,12,17.8,23.6,19.7,26.2
				c1.6,2.3,1.8,5.2,0.1,5.9c-2,0.8-3.2,0.8-3.1,3.8c0.1,1.5,2.5,2.7,7.2,2s19.9-0.3,23.2,0.1c3.4,0.4,5-0.5,5.1-2.5
				C117.5,93.7,115,93.9,110.7,92.8z M39.3,15.5c4.6-4.2,16.2-4,21.5-1.6c9.5,4.3,14.9,14.7,10.8,28.6c-0.9,3.2-2.9,6.1-4.5,7.9
				c-0.2,0.2-0.3,0.6-0.8,0c-7.8-9.9-24.8-31.1-26.7-33C38.8,16.6,38.6,15.9,39.3,15.5z M44.1,65.1c-5.3,1.4-10.7,2.2-13.1,0.5
				c-0.4-0.3-0.6-1-0.7-1.7c-0.8-14.5-1.1-31.5-1.2-35c-0.1-5.4,1.6-6.4,3.8-4.7C35,25.9,44,34.1,55.7,49.3c1.7,2.3,3.5,4.6,5.4,7
				c0.1,0.1,0.1,0.3,0,0.4C55.6,61.8,47.9,64.2,44.1,65.1z"/>
		</g>
		<g class="st2">
			<path class="st3" d="M110.7,92.8c-6.5-1.6-11.8-6.6-16-10.2S76.9,63.1,72.4,58c-0.1-0.2-0.3-0.4-0.5-0.6
				c-0.3-0.3,0.1-0.7,0.2-0.8c9.8-7.1,13.4-15.5,13.5-23.8C85.8,18.4,72.8,7.4,49.9,7.3C27,7.2,11.4,17.4,9.1,18.7s-2.6,2.4-2.1,3
				c0.8,1,3.3,1.1,5.6,3.7c2.3,2.5,2.1,4.5,2.4,6.9s2.4,29.4,2.5,42.3s-1.7,17-4.8,18.9c-4.7,3-0.8,6.3,1.6,5.9s7.4-0.5,10.7-0.8
				c3.4-0.3,7.5,0.2,10.5,0.7c1.7,0.3,3-1.2,2.5-3.2c-0.4-1.8-1.5-2.2-3.9-3c-2.1-0.7-2.4-4.8-3-10.7c-0.2-2.4-0.6-6.1-0.6-10.4
				c0-0.3,0.2-0.5,0.4-0.5c13.7-0.9,22.3-3.3,33.3-10.1c0.4-0.2,0.6,0.1,0.7,0.2c9.1,12,17.8,23.6,19.7,26.2
				c1.6,2.3,1.8,5.2,0.1,5.9c-2,0.8-3.2,0.8-3.1,3.8c0.1,1.5,2.5,2.7,7.2,2s19.9-0.3,23.2,0.1c3.4,0.4,5-0.5,5.1-2.5
				C117.5,93.7,115,93.9,110.7,92.8z M39.3,15.5c4.6-4.2,16.2-4,21.5-1.6c9.5,4.3,14.9,14.7,10.8,28.6c-0.9,3.2-2.9,6.1-4.5,7.9
				c-0.2,0.2-0.3,0.6-0.8,0c-7.8-9.9-24.8-31.1-26.7-33C38.8,16.6,38.6,15.9,39.3,15.5z M44.1,65.1c-5.3,1.4-10.7,2.2-13.1,0.5
				c-0.4-0.3-0.6-1-0.7-1.7c-0.8-14.5-1.1-31.5-1.2-35c-0.1-5.4,1.6-6.4,3.8-4.7C35,25.9,44,34.1,55.7,49.3c1.7,2.3,3.5,4.6,5.4,7
				c0.1,0.1,0.1,0.3,0,0.4C55.6,61.8,47.9,64.2,44.1,65.1z"/>
		</g>
	</g>
</g>
</svg>
